<?xml version="1.0" encoding="utf-8"?>
<!-- Generator: Adobe Illustrator 22.0.0, SVG Export Plug-In . SVG Version: 6.00 Build 0)  -->
<svg version="1.1" id="Layer_1" xmlns="http://www.w3.org/2000/svg" xmlns:xlink="http://www.w3.org/1999/xlink" x="0px" y="0px"
	 width="20px" height="18px" viewBox="0 0 20 18" style="enable-background:new 0 0 20 18;" xml:space="preserve">
<style type="text/css">
	.st0{fill:#C14F2D;}
	.st1{fill:#F46936;}
	.st2{fill:#EA3323;}
	.st3{fill:#FFFFFF;}
</style>
<g>
	<g>
		<path class="st0" d="M15.8,1.8c0,0.5,0,0.9,0,1.4c0.5,0,0.9,0,1.4,0c0-0.5,0-0.9,0-1.4C16.7,1.8,16.2,1.8,15.8,1.8z"/>
	</g>
	<g>
		<path class="st0" d="M17.2,8.9c0.5,0,0.9,0,1.4,0c0-1.9,0-3.8,0-5.7c-0.5,0-0.9,0-1.4,0C17.2,5.1,17.2,7,17.2,8.9z"/>
	</g>
	<g>
		<path class="st0" d="M15.8,10.5c0.5,0,0.9,0,1.4,0c0-0.5,0-1,0-1.5c-0.5,0-0.9,0-1.4,0C15.8,9.5,15.8,10,15.8,10.5z"/>
	</g>
	<g>
		<ellipse class="st0" cx="15" cy="11.2" rx="1.1" ry="1"/>
	</g>
	<g>
		<circle class="st0" cx="13.6" cy="12.6" r="1"/>
	</g>
	<g>
		<circle class="st0" cx="12.2" cy="14" r="1"/>
	</g>
	<g>
		<path class="st0" d="M8.5,16.2c1,0,1.9,0,2.9,0c0-0.5,0-1,0-1.5c-1,0-1.9,0-2.9,0C8.5,15.2,8.5,15.7,8.5,16.2z"/>
	</g>
	<g>
		<g>
			<path class="st1" d="M15.8,1.8c-1,0-1.9,0-2.9,0c0,0.5,0,0.9,0,1.4c-0.5,0-0.9,0-1.4,0c0,0.5,0,1,0,1.5c-1,0-1.9,0-2.9,0
				c0-0.5,0-1,0-1.5c-0.5,0-0.9,0-1.4,0c0-0.5,0-0.9,0-1.4c-1.4,0-2.9,0-4.3,0c0,0.5,0,0.9,0,1.4c-0.5,0-0.9,0-1.4,0
				c0,1.9,0,3.8,0,5.7c0.5,0,0.9,0,1.4,0c0,0.5,0,1,0,1.5c0.5,0,1,0,1.5,0c0,0.5,0,0.9,0,1.4c0.5,0,0.9,0,1.4,0c0,0.5,0,0.9,0,1.4
				c0.5,0,0.9,0,1.4,0c0,0.5,0,0.9,0,1.4c1.4,0,2.9,0,4.3,0c0-0.5,0-0.9,0-1.4c0.5,0,0.9,0,1.4,0c0-0.5,0-0.9,0-1.4
				c0.5,0,0.9,0,1.4,0c0-0.5,0-0.9,0-1.4c0.5,0,1,0,1.5,0c0-0.5,0-1,0-1.5c0.5,0,0.9,0,1.4,0c0-1.9,0-3.8,0-5.7c-0.5,0-0.9,0-1.4,0
				C15.8,2.8,15.8,2.3,15.8,1.8z"/>
		</g>
		<g>
			<path class="st2" d="M5.7,4.7c-0.5,0-0.9,0-1.4,0c0,0.5,0,0.9,0,1.4c-0.5,0-1,0-1.5,0c0-0.5,0-0.9,0-1.4c0.5,0,1,0,1.5,0
				c0-0.5,0-1,0-1.5c0.5,0,0.9,0,1.4,0C5.7,3.7,5.7,4.2,5.7,4.7z"/>
		</g>
	</g>
	<g>
		<path class="st3" d="M4.3,4.7c0.5,0,0.9,0,1.4,0c0-0.5,0-1,0-1.5c-0.5,0-0.9,0-1.4,0C4.3,3.7,4.3,4.2,4.3,4.7z"/>
	</g>
	<g>
		<path class="st3" d="M2.8,6.1c0.5,0,1,0,1.5,0c0-0.5,0-0.9,0-1.4c-0.5,0-1,0-1.5,0C2.8,5.2,2.8,5.7,2.8,6.1z"/>
	</g>
	<g>
		<rect x="2.8" y="0.4" class="st3" width="4.3" height="1.4"/>
	</g>
	<g>
		<rect x="12.9" y="0.4" class="st3" width="4.3" height="1.4"/>
	</g>
	<g>
		<rect x="1.4" y="1.8" class="st3" width="1.4" height="1.4"/>
	</g>
	<g>
		<rect x="7.1" y="1.8" class="st3" width="1.4" height="1.4"/>
	</g>
	<g>
		<rect x="11.5" y="1.8" class="st3" width="1.4" height="1.4"/>
	</g>
	<g>
		<rect x="17.2" y="1.8" class="st3" width="1.4" height="1.4"/>
	</g>
	<g>
		<rect x="0" y="3.2" class="st3" width="1.4" height="5.7"/>
	</g>
	<g>
		<rect x="8.5" y="3.2" class="st3" width="2.9" height="1.5"/>
	</g>
	<g>
		<rect x="18.6" y="3.2" class="st3" width="1.4" height="5.7"/>
	</g>
	<g>
		<rect x="1.4" y="8.9" class="st3" width="1.4" height="1.5"/>
	</g>
	<g>
		<rect x="17.2" y="8.9" class="st3" width="1.4" height="1.5"/>
	</g>
	<g>
		<rect x="2.8" y="10.5" class="st3" width="1.5" height="1.4"/>
	</g>
	<g>
		<rect x="15.8" y="10.5" class="st3" width="1.4" height="1.4"/>
	</g>
	<g>
		<rect x="4.3" y="11.9" class="st3" width="1.4" height="1.4"/>
	</g>
	<g>
		<rect x="14.3" y="11.9" class="st3" width="1.5" height="1.4"/>
	</g>
	<g>
		<rect x="5.7" y="13.3" class="st3" width="1.4" height="1.4"/>
	</g>
	<g>
		<rect x="12.9" y="13.3" class="st3" width="1.4" height="1.4"/>
	</g>
	<g>
		<rect x="7.1" y="14.7" class="st3" width="1.4" height="1.5"/>
	</g>
	<g>
		<rect x="11.5" y="14.7" class="st3" width="1.4" height="1.5"/>
	</g>
	<g>
		<rect x="8.5" y="16.2" class="st3" width="2.9" height="1.4"/>
	</g>
</g>
</svg>
