<?xml version="1.0" encoding="utf-8"?>
<!-- Generator: Adobe Illustrator 22.0.0, SVG Export Plug-In . SVG Version: 6.00 Build 0)  -->
<svg version="1.1" id="Layer_1" xmlns="http://www.w3.org/2000/svg" xmlns:xlink="http://www.w3.org/1999/xlink" x="0px" y="0px"
	 width="48px" height="48px" viewBox="0 0 48 48" style="enable-background:new 0 0 48 48;" xml:space="preserve">
<style type="text/css">
	.st0{fill:#C3EBE2;}
	.st1{fill:#87D6C5;}
	.st2{fill:#231F20;}
</style>
<g>
	<g>
		<path class="st0" d="M40,8c0.9,0,1.7,0,2.6,0c0-1.7,0-3.5,0-5.2c-9.8,0-19.5,0-29.3,0c0,0.9,0,1.7,0,2.6c8.9,0,17.8,0,26.7,0
			C40,6.3,40,7.2,40,8z"/>
	</g>
	<g>
		<path class="st0" d="M5.4,13.4c-0.9,0-1.9,0-2.8,0c0,9.7,0,19.4,0,29.1c1.8,0,3.6,0,5.4,0c0-0.9,0-1.7,0-2.6c-0.9,0-1.7,0-2.6,0
			C5.4,31.1,5.4,22.3,5.4,13.4z"/>
	</g>
	<g>
		<path class="st1" d="M18.7,21.3c-1.8,0-3.6,0-5.4,0c0-0.9,0-1.7,0-2.6c-0.9,0-1.7,0-2.6,0c0-2.7,0-5.4,0-8c0.9,0,1.7,0,2.6,0
			c0-0.9,0-1.7,0-2.6c0.9,0,1.9,0,2.8,0c0-0.9,0-1.7,0-2.6c-2.7,0-5.4,0-8,0C8,6.3,8,7.2,8,8C7.2,8,6.3,8,5.4,8
			c0,10.6,0,21.3,0,31.9c0.9,0,1.7,0,2.6,0c0,0.9,0,1.7,0,2.6c4.4,0,8.8,0,13.3,0c0-0.9,0-1.7,0-2.6c-0.9,0-1.7,0-2.6,0
			c0-1.7,0-3.5,0-5.2c0.9,0,1.7,0,2.6,0c0-0.9,0-1.9,0-2.8c-0.9,0-1.7,0-2.6,0c0-1.7,0-3.5,0-5.2c0.9,0,1.7,0,2.6,0
			c0-0.9,0-1.7,0-2.6c0.9,0,1.7,0,2.6,0c0-1.8,0-3.6,0-5.4c-1.7,0-3.5,0-5.2,0C18.7,19.5,18.7,20.4,18.7,21.3z"/>
	</g>
	<g>
		<polygon class="st1" points="42.6,8 40,8 40,5.4 31.9,5.4 31.9,8 34.6,8 34.6,10.6 37.4,10.6 37.4,18.7 34.6,18.7 34.6,24.1 
			31.9,24.1 31.9,29.3 29.3,29.3 29.3,31.9 26.7,31.9 26.7,34.7 29.3,34.7 29.3,40 26.7,40 26.7,42.6 40,42.6 40,40 42.6,40 		"/>
	</g>
	<g>
		<path class="st1" d="M42.6,40c-0.9,0-1.7,0-2.6,0c0,0.9,0,1.7,0,2.6c-11.5,0-23,0-34.6,0c0,0.9,0,1.7,0,2.6c12.4,0,24.8,0,37.2,0
			c0-0.9,0-1.7,0-2.6c0.9,0,1.7,0,2.6,0c0-12.4,0-24.8,0-37.2c-0.9,0-1.7,0-2.6,0C42.6,16.9,42.6,28.5,42.6,40z"/>
	</g>
	<g>
		<path class="st0" d="M5.4,8C6.3,8,7.2,8,8,8c0-0.9,0-1.7,0-2.6c1.7,0,3.5,0,5.2,0c0-0.9,0-1.7,0-2.6c-2.6,0-5.2,0-7.8,0
			c0,0.9,0,1.7,0,2.6c-0.9,0-1.9,0-2.8,0c0,2.7,0,5.4,0,8c0.9,0,1.9,0,2.8,0C5.4,11.6,5.4,9.8,5.4,8z"/>
	</g>
	<g>
		<path class="st0" d="M13.3,18.7c1.8,0,3.6,0,5.4,0c0-0.9,0-1.7,0-2.6c0.9,0,7.2,0,8,0c0-2.7,0-5.4,0-8C25,8,17.8,8,16.1,8
			c0,0.9,0,1.7,0,2.6c-0.9,0-1.9,0-2.8,0C13.3,13.3,13.3,16,13.3,18.7z"/>
	</g>
	<g>
		<path class="st0" d="M31.9,18.7c0.9,0,1.7,0,2.6,0c0-2.7,0-5.4,0-8c-0.9,0-1.7,0-2.6,0c0-0.9,0-1.7,0-2.6c-1.7,0-3.5,0-5.2,0
			c0,4.4,0,11.6,0,16.1c1.7,0,3.5,0,5.2,0C31.9,23.2,31.9,19.5,31.9,18.7z"/>
	</g>
	<g>
		<path class="st0" d="M26.7,29.3c0.9,0,1.7,0,2.6,0c0-0.9,0-1.7,0-2.6c-2.7,0-5.4,0-8,0c0,1.7,0,3.5,0,5.2c1.8,0,3.6,0,5.4,0
			C26.7,31.1,26.7,30.2,26.7,29.3z"/>
	</g>
	<g>
		<path class="st0" d="M21.3,40c1.8,0,3.6,0,5.4,0c0-1.7,0-3.5,0-5.2c-1.8,0-3.6,0-5.4,0C21.3,36.5,21.3,38.2,21.3,40z"/>
	</g>
	<g>
		<g>
			<rect x="5.4" y="0" class="st2" width="37.2" height="2.8"/>
		</g>
	</g>
	<g>
		<g>
			<rect x="2.6" y="2.8" class="st2" width="2.8" height="2.6"/>
		</g>
	</g>
	<g>
		<rect x="42.6" y="2.8" class="st2" width="2.6" height="2.6"/>
	</g>
	<g>
		<rect y="5.4" class="st2" width="2.6" height="37.2"/>
	</g>
	<g>
		<rect x="16.1" y="5.4" class="st2" width="15.9" height="2.6"/>
	</g>
	<g>
		<rect x="45.2" y="5.4" class="st2" width="2.8" height="37.2"/>
	</g>
	<g>
		<rect x="13.3" y="8" class="st2" width="2.8" height="2.6"/>
	</g>
	<g>
		<rect x="31.9" y="8" class="st2" width="2.6" height="2.6"/>
	</g>
	<g>
		<rect x="10.6" y="10.6" class="st2" width="2.6" height="8"/>
	</g>
	<g>
		<rect x="34.6" y="10.6" class="st2" width="2.8" height="8"/>
	</g>
	<g>
		<polygon class="st2" points="26.7,16.1 18.7,16.1 18.7,18.7 23.9,18.7 23.9,24.1 26.7,24.1 		"/>
	</g>
	<g>
		<rect x="13.3" y="18.7" class="st2" width="5.4" height="2.6"/>
	</g>
	<g>
		<rect x="31.9" y="18.7" class="st2" width="2.6" height="5.4"/>
	</g>
	<g>
		<rect x="21.3" y="24.1" class="st2" width="2.6" height="2.6"/>
	</g>
	<g>
		<rect x="23.9" y="24.1" class="st0" width="5.4" height="2.6"/>
	</g>
	<g>
		<rect x="29.3" y="24.1" class="st2" width="2.6" height="5.2"/>
	</g>
	<g>
		<rect x="18.7" y="26.7" class="st2" width="2.6" height="5.2"/>
	</g>
	<g>
		<rect x="26.7" y="29.3" class="st2" width="2.6" height="2.6"/>
	</g>
	<g>
		<rect x="21.3" y="31.9" class="st2" width="5.4" height="2.8"/>
	</g>
	<g>
		<rect x="18.7" y="34.7" class="st2" width="2.6" height="5.2"/>
	</g>
	<g>
		<rect x="26.7" y="34.7" class="st2" width="2.6" height="5.2"/>
	</g>
	<g>
		<rect x="21.3" y="40" class="st2" width="5.4" height="2.6"/>
	</g>
	<g>
		<rect x="2.6" y="42.6" class="st2" width="2.8" height="2.6"/>
	</g>
	<g>
		<rect x="42.6" y="42.6" class="st2" width="2.6" height="2.6"/>
	</g>
	<g>
		<rect x="5.4" y="45.2" class="st2" width="37.2" height="2.8"/>
	</g>
</g>
</svg>
