<?xml version="1.0" encoding="utf-8"?>
<!-- Generator: Adobe Illustrator 22.0.0, SVG Export Plug-In . SVG Version: 6.00 Build 0)  -->
<svg version="1.1" id="Layer_1" xmlns="http://www.w3.org/2000/svg" xmlns:xlink="http://www.w3.org/1999/xlink" x="0px" y="0px"
	 width="64px" height="43px" viewBox="0 0 64 43" style="enable-background:new 0 0 64 43;" xml:space="preserve">
<style type="text/css">
	.st0{fill:#87D6C5;}
	.st1{fill:#231F20;}
	.st2{fill:#C3EBE2;}
</style>
<g>
	<g>
		<polygon class="st0" points="51.6,5.7 51.6,3.7 41.8,3.7 41.8,13.6 43.7,13.6 43.7,15.6 45.7,15.6 45.7,17.6 49.7,17.6 49.7,15.6 
			51.6,15.6 51.6,13.6 49.7,13.6 53.6,13.6 53.6,5.7 		"/>
		<polygon class="st0" points="61.5,27.4 61.5,25.5 59.6,25.5 59.6,23.5 57.6,23.5 57.6,21.5 53.6,21.5 53.6,17.6 53.6,17.6 
			39.8,17.6 39.8,17.6 39.8,21.5 35.8,21.5 35.8,23.5 33.9,23.5 33.9,25.5 31.9,25.5 31.9,27.4 29.9,27.4 29.9,29.4 35.8,29.4 
			37.3,29.4 41.8,29.4 41.8,29.4 51.6,29.4 51.6,29.4 56.1,29.4 57.6,29.4 63.5,29.4 63.5,27.4 		"/>
		<g>
			
				<rect x="43.7" y="29.4" transform="matrix(-1 -1.224647e-16 1.224647e-16 -1 89.4508 60.8058)" class="st1" width="2" height="2"/>
			
				<rect x="45.7" y="29.4" transform="matrix(-1 -1.224647e-16 1.224647e-16 -1 93.4044 60.8058)" class="st1" width="2" height="2"/>
			
				<rect x="41.8" y="29.4" transform="matrix(-1 -1.224647e-16 1.224647e-16 -1 85.4972 60.8058)" class="st1" width="2" height="2"/>
			
				<rect x="39.8" y="29.4" transform="matrix(-1 -1.224647e-16 1.224647e-16 -1 81.5436 60.8058)" class="st1" width="2" height="2"/>
			<rect x="37.8" y="29.4" transform="matrix(-1 -1.224647e-16 1.224647e-16 -1 77.59 60.8058)" class="st1" width="2" height="2"/>
			
				<rect x="35.8" y="29.4" transform="matrix(-1 -1.224647e-16 1.224647e-16 -1 73.6364 60.8058)" class="st1" width="2" height="2"/>
			
				<rect x="33.9" y="29.4" transform="matrix(-1 -1.224647e-16 1.224647e-16 -1 69.6828 60.8058)" class="st1" width="2" height="2"/>
			
				<rect x="31.9" y="29.4" transform="matrix(-1 -1.224647e-16 1.224647e-16 -1 65.7292 60.8058)" class="st1" width="2" height="2"/>
			
				<rect x="29.9" y="29.4" transform="matrix(-1 -1.224647e-16 1.224647e-16 -1 61.7756 60.8058)" class="st1" width="2" height="2"/>
			
				<rect x="29.9" y="27.4" transform="matrix(-1 -1.224647e-16 1.224647e-16 -1 61.7756 56.8522)" class="st1" width="2" height="2"/>
			
				<rect x="29.9" y="25.5" transform="matrix(-1 -1.224647e-16 1.224647e-16 -1 61.7756 52.8986)" class="st1" width="2" height="2"/>
			
				<rect x="31.9" y="23.5" transform="matrix(-1 -1.224647e-16 1.224647e-16 -1 65.7292 48.945)" class="st1" width="2" height="2"/>
			
				<rect x="33.9" y="21.5" transform="matrix(-1 -1.224647e-16 1.224647e-16 -1 69.6828 44.9914)" class="st1" width="2" height="2"/>
			
				<rect x="41.8" y="15.6" transform="matrix(-1 -1.224647e-16 1.224647e-16 -1 85.4972 33.1312)" class="st1" width="2" height="2"/>
			
				<rect x="41.8" y="17.6" transform="matrix(-1 -1.224647e-16 1.224647e-16 -1 85.4972 37.0848)" class="st1" width="2" height="2"/>
			
				<rect x="39.8" y="13.6" transform="matrix(-1 -1.224647e-16 1.224647e-16 -1 81.5436 29.1776)" class="st1" width="2" height="2"/>
			<rect x="37.8" y="11.6" transform="matrix(-1 -1.224647e-16 1.224647e-16 -1 77.59 25.2247)" class="st1" width="2" height="2"/>
			<rect x="37.8" y="7.7" transform="matrix(-1 -1.224647e-16 1.224647e-16 -1 77.59 17.3181)" class="st1" width="2" height="2"/>
			<rect x="37.8" y="9.6" transform="matrix(-1 -1.224647e-16 1.224647e-16 -1 77.59 21.2717)" class="st1" width="2" height="2"/>
			<rect x="37.8" y="5.7" transform="matrix(-1 -1.224647e-16 1.224647e-16 -1 77.59 13.3645)" class="st1" width="2" height="2"/>
			<rect x="39.8" y="3.7" transform="matrix(-1 -1.224647e-16 1.224647e-16 -1 81.5436 9.4103)" class="st1" width="2" height="2"/>
			<rect x="43.7" y="1.7" transform="matrix(-1 -1.224647e-16 1.224647e-16 -1 89.4508 5.4573)" class="st1" width="2" height="2"/>
			<rect x="41.8" y="1.7" transform="matrix(-1 -1.224647e-16 1.224647e-16 -1 85.4972 5.4573)" class="st1" width="2" height="2"/>
			<rect x="41.8" y="3.7" transform="matrix(-1 -1.224647e-16 1.224647e-16 -1 85.4972 9.4103)" class="st2" width="2" height="2"/>
			
				<rect x="39.8" y="5.7" transform="matrix(-1 -1.224647e-16 1.224647e-16 -1 81.5436 19.2943)" class="st2" width="2" height="7.9"/>
			
				<rect x="41.8" y="13.6" transform="matrix(-1 -1.224647e-16 1.224647e-16 -1 85.4972 29.1776)" class="st2" width="2" height="2"/>
			
				<rect x="43.7" y="15.6" transform="matrix(-1 -1.224647e-16 1.224647e-16 -1 89.4504 33.1312)" class="st2" width="2" height="2"/>
			<rect x="45.7" y="1.7" transform="matrix(-1 -1.224647e-16 1.224647e-16 -1 93.4044 5.4573)" class="st1" width="2" height="2"/>
			<rect x="47.7" y="1.7" transform="matrix(-1 -1.224647e-16 1.224647e-16 -1 97.3573 5.4573)" class="st1" width="2" height="2"/>
			
				<rect x="49.7" y="1.7" transform="matrix(-1 -1.224647e-16 1.224647e-16 -1 101.3109 5.4573)" class="st1" width="2" height="2"/>
			
				<rect x="51.6" y="3.7" transform="matrix(-1 -1.224647e-16 1.224647e-16 -1 105.2648 9.4103)" class="st1" width="2" height="2"/>
			
				<rect x="53.6" y="5.7" transform="matrix(-1 -1.224647e-16 1.224647e-16 -1 109.2184 13.3645)" class="st1" width="2" height="2"/>
			
				<rect x="53.6" y="7.7" transform="matrix(-1 -1.224647e-16 1.224647e-16 -1 109.2184 17.3181)" class="st1" width="2" height="2"/>
			
				<rect x="53.6" y="9.6" transform="matrix(-1 -1.224647e-16 1.224647e-16 -1 109.2181 21.2711)" class="st1" width="2" height="2"/>
			
				<rect x="53.6" y="11.6" transform="matrix(-1 -1.224647e-16 1.224647e-16 -1 109.2181 25.2247)" class="st1" width="2" height="2"/>
			
				<rect x="51.6" y="13.6" transform="matrix(-1 -1.224647e-16 1.224647e-16 -1 105.2648 29.1776)" class="st1" width="2" height="2"/>
			
				<rect x="49.7" y="15.6" transform="matrix(-1 -1.224647e-16 1.224647e-16 -1 101.3109 33.1312)" class="st1" width="2" height="2"/>
			
				<rect x="49.7" y="17.6" transform="matrix(-1 -1.224647e-16 1.224647e-16 -1 101.3112 37.0848)" class="st1" width="2" height="2"/>
			
				<rect x="37.8" y="17.6" transform="matrix(-1 -1.224647e-16 1.224647e-16 -1 79.5671 37.0848)" class="st1" width="4" height="2"/>
			
				<rect x="35.8" y="19.5" transform="matrix(-1 -1.224647e-16 1.224647e-16 -1 75.6132 41.0378)" class="st1" width="4" height="2"/>
			<rect x="47.7" y="29.4" class="st1" width="2" height="2"/>
			<rect x="49.7" y="29.4" class="st1" width="2" height="2"/>
			<rect x="51.6" y="29.4" class="st1" width="2" height="2"/>
			<rect x="53.6" y="29.4" class="st1" width="2" height="2"/>
			<rect x="55.6" y="29.4" class="st1" width="2" height="2"/>
			<rect x="57.6" y="29.4" class="st1" width="2" height="2"/>
			<rect x="59.6" y="29.4" class="st1" width="2" height="2"/>
			<rect x="61.5" y="29.4" class="st1" width="2" height="2"/>
			<rect x="61.5" y="27.4" class="st1" width="2" height="2"/>
			<rect x="61.5" y="25.5" class="st1" width="2" height="2"/>
			<rect x="59.6" y="23.5" class="st1" width="2" height="2"/>
			<rect x="57.6" y="21.5" class="st1" width="2" height="2"/>
			<rect x="51.6" y="17.6" class="st1" width="4" height="2"/>
			<rect x="53.6" y="19.5" class="st1" width="4" height="2"/>
		</g>
		<rect x="43.7" y="17.6" class="st2" width="2" height="2"/>
		<rect x="33.9" y="23.5" class="st2" width="2" height="2"/>
		<rect x="31.9" y="25.5" class="st2" width="2" height="2"/>
		<rect x="31.9" y="27.4" class="st2" width="29.7" height="2"/>
		<rect x="39.8" y="19.5" class="st2" width="4" height="2"/>
		<rect x="35.8" y="21.5" class="st2" width="4" height="2"/>
	</g>
	<g>
		<polygon class="st0" points="22.2,5.7 22.2,3.7 12.4,3.7 12.4,13.6 14.3,13.6 14.3,15.6 16.3,15.6 16.3,17.6 20.3,17.6 20.3,15.6 
			22.2,15.6 22.2,13.6 20.3,13.6 24.2,13.6 24.2,5.7 		"/>
		<polygon class="st0" points="32.1,27.4 32.1,25.5 30.1,25.5 30.1,23.5 28.2,23.5 28.2,21.5 24.2,21.5 24.2,17.6 24.2,17.6 
			10.4,17.6 10.4,17.6 10.4,21.5 6.4,21.5 6.4,23.5 4.4,23.5 4.4,25.5 2.5,25.5 2.5,27.4 0.5,27.4 0.5,29.4 6.4,29.4 7.9,29.4 
			12.4,29.4 12.4,29.4 22.2,29.4 22.2,29.4 26.7,29.4 28.2,29.4 34.1,29.4 34.1,27.4 		"/>
		<g>
			
				<rect x="14.3" y="29.4" transform="matrix(-1 -1.224647e-16 1.224647e-16 -1 30.6436 60.8058)" class="st1" width="2" height="2"/>
			
				<rect x="16.3" y="29.4" transform="matrix(-1 -1.224647e-16 1.224647e-16 -1 34.5972 60.8058)" class="st1" width="2" height="2"/>
			<rect x="12.4" y="29.4" transform="matrix(-1 -1.224647e-16 1.224647e-16 -1 26.69 60.8058)" class="st1" width="2" height="2"/>
			
				<rect x="10.4" y="29.4" transform="matrix(-1 -1.224647e-16 1.224647e-16 -1 22.7364 60.8058)" class="st1" width="2" height="2"/>
			
				<rect x="8.4" y="29.4" transform="matrix(-1 -1.224647e-16 1.224647e-16 -1 18.7828 60.8058)" class="st1" width="2" height="2"/>
			
				<rect x="6.4" y="29.4" transform="matrix(-1 -1.224647e-16 1.224647e-16 -1 14.8292 60.8058)" class="st1" width="2" height="2"/>
			
				<rect x="4.4" y="29.4" transform="matrix(-1 -1.224647e-16 1.224647e-16 -1 10.8756 60.8058)" class="st1" width="2" height="2"/>
			<rect x="2.5" y="29.4" transform="matrix(-1 -1.224647e-16 1.224647e-16 -1 6.922 60.8058)" class="st1" width="2" height="2"/>
			<rect x="0.5" y="29.4" transform="matrix(-1 -1.224647e-16 1.224647e-16 -1 2.9684 60.8058)" class="st1" width="2" height="2"/>
			<rect x="0.5" y="27.4" transform="matrix(-1 -1.224647e-16 1.224647e-16 -1 2.9684 56.8522)" class="st1" width="2" height="2"/>
			<rect x="0.5" y="25.5" transform="matrix(-1 -1.224647e-16 1.224647e-16 -1 2.9684 52.8986)" class="st1" width="2" height="2"/>
			<rect x="2.5" y="23.5" transform="matrix(-1 -1.224647e-16 1.224647e-16 -1 6.922 48.945)" class="st1" width="2" height="2"/>
			
				<rect x="4.4" y="21.5" transform="matrix(-1 -1.224647e-16 1.224647e-16 -1 10.8756 44.9914)" class="st1" width="2" height="2"/>
			<rect x="12.4" y="15.6" transform="matrix(-1 -1.224647e-16 1.224647e-16 -1 26.69 33.1312)" class="st1" width="2" height="2"/>
			<rect x="12.4" y="17.6" transform="matrix(-1 -1.224647e-16 1.224647e-16 -1 26.69 37.0848)" class="st1" width="2" height="2"/>
			
				<rect x="10.4" y="13.6" transform="matrix(-1 -1.224647e-16 1.224647e-16 -1 22.7364 29.1776)" class="st1" width="2" height="2"/>
			
				<rect x="8.4" y="11.6" transform="matrix(-1 -1.224647e-16 1.224647e-16 -1 18.7828 25.2247)" class="st1" width="2" height="2"/>
			<rect x="8.4" y="7.7" transform="matrix(-1 -1.224647e-16 1.224647e-16 -1 18.7828 17.3181)" class="st1" width="2" height="2"/>
			<rect x="8.4" y="9.6" transform="matrix(-1 -1.224647e-16 1.224647e-16 -1 18.7828 21.2717)" class="st1" width="2" height="2"/>
			<rect x="8.4" y="5.7" transform="matrix(-1 -1.224647e-16 1.224647e-16 -1 18.7828 13.3645)" class="st1" width="2" height="2"/>
			<rect x="10.4" y="3.7" transform="matrix(-1 -1.224647e-16 1.224647e-16 -1 22.7364 9.4103)" class="st1" width="2" height="2"/>
			<rect x="14.3" y="1.7" transform="matrix(-1 -1.224647e-16 1.224647e-16 -1 30.6436 5.4573)" class="st1" width="2" height="2"/>
			<rect x="12.4" y="1.7" transform="matrix(-1 -1.224647e-16 1.224647e-16 -1 26.69 5.4573)" class="st1" width="2" height="2"/>
			<rect x="12.4" y="3.7" transform="matrix(-1 -1.224647e-16 1.224647e-16 -1 26.69 9.4103)" class="st2" width="2" height="2"/>
			
				<rect x="10.4" y="5.7" transform="matrix(-1 -1.224647e-16 1.224647e-16 -1 22.7364 19.2943)" class="st2" width="2" height="7.9"/>
			<rect x="12.4" y="13.6" transform="matrix(-1 -1.224647e-16 1.224647e-16 -1 26.69 29.1776)" class="st2" width="2" height="2"/>
			
				<rect x="14.3" y="15.6" transform="matrix(-1 -1.224647e-16 1.224647e-16 -1 30.6433 33.1312)" class="st2" width="2" height="2"/>
			<rect x="16.3" y="1.7" transform="matrix(-1 -1.224647e-16 1.224647e-16 -1 34.5972 5.4573)" class="st1" width="2" height="2"/>
			<rect x="18.3" y="1.7" transform="matrix(-1 -1.224647e-16 1.224647e-16 -1 38.5502 5.4573)" class="st1" width="2" height="2"/>
			<rect x="20.3" y="1.7" transform="matrix(-1 -1.224647e-16 1.224647e-16 -1 42.5038 5.4573)" class="st1" width="2" height="2"/>
			<rect x="22.2" y="3.7" transform="matrix(-1 -1.224647e-16 1.224647e-16 -1 46.4577 9.4103)" class="st1" width="2" height="2"/>
			
				<rect x="24.2" y="5.7" transform="matrix(-1 -1.224647e-16 1.224647e-16 -1 50.4113 13.3645)" class="st1" width="2" height="2"/>
			
				<rect x="24.2" y="7.7" transform="matrix(-1 -1.224647e-16 1.224647e-16 -1 50.4113 17.3181)" class="st1" width="2" height="2"/>
			<rect x="24.2" y="9.6" transform="matrix(-1 -1.224647e-16 1.224647e-16 -1 50.411 21.2711)" class="st1" width="2" height="2"/>
			
				<rect x="24.2" y="11.6" transform="matrix(-1 -1.224647e-16 1.224647e-16 -1 50.411 25.2247)" class="st1" width="2" height="2"/>
			
				<rect x="22.2" y="13.6" transform="matrix(-1 -1.224647e-16 1.224647e-16 -1 46.4577 29.1776)" class="st1" width="2" height="2"/>
			
				<rect x="20.3" y="15.6" transform="matrix(-1 -1.224647e-16 1.224647e-16 -1 42.5038 33.1312)" class="st1" width="2" height="2"/>
			
				<rect x="20.3" y="17.6" transform="matrix(-1 -1.224647e-16 1.224647e-16 -1 42.5041 37.0848)" class="st1" width="2" height="2"/>
			<rect x="8.4" y="17.6" transform="matrix(-1 -1.224647e-16 1.224647e-16 -1 20.76 37.0848)" class="st1" width="4" height="2"/>
			<rect x="6.4" y="19.5" transform="matrix(-1 -1.224647e-16 1.224647e-16 -1 16.806 41.0378)" class="st1" width="4" height="2"/>
			<rect x="18.3" y="29.4" class="st1" width="2" height="2"/>
			<rect x="20.3" y="29.4" class="st1" width="2" height="2"/>
			<rect x="22.2" y="29.4" class="st1" width="2" height="2"/>
			<rect x="24.2" y="29.4" class="st1" width="2" height="2"/>
			<rect x="26.2" y="29.4" class="st1" width="2" height="2"/>
			<rect x="28.2" y="29.4" class="st1" width="2" height="2"/>
			<rect x="30.1" y="29.4" class="st1" width="2" height="2"/>
			<rect x="32.1" y="29.4" class="st1" width="2" height="2"/>
			<rect x="32.1" y="27.4" class="st1" width="2" height="2"/>
			<rect x="32.1" y="25.5" class="st1" width="2" height="2"/>
			<rect x="30.1" y="23.5" class="st1" width="2" height="2"/>
			<rect x="28.2" y="21.5" class="st1" width="2" height="2"/>
			<rect x="22.2" y="17.6" class="st1" width="4" height="2"/>
			<rect x="24.2" y="19.5" class="st1" width="4" height="2"/>
		</g>
		<rect x="14.3" y="17.6" class="st2" width="2" height="2"/>
		<rect x="4.4" y="23.5" class="st2" width="2" height="2"/>
		<rect x="2.5" y="25.5" class="st2" width="2" height="2"/>
		<rect x="2.5" y="27.4" class="st2" width="29.7" height="2"/>
		<rect x="10.4" y="19.5" class="st2" width="4" height="2"/>
		<rect x="6.4" y="21.5" class="st2" width="4" height="2"/>
	</g>
	<g>
		<polygon class="st0" points="39.9,6 39.9,3.1 25.8,3.1 25.8,17.3 28.6,17.3 28.6,20.1 31.4,20.1 31.4,22.9 37.1,22.9 37.1,20.1 
			39.9,20.1 39.9,17.3 37.1,17.3 42.7,17.3 42.7,6 		"/>
		<polygon class="st0" points="54,37 54,34.2 51.2,34.2 51.2,31.4 48.4,31.4 48.4,28.6 42.7,28.6 42.7,22.9 42.7,22.9 22.9,22.9 
			22.9,22.9 22.9,28.6 17.3,28.6 17.3,31.4 14.5,31.4 14.5,34.2 11.6,34.2 11.6,37 8.8,37 8.8,39.9 17.3,39.9 19.3,39.9 25.8,39.9 
			25.8,39.9 39.9,39.9 39.9,39.9 46.3,39.9 48.4,39.9 56.8,39.9 56.8,37 		"/>
		<g>
			
				<rect x="28.6" y="39.9" transform="matrix(-1 -1.224647e-16 1.224647e-16 -1 60.0115 82.5346)" class="st1" width="2.8" height="2.8"/>
			
				<rect x="31.4" y="39.9" transform="matrix(-1 -1.224647e-16 1.224647e-16 -1 65.6595 82.5346)" class="st1" width="2.8" height="2.8"/>
			
				<rect x="25.8" y="39.9" transform="matrix(-1 -1.224647e-16 1.224647e-16 -1 54.3635 82.5346)" class="st1" width="2.8" height="2.8"/>
			
				<rect x="22.9" y="39.9" transform="matrix(-1 -1.224647e-16 1.224647e-16 -1 48.7155 82.5346)" class="st1" width="2.8" height="2.8"/>
			
				<rect x="20.1" y="39.9" transform="matrix(-1 -1.224647e-16 1.224647e-16 -1 43.0675 82.5346)" class="st1" width="2.8" height="2.8"/>
			
				<rect x="17.3" y="39.9" transform="matrix(-1 -1.224647e-16 1.224647e-16 -1 37.4195 82.5346)" class="st1" width="2.8" height="2.8"/>
			
				<rect x="14.5" y="39.9" transform="matrix(-1 -1.224647e-16 1.224647e-16 -1 31.7715 82.5346)" class="st1" width="2.8" height="2.8"/>
			
				<rect x="11.6" y="39.9" transform="matrix(-1 -1.224647e-16 1.224647e-16 -1 26.1235 82.5346)" class="st1" width="2.8" height="2.8"/>
			
				<rect x="8.8" y="39.9" transform="matrix(-1 -1.224647e-16 1.224647e-16 -1 20.4755 82.5346)" class="st1" width="2.8" height="2.8"/>
			
				<rect x="8.8" y="37" transform="matrix(-1 -1.224647e-16 1.224647e-16 -1 20.4755 76.8866)" class="st1" width="2.8" height="2.8"/>
			
				<rect x="8.8" y="34.2" transform="matrix(-1 -1.224647e-16 1.224647e-16 -1 20.4755 71.2386)" class="st1" width="2.8" height="2.8"/>
			
				<rect x="11.6" y="31.4" transform="matrix(-1 -1.224647e-16 1.224647e-16 -1 26.1235 65.5906)" class="st1" width="2.8" height="2.8"/>
			
				<rect x="14.5" y="28.6" transform="matrix(-1 -1.224647e-16 1.224647e-16 -1 31.7715 59.9426)" class="st1" width="2.8" height="2.8"/>
			
				<rect x="25.8" y="20.1" transform="matrix(-1 -1.224647e-16 1.224647e-16 -1 54.3635 42.9995)" class="st1" width="2.8" height="2.8"/>
			
				<rect x="25.8" y="22.9" transform="matrix(-1 -1.224647e-16 1.224647e-16 -1 54.3635 48.6475)" class="st1" width="2.8" height="2.8"/>
			
				<rect x="22.9" y="17.3" transform="matrix(-1 -1.224647e-16 1.224647e-16 -1 48.7155 37.3515)" class="st1" width="2.8" height="2.8"/>
			
				<rect x="20.1" y="14.4" transform="matrix(-1 -1.224647e-16 1.224647e-16 -1 43.0675 31.7045)" class="st1" width="2.8" height="2.8"/>
			
				<rect x="20.1" y="8.8" transform="matrix(-1 -1.224647e-16 1.224647e-16 -1 43.0675 20.4094)" class="st1" width="2.8" height="2.8"/>
			
				<rect x="20.1" y="11.6" transform="matrix(-1 -1.224647e-16 1.224647e-16 -1 43.0675 26.0574)" class="st1" width="2.8" height="2.8"/>
			
				<rect x="20.1" y="6" transform="matrix(-1 -1.224647e-16 1.224647e-16 -1 43.0675 14.7614)" class="st1" width="2.8" height="2.8"/>
			
				<rect x="22.9" y="3.1" transform="matrix(-1 -1.224647e-16 1.224647e-16 -1 48.7155 9.1125)" class="st1" width="2.8" height="2.8"/>
			
				<rect x="28.6" y="0.3" transform="matrix(-1 -1.224647e-16 1.224647e-16 -1 60.0115 3.4654)" class="st1" width="2.8" height="2.8"/>
			
				<rect x="25.8" y="0.3" transform="matrix(-1 -1.224647e-16 1.224647e-16 -1 54.3635 3.4654)" class="st1" width="2.8" height="2.8"/>
			
				<rect x="25.8" y="3.1" transform="matrix(-1 -1.224647e-16 1.224647e-16 -1 54.3635 9.1125)" class="st2" width="2.8" height="2.8"/>
			
				<rect x="22.9" y="6" transform="matrix(-1 -1.224647e-16 1.224647e-16 -1 48.7155 23.2324)" class="st2" width="2.8" height="11.3"/>
			
				<rect x="25.8" y="17.3" transform="matrix(-1 -1.224647e-16 1.224647e-16 -1 54.3635 37.3515)" class="st2" width="2.8" height="2.8"/>
			
				<rect x="28.6" y="20.1" transform="matrix(-1 -1.224647e-16 1.224647e-16 -1 60.011 42.9995)" class="st2" width="2.8" height="2.8"/>
			
				<rect x="31.4" y="0.3" transform="matrix(-1 -1.224647e-16 1.224647e-16 -1 65.6595 3.4654)" class="st1" width="2.8" height="2.8"/>
			
				<rect x="34.2" y="0.3" transform="matrix(-1 -1.224647e-16 1.224647e-16 -1 71.3065 3.4654)" class="st1" width="2.8" height="2.8"/>
			
				<rect x="37.1" y="0.3" transform="matrix(-1 -1.224647e-16 1.224647e-16 -1 76.9545 3.4654)" class="st1" width="2.8" height="2.8"/>
			
				<rect x="39.9" y="3.1" transform="matrix(-1 -1.224647e-16 1.224647e-16 -1 82.603 9.1125)" class="st1" width="2.8" height="2.8"/>
			
				<rect x="42.7" y="6" transform="matrix(-1 -1.224647e-16 1.224647e-16 -1 88.251 14.7614)" class="st1" width="2.8" height="2.8"/>
			
				<rect x="42.7" y="8.8" transform="matrix(-1 -1.224647e-16 1.224647e-16 -1 88.251 20.4094)" class="st1" width="2.8" height="2.8"/>
			
				<rect x="42.7" y="11.6" transform="matrix(-1 -1.224647e-16 1.224647e-16 -1 88.2505 26.0565)" class="st1" width="2.8" height="2.8"/>
			
				<rect x="42.7" y="14.4" transform="matrix(-1 -1.224647e-16 1.224647e-16 -1 88.2505 31.7045)" class="st1" width="2.8" height="2.8"/>
			
				<rect x="39.9" y="17.3" transform="matrix(-1 -1.224647e-16 1.224647e-16 -1 82.603 37.3515)" class="st1" width="2.8" height="2.8"/>
			
				<rect x="37.1" y="20.1" transform="matrix(-1 -1.224647e-16 1.224647e-16 -1 76.9545 42.9995)" class="st1" width="2.8" height="2.8"/>
			
				<rect x="37.1" y="22.9" transform="matrix(-1 -1.224647e-16 1.224647e-16 -1 76.955 48.6475)" class="st1" width="2.8" height="2.8"/>
			
				<rect x="20.1" y="22.9" transform="matrix(-1 -1.224647e-16 1.224647e-16 -1 45.892 48.6475)" class="st1" width="5.6" height="2.8"/>
			
				<rect x="17.3" y="25.7" transform="matrix(-1 -1.224647e-16 1.224647e-16 -1 40.2435 54.2946)" class="st1" width="5.6" height="2.8"/>
			<rect x="34.2" y="39.9" class="st1" width="2.8" height="2.8"/>
			<rect x="37.1" y="39.9" class="st1" width="2.8" height="2.8"/>
			<rect x="39.9" y="39.9" class="st1" width="2.8" height="2.8"/>
			<rect x="42.7" y="39.9" class="st1" width="2.8" height="2.8"/>
			<rect x="45.5" y="39.9" class="st1" width="2.8" height="2.8"/>
			<rect x="48.4" y="39.9" class="st1" width="2.8" height="2.8"/>
			<rect x="51.2" y="39.9" class="st1" width="2.8" height="2.8"/>
			<rect x="54" y="39.9" class="st1" width="2.8" height="2.8"/>
			<rect x="54" y="37" class="st1" width="2.8" height="2.8"/>
			<rect x="54" y="34.2" class="st1" width="2.8" height="2.8"/>
			<rect x="51.2" y="31.4" class="st1" width="2.8" height="2.8"/>
			<rect x="48.4" y="28.6" class="st1" width="2.8" height="2.8"/>
			<rect x="39.9" y="22.9" class="st1" width="5.6" height="2.8"/>
			<rect x="42.7" y="25.7" class="st1" width="5.6" height="2.8"/>
		</g>
		<rect x="28.6" y="22.9" class="st2" width="2.8" height="2.8"/>
		<rect x="14.5" y="31.4" class="st2" width="2.8" height="2.8"/>
		<rect x="11.6" y="34.2" class="st2" width="2.8" height="2.8"/>
		<rect x="11.6" y="37" class="st2" width="42.4" height="2.8"/>
		<rect x="22.9" y="25.7" class="st2" width="5.6" height="2.8"/>
		<rect x="17.3" y="28.6" class="st2" width="5.6" height="2.8"/>
	</g>
</g>
</svg>
