<?xml version="1.0" encoding="utf-8"?>
<!-- Generator: Adobe Illustrator 22.0.0, SVG Export Plug-In . SVG Version: 6.00 Build 0)  -->
<svg version="1.1" id="Layer_1" xmlns="http://www.w3.org/2000/svg" xmlns:xlink="http://www.w3.org/1999/xlink" x="0px" y="0px"
	 width="50px" height="50px" viewBox="0 0 50 50" style="enable-background:new 0 0 50 50;" xml:space="preserve">
<style type="text/css">
	.st0{fill:#87D6C5;}
	.st1{fill:#C3EBE2;}
	.st2{fill:#231F20;}
</style>
<g>
	<polygon class="st0" points="3.8,6.5 3.8,40.7 20.8,40.7 20.8,43.5 23.6,43.5 23.6,46.3 26.4,46.3 26.4,43.5 29.2,43.5 29.2,40.7 
		46.2,40.7 46.2,6.5 	"/>
	<rect x="29.2" y="6.5" class="st1" width="16.9" height="2.8"/>
	
		<rect x="3.8" y="3.7" transform="matrix(-1 -1.224647e-16 1.224647e-16 -1 21.76 10.1758)" class="st2" width="14.1" height="2.8"/>
	
		<rect x="6.6" y="6.5" transform="matrix(-1 -1.224647e-16 1.224647e-16 -1 27.408 15.8238)" class="st1" width="14.1" height="2.8"/>
	<rect x="1" y="6.5" transform="matrix(-1 -1.224647e-16 1.224647e-16 -1 4.816 46.8878)" class="st2" width="2.8" height="33.9"/>
	
		<rect x="3.8" y="6.5" transform="matrix(-1 -1.224647e-16 1.224647e-16 -1 10.464 46.8878)" class="st1" width="2.8" height="33.9"/>
	<rect x="17.9" y="3.7" class="st2" width="2.8" height="2.8"/>
	<rect x="20.8" y="6.5" class="st2" width="2.8" height="2.8"/>
	
		<rect x="29.2" y="3.7" transform="matrix(-1 -1.224647e-16 1.224647e-16 -1 61.296 10.1758)" class="st2" width="2.8" height="2.8"/>
	
		<rect x="26.4" y="6.5" transform="matrix(-1 -1.224647e-16 1.224647e-16 -1 55.648 15.8238)" class="st2" width="2.8" height="2.8"/>
	<rect x="17.9" y="40.7" class="st2" width="2.8" height="2.8"/>
	<rect x="3.8" y="40.7" class="st2" width="14.1" height="2.8"/>
	<rect x="32.1" y="3.7" class="st2" width="14.1" height="2.8"/>
	<rect x="46.2" y="6.5" class="st2" width="2.8" height="33.9"/>
	
		<rect x="32.1" y="40.7" transform="matrix(-1 -3.632973e-11 3.632973e-11 -1 78.24 84.1762)" class="st2" width="14.1" height="2.8"/>
	<rect x="20.8" y="43.5" class="st2" width="2.8" height="2.8"/>
	<rect x="23.6" y="46.3" class="st2" width="2.8" height="2.8"/>
	
		<rect x="29.2" y="40.7" transform="matrix(-1 -1.224647e-16 1.224647e-16 -1 61.296 84.1762)" class="st2" width="2.8" height="2.8"/>
	
		<rect x="26.4" y="43.5" transform="matrix(-1 -1.224647e-16 1.224647e-16 -1 55.648 89.8242)" class="st2" width="2.8" height="2.8"/>
	
		<rect x="37.7" y="17.8" transform="matrix(-1 -4.573998e-11 4.573998e-11 -1 78.24 38.4158)" class="st2" width="2.8" height="2.8"/>
	<rect x="37.7" y="15" transform="matrix(-1 -4.638435e-11 4.638435e-11 -1 78.24 32.7678)" class="st2" width="2.8" height="2.8"/>
	
		<rect x="37.7" y="12.1" transform="matrix(-1 -4.219703e-11 4.219703e-11 -1 78.24 27.1198)" class="st2" width="2.8" height="2.8"/>
	
		<rect x="37.7" y="9.3" transform="matrix(-1 -4.606239e-11 4.606239e-11 -1 78.24 21.4718)" class="st2" width="2.8" height="2.8"/>
	
		<rect x="37.7" y="6.5" transform="matrix(-1 -4.638435e-11 4.638435e-11 -1 78.24 15.8238)" class="st2" width="2.8" height="2.8"/>
	
		<rect x="37.7" y="3.7" transform="matrix(-1 -4.606239e-11 4.606239e-11 -1 78.24 10.1758)" class="st2" width="2.8" height="2.8"/>
	<rect x="37.7" y="0.9" transform="matrix(-1 -4.251900e-11 4.251900e-11 -1 78.24 4.5278)" class="st2" width="2.8" height="2.8"/>
	
		<rect x="34.9" y="0.9" transform="matrix(-1 -4.251900e-11 4.251900e-11 -1 72.592 4.5278)" class="st2" width="2.8" height="2.8"/>
	
		<rect x="34.9" y="15" transform="matrix(-1 -4.573998e-11 4.573998e-11 -1 72.592 32.7678)" class="st2" width="2.8" height="2.8"/>
	<rect x="32.1" y="17.8" class="st2" width="2.8" height="2.8"/>
	<rect x="32.1" y="15" class="st2" width="2.8" height="2.8"/>
	<rect x="23.6" y="9.3" class="st2" width="2.8" height="37"/>
	<rect x="26.4" y="9.3" class="st1" width="2.8" height="34.2"/>
	<rect x="32.1" y="12.1" class="st2" width="2.8" height="2.8"/>
	<rect x="32.1" y="9.3" class="st2" width="2.8" height="2.8"/>
	<rect x="32.1" y="6.5" class="st2" width="2.8" height="2.8"/>
	<rect x="32.1" y="3.7" class="st2" width="2.8" height="2.8"/>
	<rect x="32.1" y="0.9" class="st2" width="2.8" height="2.8"/>
	<rect x="35" y="3.6" class="st1" width="2.9" height="11.4"/>
</g>
</svg>
