<svg xmlns="http://www.w3.org/2000/svg" xmlns:svg="http://www.w3.org/2000/svg" id="svg2" width="95.063" height="95.175" x="0" y="0" version="1.1" viewBox="0 0 95.063 95.175" xml:space="preserve"><metadata id="metadata14"/><path id="path4" d="m 57.4,95.175 c -0.9,0 -1.7,-0.3 -2.3,-0.9 l -14.8,-14.8 c -0.6,-0.6 -1,-1.5 -1,-2.4 0,-0.9 0.4,-1.7 1,-2.4 1.3,-1.3 3.5,-1.4 4.8,-0.1 l 14.7,14.7 c 1,1 1.2,2.4 0.7,3.7 -0.5,1.3 -1.8,2.2 -3.1,2.2 z m -19.7,0 c -0.9,0 -1.7,-0.3 -2.3,-0.9 -0.7,-0.6 -1,-1.5 -1.1,-2.4 0,-0.9 0.3,-1.8 1,-2.4 l 3.2,-3.3 c 0.6,-0.6 1.5,-1 2.4,-1 0,0 0,0 0,0 0.9,0 1.7,0.4 2.4,1 1.3,1.3 1.4,3.5 0.1,4.8 l -3.3,3.2 c -0.3,0.3 -0.7,0.6 -1.1,0.7 -0.4,0.2 -0.9,0.3 -1.3,0.3 z m 31.1,-11.5 c -0.9,0 -1.7,-0.3 -2.3,-0.9 l -3.3,-3.3 c -1.3,-1.3 -1.3,-3.4 0,-4.7 1.3,-1.3 3.5,-1.4 4.8,-0.1 l 3.2,3.2 c 1,1 1.2,2.4 0.7,3.7 -0.5,1.2 -1.7,2.1 -3.1,2.1 z m -42.6,0 c -0.9,0 -1.7,-0.3 -2.3,-0.9 -0.7,-0.6 -1,-1.5 -1.1,-2.4 0,-0.9 0.3,-1.8 1,-2.4 l 14.7,-14.7 c 0.6,-0.6 1.5,-1 2.4,-1 0,0 0,0 0,0 0.9,0 1.7,0.4 2.4,1 1.3,1.3 1.4,3.5 0.1,4.8 l -14.8,14.6 c -0.3,0.3 -0.7,0.6 -1.1,0.7 -0.4,0.2 -0.8,0.3 -1.3,0.3 z m 28,-5 c -0.9,0 -1.7,-0.3 -2.4,-1 l -0.1,-0.1 c -1.3,-1.3 -1.3,-3.4 0,-4.7 l 9.6,-9.6 c 1.3,-1.3 3.4,-1.3 4.7,0 1.3,1.3 1.4,3.5 0.1,4.8 l -9.6,9.6 c -0.6,0.6 -1.4,1 -2.3,1 z m 26.1,-6.4 c -0.9,0 -1.8,-0.4 -2.4,-1 l -14.7,-14.7 c -1.3,-1.3 -1.3,-3.4 0,-4.7 0.6,-0.6 1.5,-1 2.4,-1 0.9,0 1.8,0.3 2.4,0.9 l 14.7,14.7 c 1,1 1.2,2.4 0.7,3.7 -0.5,1.2 -1.8,2.1 -3.1,2.1 z m -65.5,0 c -0.8,0 -1.7,-0.3 -2.3,-0.9 -0.7,-0.6 -1.1,-1.5 -1.1,-2.4 0,-0.9 0.3,-1.8 1,-2.5 l 3.2,-3.3 c 0.6,-0.6 1.5,-1 2.4,-1 0.9,0 1.8,0.4 2.4,1 1.3,1.3 1.4,3.5 0.1,4.8 l -3.2,3.2 c -0.3,0.3 -0.7,0.6 -1.1,0.7 -0.5,0.3 -1,0.4 -1.4,0.4 z m 37.5,-5.1 c -0.9,0 -1.7,-0.3 -2.3,-0.9 l -9.6,-9.6 c -1.3,-1.3 -1.3,-3.4 0,-4.7 0.6,-0.6 1.5,-1 2.4,-1 0,0 0,0 0,0 0.9,0 1.8,0.3 2.4,0.9 l 9.6,9.6 c 0.6,0.6 1,1.5 1,2.4 0,0.9 -0.4,1.7 -1,2.4 -0.7,0.5 -1.6,0.9 -2.5,0.9 z m -22.9,0 c -0.9,0 -1.7,-0.3 -2.3,-0.9 l -9.6,-9.6 c -0.6,-0.6 -1,-1.5 -1,-2.4 0,-0.9 0.4,-1.7 1,-2.4 1.3,-1.3 3.5,-1.4 4.8,-0.1 l 9.6,9.6 c 0.6,0.6 1,1.5 1,2.4 0,0.9 -0.4,1.7 -1,2.4 -0.7,0.6 -1.6,1 -2.5,1 z m 62.3,-6.3 c -0.9,0 -1.8,-0.4 -2.4,-1 l -3.2,-3.3 c -0.6,-0.6 -1,-1.5 -1,-2.4 0,-0.9 0.4,-1.7 1,-2.4 1.3,-1.3 3.5,-1.4 4.8,-0.1 l 3.2,3.2 c 1,1 1.2,2.4 0.7,3.7 -0.5,1.3 -1.7,2.3 -3.1,2.3 z m -88.3,0 c -0.8,0 -1.7,-0.3 -2.3,-0.9 -0.7,-0.6 -1.1,-1.5 -1.1,-2.4 0,-0.9 0.3,-1.8 1,-2.4 l 14.7,-14.7 c 0.6,-0.6 1.5,-1 2.4,-1 0,0 0,0 0,0 0.9,0 1.7,0.4 2.4,1 1.3,1.3 1.4,3.5 0.1,4.8 l -14.8,14.6 c -0.3,0.3 -0.7,0.6 -1.1,0.7 -0.4,0.2 -0.9,0.3 -1.3,0.3 z m 50.8,-5.1 c -0.9,0 -1.7,-0.3 -2.4,-1 l -0.1,-0.1 c -0.6,-0.6 -1,-1.5 -1,-2.4 0,-0.9 0.4,-1.7 1,-2.4 l 9.6,-9.6 c 1.3,-1.3 3.4,-1.3 4.7,0 0.6,0.6 1,1.5 1,2.4 0,0.9 -0.3,1.8 -0.9,2.4 l -9.6,9.6 c -0.6,0.8 -1.4,1.1 -2.3,1.1 z m -22.9,0 c -0.9,0 -1.7,-0.3 -2.4,-1 l -0.1,-0.1 c -0.6,-0.6 -1,-1.5 -1,-2.4 0,-0.9 0.4,-1.7 1,-2.4 l 9.6,-9.6 c 1.3,-1.3 3.4,-1.3 4.7,0 0.6,0.6 1,1.5 1,2.4 0,0.9 -0.3,1.8 -0.9,2.4 l -9.6,9.6 c -0.6,0.8 -1.4,1.1 -2.3,1.1 z m 45.8,0 c -0.9,0 -1.7,-0.4 -2.4,-1 l -0.1,-0.1 c -1.3,-1.3 -1.3,-3.4 0,-4.7 l 14.7,-14.7 c 1.3,-1.3 3.4,-1.3 4.7,0 1.3,1.3 1.3,3.4 0,4.7 l -14.6,14.8 c -0.6,0.6 -1.4,1 -2.3,1 0,0 0,0 0,0 z m -70.5,-11.5 0,0 c -0.9,0 -1.8,-0.3 -2.4,-1 L 1,40.075 c -1.3,-1.3 -1.3,-3.4 0,-4.7 1.3,-1.3 3.4,-1.3 4.7,0 l 3.3,3.2 c 0.6,0.6 1,1.5 1,2.4 0,0.9 -0.3,1.8 -1,2.4 -0.7,0.5 -1.5,0.9 -2.4,0.9 z m 22.8,0 c -0.9,0 -1.7,-0.3 -2.3,-1 l -14.7,-14.6 c -1.3,-1.3 -1.3,-3.4 0,-4.7 1.3,-1.3 3.4,-1.3 4.7,0 l 14.7,14.6 c 0.6,0.6 1,1.5 1,2.4 0,0.9 -0.4,1.7 -1,2.4 -0.6,0.6 -1.5,0.9 -2.4,0.9 z m 22.9,0 c -0.9,0 -1.7,-0.3 -2.3,-0.9 l -9.6,-9.6 c -0.6,-0.6 -1,-1.5 -1,-2.4 0,-0.9 0.4,-1.7 1,-2.4 1.3,-1.3 3.5,-1.4 4.8,-0.1 l 9.6,9.6 c 0.6,0.6 1,1.5 1,2.4 0,0.9 -0.4,1.7 -1,2.4 -0.7,0.7 -1.6,1 -2.5,1 z m 22.9,0 0,0 c -0.9,0 -1.8,-0.3 -2.4,-0.9 l -9.6,-9.6 c -1.3,-1.3 -1.3,-3.4 0,-4.7 0.6,-0.6 1.5,-1 2.4,-1 l 0,0 c 0.9,0 1.8,0.3 2.4,0.9 l 9.6,9.6 c 1.3,1.3 1.3,3.4 0,4.7 -0.6,0.6 -1.5,1 -2.4,1 z m -43.9,-11.4 c -0.9,0 -1.7,-0.3 -2.4,-1 l -0.1,-0.1 c -1.3,-1.3 -1.3,-3.4 0,-4.7 l 9.6,-9.6 c 0.6,-0.6 1.5,-1 2.4,-1 0,0 0,0 0,0 0.9,0 1.7,0.4 2.4,1 1.3,1.3 1.4,3.5 0.1,4.8 l -9.6,9.6 c -0.7,0.7 -1.5,1 -2.4,1 z m 22.9,0 c -0.9,0 -1.8,-0.4 -2.4,-1 l -0.1,-0.1 c -1.3,-1.3 -1.3,-3.4 0,-4.7 l 14.7,-14.7 c 1.3,-1.3 3.4,-1.3 4.7,0 1.3,1.3 1.3,3.4 0,4.7 l -14.5,14.8 c -0.7,0.6 -1.5,1 -2.4,1 z m 22.8,0 c -0.9,0 -1.7,-0.4 -2.4,-1 l 0,0 c -0.6,-0.6 -1,-1.5 -1,-2.4 0,-0.9 0.4,-1.7 1,-2.4 l 3.2,-3.2 c 1.3,-1.3 3.4,-1.3 4.7,0 1.3,1.3 1.3,3.4 0,4.7 l -3.1,3.3 c -0.6,0.6 -1.4,1 -2.4,1 0.1,0 0,0 0,0 z m -47.6,-11.4 c -0.9,0 -1.7,-0.3 -2.4,-1 l -3.2,-3.2 c -1.3,-1.3 -1.3,-3.4 0,-4.7 1.3,-1.3 3.4,-1.3 4.7,0 l 3.3,3.2 c 0.6,0.6 1,1.5 1,2.4 0,0.9 -0.4,1.8 -1,2.4 -0.6,0.5 -1.5,0.9 -2.4,0.9 z m 22.9,-0.1 c -0.9,0 -1.7,-0.3 -2.3,-0.9 L 35.3,5.775 c -1.3,-1.3 -1.3,-3.4 0,-4.7 1.3,-1.3 3.4,-1.3 4.7,0 l 14.7,14.6 c 0.6,0.6 1,1.5 1,2.4 0,0.9 -0.4,1.7 -1,2.4 -0.6,0.6 -1.5,0.9 -2.4,0.9 z m 1.9,-11.4 c -0.9,0 -1.7,-0.4 -2.4,-1 l 0,0 c -0.6,-0.6 -1,-1.5 -1,-2.4 0,-0.9 0.4,-1.7 1,-2.4 l 3.2,-3.2 c 1.3,-1.3 3.4,-1.3 4.7,0 1.3,1.3 1.3,3.4 0,4.7 l -3.2,3.3 c -0.6,0.6 -1.4,1 -2.3,1 0,0 0,0 0,0 z" style="fill:#fff"/></svg>