<svg xmlns="http://www.w3.org/2000/svg" xmlns:xlink="http://www.w3.org/1999/xlink" id="Layer_1" width="20" height="18" x="0" style="enable-background:new 0 0 20 18" y="0" version="1.1" viewBox="0 0 20 18" xml:space="preserve"><style type="text/css">.st0{fill:#c14f2d}.st1{fill:#f46936}.st2{fill:#ea3323}.st3{fill:#fff}</style><g><g><path d="M15.8,1.8c0,0.5,0,0.9,0,1.4c0.5,0,0.9,0,1.4,0c0-0.5,0-0.9,0-1.4C16.7,1.8,16.2,1.8,15.8,1.8z" class="st0"/></g><g><path d="M17.2,8.9c0.5,0,0.9,0,1.4,0c0-1.9,0-3.8,0-5.7c-0.5,0-0.9,0-1.4,0C17.2,5.1,17.2,7,17.2,8.9z" class="st0"/></g><g><path d="M15.8,10.5c0.5,0,0.9,0,1.4,0c0-0.5,0-1,0-1.5c-0.5,0-0.9,0-1.4,0C15.8,9.5,15.8,10,15.8,10.5z" class="st0"/></g><g><ellipse cx="15" cy="11.2" class="st0" rx="1.1" ry="1"/></g><g><circle cx="13.6" cy="12.6" r="1" class="st0"/></g><g><circle cx="12.2" cy="14" r="1" class="st0"/></g><g><path d="M8.5,16.2c1,0,1.9,0,2.9,0c0-0.5,0-1,0-1.5c-1,0-1.9,0-2.9,0C8.5,15.2,8.5,15.7,8.5,16.2z" class="st0"/></g><g><g><path d="M15.8,1.8c-1,0-1.9,0-2.9,0c0,0.5,0,0.9,0,1.4c-0.5,0-0.9,0-1.4,0c0,0.5,0,1,0,1.5c-1,0-1.9,0-2.9,0 c0-0.5,0-1,0-1.5c-0.5,0-0.9,0-1.4,0c0-0.5,0-0.9,0-1.4c-1.4,0-2.9,0-4.3,0c0,0.5,0,0.9,0,1.4c-0.5,0-0.9,0-1.4,0 c0,1.9,0,3.8,0,5.7c0.5,0,0.9,0,1.4,0c0,0.5,0,1,0,1.5c0.5,0,1,0,1.5,0c0,0.5,0,0.9,0,1.4c0.5,0,0.9,0,1.4,0c0,0.5,0,0.9,0,1.4 c0.5,0,0.9,0,1.4,0c0,0.5,0,0.9,0,1.4c1.4,0,2.9,0,4.3,0c0-0.5,0-0.9,0-1.4c0.5,0,0.9,0,1.4,0c0-0.5,0-0.9,0-1.4 c0.5,0,0.9,0,1.4,0c0-0.5,0-0.9,0-1.4c0.5,0,1,0,1.5,0c0-0.5,0-1,0-1.5c0.5,0,0.9,0,1.4,0c0-1.9,0-3.8,0-5.7c-0.5,0-0.9,0-1.4,0 C15.8,2.8,15.8,2.3,15.8,1.8z" class="st1"/></g><g><path d="M5.7,4.7c-0.5,0-0.9,0-1.4,0c0,0.5,0,0.9,0,1.4c-0.5,0-1,0-1.5,0c0-0.5,0-0.9,0-1.4c0.5,0,1,0,1.5,0 c0-0.5,0-1,0-1.5c0.5,0,0.9,0,1.4,0C5.7,3.7,5.7,4.2,5.7,4.7z" class="st2"/></g></g><g><path d="M4.3,4.7c0.5,0,0.9,0,1.4,0c0-0.5,0-1,0-1.5c-0.5,0-0.9,0-1.4,0C4.3,3.7,4.3,4.2,4.3,4.7z" class="st3"/></g><g><path d="M2.8,6.1c0.5,0,1,0,1.5,0c0-0.5,0-0.9,0-1.4c-0.5,0-1,0-1.5,0C2.8,5.2,2.8,5.7,2.8,6.1z" class="st3"/></g><g><rect width="4.3" height="1.4" x="2.8" y=".4" class="st3"/></g><g><rect width="4.3" height="1.4" x="12.9" y=".4" class="st3"/></g><g><rect width="1.4" height="1.4" x="1.4" y="1.8" class="st3"/></g><g><rect width="1.4" height="1.4" x="7.1" y="1.8" class="st3"/></g><g><rect width="1.4" height="1.4" x="11.5" y="1.8" class="st3"/></g><g><rect width="1.4" height="1.4" x="17.2" y="1.8" class="st3"/></g><g><rect width="1.4" height="5.7" x="0" y="3.2" class="st3"/></g><g><rect width="2.9" height="1.5" x="8.5" y="3.2" class="st3"/></g><g><rect width="1.4" height="5.7" x="18.6" y="3.2" class="st3"/></g><g><rect width="1.4" height="1.5" x="1.4" y="8.9" class="st3"/></g><g><rect width="1.4" height="1.5" x="17.2" y="8.9" class="st3"/></g><g><rect width="1.5" height="1.4" x="2.8" y="10.5" class="st3"/></g><g><rect width="1.4" height="1.4" x="15.8" y="10.5" class="st3"/></g><g><rect width="1.4" height="1.4" x="4.3" y="11.9" class="st3"/></g><g><rect width="1.5" height="1.4" x="14.3" y="11.9" class="st3"/></g><g><rect width="1.4" height="1.4" x="5.7" y="13.3" class="st3"/></g><g><rect width="1.4" height="1.4" x="12.9" y="13.3" class="st3"/></g><g><rect width="1.4" height="1.5" x="7.1" y="14.7" class="st3"/></g><g><rect width="1.4" height="1.5" x="11.5" y="14.7" class="st3"/></g><g><rect width="2.9" height="1.4" x="8.5" y="16.2" class="st3"/></g></g></svg>