<svg xmlns="http://www.w3.org/2000/svg" xmlns:xlink="http://www.w3.org/1999/xlink" id="Layer_1" width="13.4" height="21" x="0" style="enable-background:new 0 0 13.4 21" y="0" version="1.1" viewBox="0 0 13.4 21" xml:space="preserve"><style type="text/css">.st0{fill:#87d6c5}.st1{fill:#c3ebe2}</style><g><g><g><polygon points="9.5 1.9 9.5 0 3.8 0 3.8 1.9 6.7 1.9"/></g><g><polygon points="9.5 15.3 9.5 13.4 3.8 13.4 3.8 15.3 6.7 15.3"/></g><g><rect width="1.9" height="1.9" x="1.9" y="1.9"/></g><g><rect width="1.9" height="1.9" x="3.8" y="3.8"/></g><g><rect width="1.9" height="1.9" x="3.8" y="5.7"/></g><g><rect width="1.9" height="1.9" x="9.5" y="1.9"/></g><g><rect width="1.9" height="1.9" x="7.6" y="3.8"/></g><g><rect width="1.9" height="1.9" x="5.7" y="15.3"/></g><g><rect width="1.9" height="1.9" x="5.7" y="17.2"/></g><g><polygon points="6.7 21 7.6 19.1 5.7 19.1 6.7 21"/></g><g><rect width="1.9" height="1.9" x="7.6" y="5.7"/></g><g><rect width="1.9" height="1.9" x="9.5" y="7.6"/></g><g><rect width="1.9" height="1.9" x="1.9" y="7.6"/></g><g><rect width="1.9" height="1.9" y="9.5"/></g><g><rect width="1.9" height="1.9" x="1.9" y="11.5"/></g><g><rect width="1.9" height="1.9" x="11.5" y="9.5"/></g><g><rect width="1.9" height="1.9" x="9.5" y="11.5"/></g></g><rect width="5.7" height="1.9" x="3.8" y="1.9" class="st0"/><rect width="1.9" height="3.8" x="5.7" y="3.8" class="st0"/><rect width="5.7" height="1.9" x="3.8" y="7.6" class="st0"/><rect width="9.5" height="1.9" x="1.9" y="9.5" class="st0"/><rect width="5.7" height="1.9" x="3.8" y="11.5" class="st0"/><g><rect width="1.9" height="1.9" x="3.8" y="1.9" class="st1"/></g><g><rect width="1.9" height="1.9" x="5.7" y="3.8" class="st1"/></g><g><rect width="1.9" height="1.9" x="5.7" y="5.7" class="st1"/></g><g><rect width="1.9" height="1.9" x="3.8" y="7.6" class="st1"/></g><g><rect width="1.9" height="1.9" x="1.9" y="9.5" class="st1"/></g><g><rect width="1.9" height="1.9" x="3.8" y="11.5" class="st1"/></g></g></svg>