<svg xmlns="http://www.w3.org/2000/svg" xmlns:xlink="http://www.w3.org/1999/xlink" id="Layer_1" width="50" height="46" x="0" style="enable-background:new 0 0 50 46" y="0" version="1.1" viewBox="0 0 50 46" xml:space="preserve"><style type="text/css">.st0{fill:#87d6c5}.st1{fill:#c3ebe2}.st2{fill:#231f20}</style><g><polygon points="43.4 17.4 43.4 14.5 37.7 14.5 37.7 11.7 34.9 11.7 34.9 8.9 29.2 8.9 29.2 6.1 26.4 6.1 26.4 3.2 23.6 3.2 23.6 6.1 20.8 6.1 20.8 8.9 15.1 8.9 15.1 11.7 12.3 11.7 12.3 14.5 6.6 14.5 6.6 17.4 3.8 17.4 3.8 17.4 3.8 20.2 3.8 20.2 6.6 20.2 6.6 23 12.3 23 12.3 25.8 15.1 25.8 15.1 28.6 20.8 28.6 20.8 31.5 23.6 31.5 23.6 34.3 26.4 34.3 26.4 31.5 29.2 31.5 29.2 28.6 34.9 28.6 34.9 25.8 37.7 25.8 37.7 23 43.4 23 43.4 20.2 46.2 20.2 46.2 20.2 46.2 17.4 46.2 17.4" class="st0"/><g><rect width="2.8" height="2.8" x="23.6" y="3.2" class="st1"/><rect width="2.8" height="2.8" x="20.8" y="6.1" class="st1"/><polygon points="15.1 11.7 12.3 11.7 12.3 14.5 6.6 14.5 6.6 17.4 3.8 17.4 3.8 20.2 6.6 20.2 6.6 23 12.3 23 12.3 20.2 6.6 20.2 6.6 17.4 12.3 17.4 12.3 14.5 15.1 14.5 15.1 11.7 20.8 11.7 20.8 8.9 15.1 8.9" class="st1"/><rect width="2.8" height="2.8" x="12.3" y="23" class="st1"/><rect width="2.8" height="2.8" x="23.6" y="31.5" class="st1"/><polygon points="20.8 25.8 15.1 25.8 15.1 28.6 20.8 28.6 20.8 31.5 23.6 31.5 23.6 28.6 20.8 28.6" class="st1"/></g><rect width="2.8" height="2.8" x="1" y="17.4" class="st2" transform="matrix(-1 -1.224647e-16 1.224647e-16 -1 4.8165 37.528)"/><rect width="2.8" height="2.8" x="23.6" y="17.4" class="st2" transform="matrix(-1 -1.224647e-16 1.224647e-16 -1 49.9995 37.528)"/><rect width="5.6" height="2.8" x="17.9" y="20.2" class="st2" transform="matrix(-1 -1.224647e-16 1.224647e-16 -1 41.5275 43.176)"/><rect width="2.8" height="2.8" x="15.1" y="23" class="st2" transform="matrix(-1 -1.224647e-16 1.224647e-16 -1 33.0555 48.824)"/><rect width="2.8" height="2.8" x="3.8" y="14.5" class="st2" transform="matrix(-1 -1.224647e-16 1.224647e-16 -1 10.4645 31.88)"/><rect width="2.8" height="2.8" x="6.6" y="11.7" class="st2" transform="matrix(-1 -1.224647e-16 1.224647e-16 -1 16.1125 26.232)"/><rect width="2.8" height="2.8" x="9.5" y="11.7" class="st2" transform="matrix(-1 -1.224647e-16 1.224647e-16 -1 21.7605 26.232)"/><rect width="2.8" height="2.8" x="12.3" y="8.9" class="st2" transform="matrix(-1 -1.224647e-16 1.224647e-16 -1 27.4085 20.584)"/><rect width="2.8" height="2.8" x="15.1" y="6.1" class="st2" transform="matrix(-1 -1.224647e-16 1.224647e-16 -1 33.0565 14.936)"/><rect width="2.8" height="2.8" x="17.9" y="6.1" class="st2" transform="matrix(-1 -1.224647e-16 1.224647e-16 -1 38.7045 14.936)"/><rect width="2.8" height="2.8" x="20.8" y="3.2" class="st2" transform="matrix(-1 -1.224647e-16 1.224647e-16 -1 44.3525 9.288)"/><rect width="2.8" height="2.8" x="23.6" y=".4" class="st2" transform="matrix(-1 -1.224647e-16 1.224647e-16 -1 50.0005 3.64)"/><rect width="2.8" height="2.8" x="46.2" y="17.4" class="st2"/><rect width="2.8" height="2.8" x="43.4" y="14.5" class="st2"/><rect width="2.8" height="2.8" x="40.5" y="11.7" class="st2"/><rect width="2.8" height="2.8" x="37.7" y="11.7" class="st2"/><rect width="2.8" height="2.8" x="34.9" y="8.9" class="st2"/><rect width="2.8" height="2.8" x="32.1" y="6.1" class="st2"/><rect width="2.8" height="2.8" x="29.2" y="6.1" class="st2"/><rect width="2.8" height="2.8" x="26.4" y="3.2" class="st2"/><rect width="2.8" height="2.8" x="43.4" y="20.2" class="st2"/><rect width="2.8" height="2.8" x="40.5" y="23" class="st2"/><rect width="2.8" height="2.8" x="37.7" y="23" class="st2"/><rect width="2.8" height="2.8" x="34.9" y="25.8" class="st2"/><rect width="2.8" height="2.8" x="32.1" y="28.6" class="st2"/><rect width="2.8" height="2.8" x="29.2" y="28.6" class="st2"/><rect width="2.8" height="2.8" x="26.4" y="31.5" class="st2"/><rect width="2.8" height="8.5" x="23.6" y="34.3" class="st2"/><rect width="2.8" height="2.8" x="3.8" y="20.2" class="st2" transform="matrix(-1 -4.251900e-11 4.251900e-11 -1 10.4645 43.176)"/><rect width="2.8" height="2.8" x="6.6" y="23" class="st2" transform="matrix(-1 -4.638435e-11 4.638435e-11 -1 16.1125 48.824)"/><rect width="2.8" height="16.9" x="9.5" y="23" class="st2" transform="matrix(-1 -4.509605e-11 4.509605e-11 -1 21.7605 62.944)"/><rect width="2.8" height="2.8" x="12.3" y="25.8" class="st2" transform="matrix(-1 -4.251900e-11 4.251900e-11 -1 27.4085 54.472)"/><rect width="2.8" height="2.8" x="12.3" y="39.9" class="st2" transform="matrix(-1 -4.251900e-11 4.251900e-11 -1 27.4085 82.712)"/><rect width="2.8" height="2.8" x="9.5" y="42.8" class="st2" transform="matrix(-1 -4.251900e-11 4.251900e-11 -1 21.7605 88.36)"/><rect width="2.8" height="2.8" x="6.6" y="39.9" class="st2" transform="matrix(-1 -4.251900e-11 4.251900e-11 -1 16.1125 82.712)"/><rect width="2.8" height="16.9" x="37.7" y="23" class="st2"/><rect width="2.8" height="2.8" x="34.9" y="39.9" class="st2"/><rect width="19.8" height="2.8" x="15.1" y="42.8" class="st2" transform="matrix(-1 -6.073486e-12 6.073486e-12 -1 50.0005 88.36)"/><rect width="2.8" height="2.8" x="15.1" y="28.6" class="st2" transform="matrix(-1 -4.509605e-11 4.509605e-11 -1 33.0565 60.12)"/><rect width="2.8" height="2.8" x="17.9" y="28.6" class="st2" transform="matrix(-1 -4.638435e-11 4.638435e-11 -1 38.7045 60.12)"/><rect width="2.8" height="2.8" x="20.8" y="31.5" class="st2" transform="matrix(-1 -4.251900e-11 4.251900e-11 -1 44.3525 65.768)"/><rect width="2.8" height="2.8" x="9.5" y="39.9" class="st1"/><polygon points="34.9 28.6 34.9 31.5 29.2 31.5 29.2 34.3 26.4 34.3 26.4 42.8 34.9 42.8 34.9 40 37.7 40 37.7 28.6" class="st0"/><polygon points="15.1 28.6 15.1 31.5 20.8 31.5 20.8 34.3 23.6 34.3 23.6 42.8 15.1 42.8 15.1 40 12.3 40 12.3 28.6" class="st1"/></g></svg>