<svg xmlns="http://www.w3.org/2000/svg" xmlns:xlink="http://www.w3.org/1999/xlink" id="Layer_1" width="16" height="16" x="0" style="enable-background:new 0 0 16 16" y="0" version="1.1" viewBox="0 0 16 16" xml:space="preserve"><style type="text/css">.st0{opacity:.7;fill:#89d7c6;stroke:#89d7c6;stroke-width:.5;stroke-miterlimit:10;enable-background:new}</style><g><path d="M8.2,13.1c-0.6-0.3-1.1-0.6-1.5-1s-0.8-0.9-1-1.5S5.2,9.4,5.2,8.7s0.1-1.3,0.4-1.9s0.6-1.1,1-1.5 s0.9-0.8,1.5-1C8.7,4,9.4,3.9,10,3.9c0.2,0,0.3,0,0.5,0s0.3,0,0.5,0.1c0.1,0,0.3,0,0.4,0.1s0.3,0.1,0.5,0.2c0,0,0.1,0,0.1,0.1 s0.1,0.1,0.1,0.1v0.1v0.1c0,0,0,0.1-0.1,0.1s-0.1,0.1-0.1,0.1h-0.1h-0.1c-0.1,0-0.3-0.1-0.4-0.1S11,4.7,10.8,4.6 c-0.1,0-0.3,0-0.4-0.1c-0.1,0-0.3,0-0.4,0c-0.6,0-1.1,0.1-1.6,0.3C7.9,5,7.5,5.4,7.1,5.8C6.7,6.2,6.4,6.6,6.2,7.1s-0.3,1-0.3,1.6 S6,9.8,6.2,10.3c0.2,0.5,0.5,0.9,0.9,1.3c0.4,0.4,0.8,0.7,1.3,0.9s1,0.3,1.6,0.3s1.1-0.1,1.6-0.3s0.9-0.5,1.3-0.9 c0.4-0.4,0.7-0.8,0.9-1.3s0.3-1,0.3-1.6c0,0,0-0.1,0-0.2c0-0.1,0-0.1,0-0.2c0,0,0-0.1,0-0.2c0-0.1,0-0.1,0-0.2V7.8 c0,0,0-0.1,0.1-0.1l0.1-0.1h0.1h0.1c0,0,0.1,0,0.1,0.1l0.1,0.1v0.1c0,0.1,0,0.1,0,0.2c0,0.1,0,0.1,0,0.2c0,0.1,0,0.1,0,0.2 c0,0.1,0,0.1,0,0.2c0,0.7-0.1,1.3-0.4,1.9c-0.3,0.6-0.6,1.1-1,1.5s-0.9,0.8-1.5,1c-0.6,0.3-1.2,0.4-1.9,0.4 C9.4,13.5,8.7,13.4,8.2,13.1z M7.7,7.9L7.7,7.9L7.6,7.7V7.6l0.1-0.2c0,0,0.1,0,0.1-0.1h0.1H8c0,0,0.1,0,0.1,0.1l1.8,2.1l5.6-6.9 l0.1-0.1h0.1h0.1c0,0,0.1,0,0.1,0.1L16,2.7v0.1v0.1c0,0,0,0.1-0.1,0.1L10,10.6L7.7,7.9z" class="st0"/></g></svg>