<?xml version="1.0" encoding="utf-8"?>
<!-- Generator: Adobe Illustrator 22.0.0, SVG Export Plug-In . SVG Version: 6.00 Build 0)  -->
<svg version="1.1" id="Layer_1" xmlns="http://www.w3.org/2000/svg" xmlns:xlink="http://www.w3.org/1999/xlink" x="0px" y="0px"
	 width="50px" height="50px" viewBox="0 0 50 50" style="enable-background:new 0 0 50 50;" xml:space="preserve">
<style type="text/css">
	.st0{fill:#87D6C5;}
	.st1{fill:#231F20;}
	.st2{fill:#C3EBE2;}
</style>
<g>
	<polygon class="st0" points="46.2,43.4 46.2,40.5 43.4,40.5 43.4,37.7 40.5,37.7 40.5,34.9 34.9,34.9 34.9,29.2 34.9,29.2 
		15.1,29.2 15.1,29.2 15.1,34.9 9.5,34.9 9.5,37.7 6.6,37.7 6.6,40.5 3.8,40.5 3.8,43.4 1,43.4 1,46.2 9.5,46.2 11.5,46.2 
		17.9,46.2 17.9,46.2 32.1,46.2 32.1,46.2 38.5,46.2 40.5,46.2 49,46.2 49,43.4 	"/>
	<polygon class="st0" points="34.9,12.3 34.9,6.6 32.1,6.6 32.1,3.8 17.9,3.8 17.9,6.6 15.1,6.6 15.1,12.3 12.3,12.3 12.3,29.2 
		37.7,29.2 37.7,12.3 	"/>
	<g>
		
			<rect x="20.8" y="46.2" transform="matrix(-1 -1.224647e-16 1.224647e-16 -1 44.3531 95.1826)" class="st1" width="2.8" height="2.8"/>
		
			<rect x="23.6" y="46.2" transform="matrix(-1 -1.224647e-16 1.224647e-16 -1 50.0011 95.1826)" class="st1" width="2.8" height="2.8"/>
		
			<rect x="17.9" y="46.2" transform="matrix(-1 -1.224647e-16 1.224647e-16 -1 38.7051 95.1826)" class="st1" width="2.8" height="2.8"/>
		
			<rect x="15.1" y="46.2" transform="matrix(-1 -1.224647e-16 1.224647e-16 -1 33.0571 95.1826)" class="st1" width="2.8" height="2.8"/>
		
			<rect x="12.3" y="46.2" transform="matrix(-1 -1.224647e-16 1.224647e-16 -1 27.4091 95.1826)" class="st1" width="2.8" height="2.8"/>
		
			<rect x="9.5" y="46.2" transform="matrix(-1 -1.224647e-16 1.224647e-16 -1 21.7611 95.1826)" class="st1" width="2.8" height="2.8"/>
		
			<rect x="6.6" y="46.2" transform="matrix(-1 -1.224647e-16 1.224647e-16 -1 16.1131 95.1826)" class="st1" width="2.8" height="2.8"/>
		
			<rect x="3.8" y="46.2" transform="matrix(-1 -1.224647e-16 1.224647e-16 -1 10.4651 95.1826)" class="st1" width="2.8" height="2.8"/>
		
			<rect x="1" y="46.2" transform="matrix(-1 -1.224647e-16 1.224647e-16 -1 4.8171 95.1826)" class="st1" width="2.8" height="2.8"/>
		
			<rect x="1" y="43.4" transform="matrix(-1 -1.224647e-16 1.224647e-16 -1 4.8171 89.5346)" class="st1" width="2.8" height="2.8"/>
		
			<rect x="1" y="40.5" transform="matrix(-1 -1.224647e-16 1.224647e-16 -1 4.8171 83.8866)" class="st1" width="2.8" height="2.8"/>
		
			<rect x="3.8" y="37.7" transform="matrix(-1 -1.224647e-16 1.224647e-16 -1 10.4651 78.2386)" class="st1" width="2.8" height="2.8"/>
		
			<rect x="6.6" y="34.9" transform="matrix(-1 -1.224647e-16 1.224647e-16 -1 16.1131 72.5906)" class="st1" width="2.8" height="2.8"/>
		
			<rect x="20.8" y="26.4" transform="matrix(-1 -1.224647e-16 1.224647e-16 -1 44.3531 55.6475)" class="st1" width="2.8" height="2.8"/>
		
			<rect x="17.9" y="29.2" transform="matrix(-1 -1.224647e-16 1.224647e-16 -1 38.7051 61.2955)" class="st1" width="2.8" height="2.8"/>
		
			<rect x="17.9" y="23.6" transform="matrix(-1 -1.224647e-16 1.224647e-16 -1 38.7051 49.9995)" class="st1" width="2.8" height="2.8"/>
		
			<rect x="9.5" y="20.8" transform="matrix(-1 -1.224647e-16 1.224647e-16 -1 21.7611 44.3525)" class="st1" width="2.8" height="2.8"/>
		
			<rect x="9.5" y="17.9" transform="matrix(-1 -1.224647e-16 1.224647e-16 -1 21.7611 38.7054)" class="st1" width="2.8" height="2.8"/>
		
			<rect x="9.5" y="15.1" transform="matrix(-1 -1.224647e-16 1.224647e-16 -1 21.7611 33.0574)" class="st1" width="2.8" height="2.8"/>
		
			<rect x="9.5" y="12.3" transform="matrix(-1 -1.224647e-16 1.224647e-16 -1 21.7611 27.4085)" class="st1" width="2.8" height="2.8"/>
		
			<rect x="37.7" y="12.3" transform="matrix(-1 -1.224647e-16 1.224647e-16 -1 78.2402 27.4085)" class="st1" width="2.8" height="2.8"/>
		
			<rect x="37.7" y="15.1" transform="matrix(-1 -1.224647e-16 1.224647e-16 -1 78.2402 33.0565)" class="st1" width="2.8" height="2.8"/>
		
			<rect x="37.7" y="17.9" transform="matrix(-1 -1.224647e-16 1.224647e-16 -1 78.2402 38.704)" class="st1" width="2.8" height="2.8"/>
		
			<rect x="37.7" y="20.8" transform="matrix(-1 -1.224647e-16 1.224647e-16 -1 78.2402 44.3525)" class="st1" width="2.8" height="2.8"/>
		
			<rect x="12.3" y="9.5" transform="matrix(-1 -1.224647e-16 1.224647e-16 -1 27.4091 21.7624)" class="st1" width="2.8" height="2.8"/>
		
			<rect x="34.9" y="9.5" transform="matrix(-1 -1.224647e-16 1.224647e-16 -1 72.5922 21.7624)" class="st1" width="2.8" height="2.8"/>
		
			<rect x="12.3" y="6.6" transform="matrix(-1 -1.224647e-16 1.224647e-16 -1 27.4091 16.1115)" class="st1" width="2.8" height="2.8"/>
		
			<rect x="34.9" y="6.6" transform="matrix(-1 -1.224647e-16 1.224647e-16 -1 72.5922 16.1115)" class="st1" width="2.8" height="2.8"/>
		
			<rect x="15.1" y="3.8" transform="matrix(-1 -1.224647e-16 1.224647e-16 -1 33.0571 10.4607)" class="st1" width="2.8" height="2.8"/>
		
			<rect x="32.1" y="3.8" transform="matrix(-1 -1.224647e-16 1.224647e-16 -1 66.9442 10.4607)" class="st1" width="2.8" height="2.8"/>
		
			<rect x="17.9" y="1" transform="matrix(-1 -1.224647e-16 1.224647e-16 -1 38.7051 4.8174)" class="st1" width="2.8" height="2.8"/>
		
			<rect x="29.2" y="1" transform="matrix(-1 -1.224647e-16 1.224647e-16 -1 61.2962 4.8174)" class="st1" width="2.8" height="2.8"/>
		
			<rect x="20.8" y="1" transform="matrix(-1 -1.224647e-16 1.224647e-16 -1 44.3531 4.8174)" class="st1" width="2.8" height="2.8"/>
		
			<rect x="23.6" y="1" transform="matrix(-1 -1.224647e-16 1.224647e-16 -1 50.0011 4.8174)" class="st1" width="2.8" height="2.8"/>
		
			<rect x="26.4" y="1" transform="matrix(-1 -1.224647e-16 1.224647e-16 -1 55.6482 4.8174)" class="st1" width="2.8" height="2.8"/>
		
			<rect x="15.1" y="20.8" transform="matrix(-1 -1.224647e-16 1.224647e-16 -1 33.0571 44.3525)" class="st1" width="2.8" height="2.8"/>
		
			<rect x="15.1" y="17.9" transform="matrix(-1 -1.224647e-16 1.224647e-16 -1 33.0571 38.7054)" class="st1" width="2.8" height="2.8"/>
		
			<rect x="15.1" y="15.1" transform="matrix(-1 -1.224647e-16 1.224647e-16 -1 33.0571 33.0574)" class="st1" width="2.8" height="2.8"/>
		
			<rect x="17.9" y="12.3" transform="matrix(-1 -1.224647e-16 1.224647e-16 -1 38.7051 27.4085)" class="st1" width="2.8" height="2.8"/>
		
			<rect x="20.8" y="9.5" transform="matrix(-1 -1.224647e-16 1.224647e-16 -1 44.3531 21.7614)" class="st1" width="2.8" height="2.8"/>
		
			<rect x="20.8" y="12.3" transform="matrix(-1 -1.224647e-16 1.224647e-16 -1 44.3531 27.4085)" class="st2" width="2.8" height="2.8"/>
		
			<rect x="17.9" y="3.8" transform="matrix(-1 -1.224647e-16 1.224647e-16 -1 50.0007 10.4607)" class="st2" width="14.1" height="2.8"/>
		
			<rect x="15.1" y="6.6" transform="matrix(-1 -1.224647e-16 1.224647e-16 -1 33.0571 18.9365)" class="st2" width="2.8" height="5.6"/>
		
			<rect x="12.3" y="12.3" transform="matrix(-1 -1.224647e-16 1.224647e-16 -1 27.4091 35.8807)" class="st2" width="2.8" height="11.3"/>
		
			<rect x="17.9" y="15.1" transform="matrix(-1 -1.224647e-16 1.224647e-16 -1 38.7051 38.7044)" class="st2" width="2.8" height="8.5"/>
		
			<rect x="20.8" y="23.6" transform="matrix(-1 -1.224647e-16 1.224647e-16 -1 44.3531 49.9995)" class="st2" width="2.8" height="2.8"/>
		
			<rect x="23.6" y="9.5" transform="matrix(-1 -1.224647e-16 1.224647e-16 -1 50.0011 21.7614)" class="st1" width="2.8" height="2.8"/>
		
			<rect x="26.4" y="9.5" transform="matrix(-1 -1.224647e-16 1.224647e-16 -1 55.6482 21.7614)" class="st1" width="2.8" height="2.8"/>
		
			<rect x="29.2" y="12.3" transform="matrix(-1 -1.224647e-16 1.224647e-16 -1 61.2967 27.4085)" class="st1" width="2.8" height="2.8"/>
		
			<rect x="32.1" y="15.1" transform="matrix(-1 -1.224647e-16 1.224647e-16 -1 66.9447 33.0574)" class="st1" width="2.8" height="2.8"/>
		
			<rect x="32.1" y="17.9" transform="matrix(-1 -1.224647e-16 1.224647e-16 -1 66.9447 38.7054)" class="st1" width="2.8" height="2.8"/>
		
			<rect x="32.1" y="20.8" transform="matrix(-1 -1.224647e-16 1.224647e-16 -1 66.9442 44.3525)" class="st1" width="2.8" height="2.8"/>
		
			<rect x="29.2" y="23.6" transform="matrix(-1 -1.224647e-16 1.224647e-16 -1 61.2967 49.9995)" class="st1" width="2.8" height="2.8"/>
		
			<rect x="26.4" y="26.4" transform="matrix(-1 -1.224647e-16 1.224647e-16 -1 55.6482 55.6475)" class="st1" width="2.8" height="2.8"/>
		
			<rect x="29.2" y="29.2" transform="matrix(-1 -1.224647e-16 1.224647e-16 -1 61.2967 61.2955)" class="st1" width="2.8" height="2.8"/>
		
			<rect x="12.3" y="29.2" transform="matrix(-1 -1.224647e-16 1.224647e-16 -1 30.2336 61.2955)" class="st1" width="5.6" height="2.8"/>
		
			<rect x="9.5" y="26.4" transform="matrix(-1 -1.224647e-16 1.224647e-16 -1 24.5847 55.6475)" class="st1" width="5.6" height="2.8"/>
		
			<rect x="9.5" y="23.6" transform="matrix(-1 -1.224647e-16 1.224647e-16 -1 24.5851 49.9995)" class="st1" width="5.6" height="2.8"/>
		
			<rect x="9.5" y="32.1" transform="matrix(-1 -1.224647e-16 1.224647e-16 -1 24.5851 66.9426)" class="st1" width="5.6" height="2.8"/>
		<rect x="26.4" y="46.2" class="st1" width="2.8" height="2.8"/>
		<rect x="29.2" y="46.2" class="st1" width="2.8" height="2.8"/>
		<rect x="32.1" y="46.2" class="st1" width="2.8" height="2.8"/>
		<rect x="34.9" y="46.2" class="st1" width="2.8" height="2.8"/>
		<rect x="37.7" y="46.2" class="st1" width="2.8" height="2.8"/>
		<rect x="40.5" y="46.2" class="st1" width="2.8" height="2.8"/>
		<rect x="43.4" y="46.2" class="st1" width="2.8" height="2.8"/>
		<rect x="46.2" y="46.2" class="st1" width="2.8" height="2.8"/>
		<rect x="46.2" y="43.4" class="st1" width="2.8" height="2.8"/>
		<rect x="46.2" y="40.5" class="st1" width="2.8" height="2.8"/>
		<rect x="43.4" y="37.7" class="st1" width="2.8" height="2.8"/>
		<rect x="40.5" y="34.9" class="st1" width="2.8" height="2.8"/>
		<rect x="32.1" y="29.2" class="st1" width="5.6" height="2.8"/>
		<rect x="34.9" y="26.4" class="st1" width="5.6" height="2.8"/>
		<rect x="34.9" y="23.6" class="st1" width="5.6" height="2.8"/>
		<rect x="34.9" y="32.1" class="st1" width="5.6" height="2.8"/>
	</g>
	<rect x="20.8" y="29.2" class="st2" width="2.8" height="2.8"/>
	<rect x="6.6" y="37.7" class="st2" width="2.8" height="2.8"/>
	<rect x="3.8" y="40.5" class="st2" width="2.8" height="2.8"/>
	<rect x="3.8" y="43.4" class="st2" width="42.4" height="2.8"/>
	<rect x="15.1" y="32.1" class="st2" width="5.6" height="2.8"/>
	<rect x="9.5" y="34.9" class="st2" width="5.6" height="2.8"/>
</g>
</svg>
