<svg xmlns="http://www.w3.org/2000/svg" xmlns:xlink="http://www.w3.org/1999/xlink" id="Layer_1" width="16" height="16" x="0" style="enable-background:new 0 0 16 16" y="0" version="1.1" viewBox="0 0 16 16" xml:space="preserve"><style type="text/css">.st0{fill:#231f20}.st1{fill:#87d6c5}</style><g><rect width="1.3" height="1.3" x="10" y="4.7" class="st0"/><rect width="1.3" height="1.3" x="11.3" y="4.7" class="st0"/><rect width="1.3" height="1.3" x="12.6" y="4.7" class="st0"/><rect width="1.3" height="1.3" x="13.9" y="6" class="st0"/><rect width="1.3" height="1.3" x="13.9" y="7.3" class="st0"/><rect width="1.3" height="1.3" x="13.9" y="8.7" class="st0"/><rect width="1.3" height="1.3" x="12.6" y="10" class="st0"/><rect width="1.3" height="1.3" x="11.3" y="10" class="st0"/><rect width="1.3" height="1.3" x="10" y="10" class="st0"/><rect width="1.3" height="1.3" x="4.7" y="10" class="st0"/><rect width="1.3" height="1.3" x="3.4" y="10" class="st0"/><rect width="1.3" height="1.3" x="2.1" y="10" class="st0"/><rect width="1.3" height="1.3" x=".8" y="8.7" class="st0"/><rect width="1.3" height="1.3" x=".8" y="7.3" class="st0"/><rect width="1.3" height="1.3" x=".8" y="6" class="st0"/><rect width="1.3" height="1.3" x="2.1" y="4.7" class="st0"/><rect width="1.3" height="1.3" x="3.4" y="4.7" class="st0"/><rect width="1.3" height="1.3" x="4.7" y="4.7" class="st0"/><rect width="1.3" height="1.3" x="6" y="4.7" class="st0"/><rect width="1.3" height="1.3" x="7.3" y="4.7" class="st0"/><rect width="1.3" height="1.3" x="8.7" y="4.7" class="st0"/><rect width="1.3" height="1.3" x="6" y="6" class="st1"/><rect width="1.3" height="1.3" x="7.3" y="6" class="st1"/><rect width="1.3" height="1.3" x="8.7" y="6" class="st1"/><rect width="1.3" height="1.3" x="10" y="6" class="st1"/><rect width="1.3" height="1.3" x="11.3" y="6" class="st1"/><rect width="1.3" height="1.3" x="12.6" y="6" class="st1"/><rect width="1.3" height="1.3" x="4.7" y="6" class="st1"/><rect width="1.3" height="1.3" x="3.4" y="6" class="st1"/><rect width="1.3" height="1.3" x="2.1" y="6" class="st1"/><rect width="1.3" height="1.3" x="2.1" y="7.3" class="st1"/><rect width="1.3" height="1.3" x="2.1" y="8.7" class="st1"/><rect width="1.3" height="1.3" x="6" y="10" class="st0"/><rect width="1.3" height="1.3" x="7.3" y="10" class="st0"/><rect width="1.3" height="1.3" x="8.7" y="10" class="st0"/></g></svg>