<?xml version="1.0" encoding="utf-8"?>
<!-- Generator: Adobe Illustrator 22.0.0, SVG Export Plug-In . SVG Version: 6.00 Build 0)  -->
<svg version="1.1" id="Layer_1" xmlns="http://www.w3.org/2000/svg" xmlns:xlink="http://www.w3.org/1999/xlink" x="0px" y="0px"
	 width="50px" height="30px" viewBox="0 0 50 30" style="enable-background:new 0 0 50 30;" xml:space="preserve">
<style type="text/css">
	.st0{fill:#87D6C5;}
	.st1{fill:#231F20;}
	.st2{fill:#C3EBE2;}
</style>
<g>
	<polygon class="st0" points="46.2,15 43.4,15 43.4,12.2 40.6,12.2 40.6,9.4 37.7,9.4 37.7,6.5 34.9,6.5 34.9,3.7 15.1,3.7 
		15.1,6.5 12.3,6.5 12.3,9.4 9.4,9.4 9.4,12.2 6.6,12.2 6.6,15 3.8,15 3.8,23.5 12.3,23.5 12.3,26.3 37.7,26.3 37.7,23.5 46.2,23.5 
			"/>
	
		<rect x="23.6" y="12.2" transform="matrix(-1 -1.224647e-16 1.224647e-16 -1 50.0219 27.1765)" class="st1" width="2.8" height="2.8"/>
	
		<rect x="23.6" y="20.7" transform="matrix(-1 -1.224647e-16 1.224647e-16 -1 50.0219 44.1416)" class="st1" width="2.8" height="2.8"/>
	
		<rect x="20.8" y="17.8" transform="matrix(-1 -1.224647e-16 1.224647e-16 -1 44.331 38.4945)" class="st1" width="2.8" height="2.8"/>
	
		<rect x="17.9" y="15" transform="matrix(-1 -1.224647e-16 1.224647e-16 -1 38.6621 32.8577)" class="st1" width="2.8" height="2.8"/>
	
		<rect x="15.1" y="12.2" transform="matrix(-1 -1.224647e-16 1.224647e-16 -1 32.9931 27.2106)" class="st1" width="2.8" height="2.8"/>
	
		<rect x="23.6" y="26.3" transform="matrix(-1 -1.224647e-16 1.224647e-16 -1 50.0219 55.3672)" class="st1" width="2.8" height="2.8"/>
	
		<rect x="26.4" y="23.5" transform="matrix(-1 -1.224647e-16 1.224647e-16 -1 55.669 49.7886)" class="st1" width="2.8" height="2.8"/>
	
		<rect x="23.6" y="23.5" transform="matrix(-1 -1.224647e-16 1.224647e-16 -1 50.0001 49.7886)" class="st2" width="2.8" height="2.8"/>
	
		<rect x="15.1" y="3.7" transform="matrix(-1 -1.224647e-16 1.224647e-16 -1 38.6621 10.2358)" class="st2" width="8.5" height="2.8"/>
	
		<rect x="26.4" y="3.7" transform="matrix(-1 -1.224647e-16 1.224647e-16 -1 55.669 18.7045)" class="st2" width="2.8" height="11.3"/>
	
		<rect x="20.8" y="23.4" transform="matrix(-1 -1.224647e-16 1.224647e-16 -1 44.331 49.7201)" class="st1" width="2.8" height="2.8"/>
	<rect x="1" y="23.5" transform="matrix(-1 -1.224647e-16 1.224647e-16 -1 4.755 49.7886)" class="st1" width="2.8" height="2.8"/>
	<rect x="1" y="20.7" transform="matrix(-1 -1.224647e-16 1.224647e-16 -1 4.755 44.1416)" class="st1" width="2.8" height="2.8"/>
	<rect x="1" y="17.8" transform="matrix(-1 -1.224647e-16 1.224647e-16 -1 4.755 38.4945)" class="st1" width="2.8" height="2.8"/>
	<rect x="1" y="15" transform="matrix(-1 -1.224647e-16 1.224647e-16 -1 4.755 32.824)" class="st1" width="2.8" height="2.8"/>
	
		<rect x="3.8" y="12.2" transform="matrix(-1 -1.224647e-16 1.224647e-16 -1 10.403 27.1765)" class="st1" width="2.8" height="2.8"/>
	
		<rect x="6.6" y="9.4" transform="matrix(-1 -1.224647e-16 1.224647e-16 -1 16.051 21.5299)" class="st1" width="2.8" height="2.8"/>
	
		<rect x="9.4" y="6.5" transform="matrix(-1 -1.224647e-16 1.224647e-16 -1 21.699 15.8828)" class="st1" width="2.8" height="2.8"/>
	
		<rect x="12.3" y="3.7" transform="matrix(-1 -1.224647e-16 1.224647e-16 -1 27.3461 10.2358)" class="st1" width="2.8" height="2.8"/>
	
		<rect x="15.1" y="0.9" transform="matrix(-1 -1.224647e-16 1.224647e-16 -1 32.9931 4.6328)" class="st1" width="2.8" height="2.8"/>
	
		<rect x="17.9" y="0.9" transform="matrix(-1 -1.224647e-16 1.224647e-16 -1 38.684 4.6328)" class="st1" width="2.8" height="2.8"/>
	
		<rect x="20.8" y="0.9" transform="matrix(-1 -1.224647e-16 1.224647e-16 -1 44.331 4.6328)" class="st1" width="2.8" height="2.8"/>
	
		<rect x="23.6" y="0.9" transform="matrix(-1 -1.224647e-16 1.224647e-16 -1 50.0219 4.6328)" class="st1" width="2.8" height="2.8"/>
	
		<rect x="3.8" y="23.5" transform="matrix(-1 -1.224647e-16 1.224647e-16 -1 10.403 49.7886)" class="st1" width="2.8" height="2.8"/>
	
		<rect x="6.6" y="23.5" transform="matrix(-1 -1.224647e-16 1.224647e-16 -1 16.051 49.7886)" class="st1" width="2.8" height="2.8"/>
	
		<rect x="9.4" y="23.5" transform="matrix(-1 -1.224647e-16 1.224647e-16 -1 21.699 49.7886)" class="st1" width="2.8" height="2.8"/>
	<g>
		<rect x="46.2" y="23.5" class="st1" width="2.8" height="2.8"/>
		<rect x="46.2" y="20.7" class="st1" width="2.8" height="2.8"/>
		<rect x="46.2" y="17.8" class="st1" width="2.8" height="2.8"/>
		<rect x="46.2" y="15" class="st1" width="2.8" height="2.8"/>
		<rect x="43.4" y="12.2" class="st1" width="2.8" height="2.8"/>
		<rect x="40.6" y="9.4" class="st1" width="2.8" height="2.8"/>
		<rect x="37.7" y="6.5" class="st1" width="2.8" height="2.8"/>
		<rect x="34.9" y="3.7" class="st1" width="2.8" height="2.8"/>
		<rect x="32.1" y="0.9" class="st1" width="2.8" height="2.8"/>
		<rect x="29.2" y="0.9" class="st1" width="2.8" height="2.8"/>
		<rect x="26.4" y="0.9" class="st1" width="2.8" height="2.8"/>
		<rect x="43.4" y="23.5" class="st1" width="2.8" height="2.8"/>
		<rect x="40.6" y="23.5" class="st1" width="2.8" height="2.8"/>
		<rect x="37.7" y="23.5" class="st1" width="2.8" height="2.8"/>
	</g>
	
		<rect x="23.6" y="9.4" transform="matrix(-1 -1.224647e-16 1.224647e-16 -1 50.0219 21.5285)" class="st1" width="2.8" height="2.8"/>
	
		<rect x="23.6" y="6.5" transform="matrix(-1 -1.224647e-16 1.224647e-16 -1 50.0219 15.8805)" class="st1" width="2.8" height="2.8"/>
	
		<rect x="23.6" y="3.7" transform="matrix(-1 -1.224647e-16 1.224647e-16 -1 50.0219 10.2325)" class="st1" width="2.8" height="2.8"/>
	
		<rect x="12.3" y="6.5" transform="matrix(-1 -1.224647e-16 1.224647e-16 -1 27.3461 15.8828)" class="st2" width="2.8" height="2.8"/>
	
		<rect x="9.4" y="9.4" transform="matrix(-1 -1.224647e-16 1.224647e-16 -1 21.699 21.5285)" class="st2" width="2.8" height="2.8"/>
	
		<rect x="6.6" y="12.2" transform="matrix(-1 -1.224647e-16 1.224647e-16 -1 16.051 27.1765)" class="st2" width="2.8" height="2.8"/>
	
		<rect x="6.6" y="20.7" transform="matrix(-1 -1.224647e-16 1.224647e-16 -1 18.875 44.1416)" class="st2" width="5.6" height="2.8"/>
	
		<rect x="12.3" y="23.5" transform="matrix(-1 -1.224647e-16 1.224647e-16 -1 33.0148 49.7886)" class="st2" width="8.5" height="2.8"/>
	<rect x="3.8" y="15" transform="matrix(-1 -1.224647e-16 1.224647e-16 -1 10.403 38.4828)" class="st2" width="2.8" height="8.5"/>
</g>
</svg>
