<?xml version="1.0" encoding="utf-8"?>
<!-- Generator: Adobe Illustrator 22.0.0, SVG Export Plug-In . SVG Version: 6.00 Build 0)  -->
<svg version="1.1" id="Layer_1" xmlns="http://www.w3.org/2000/svg" xmlns:xlink="http://www.w3.org/1999/xlink" x="0px" y="0px"
	 width="30px" height="40px" viewBox="0 0 30 40" style="enable-background:new 0 0 30 40;" xml:space="preserve">
<style type="text/css">
	.st0{fill:#87D6C5;}
	.st1{fill:#231F20;}
	.st2{fill:#C3EBE2;}
</style>
<g>
	<g>
		<polygon class="st0" points="23.5,5.7 23.5,2.9 20.6,2.9 20.6,5.7 6.5,5.7 6.5,37.1 26.3,37.1 26.3,5.7 		"/>
		
			<rect x="3.7" y="0.1" transform="matrix(-1 -1.224647e-16 1.224647e-16 -1 21.528 2.9998)" class="st1" width="14.1" height="2.8"/>
		
			<rect x="6.5" y="2.9" transform="matrix(-1 -1.224647e-16 1.224647e-16 -1 24.352 8.6478)" class="st2" width="11.3" height="2.8"/>
		
			<rect x="0.9" y="2.9" transform="matrix(-1 -1.224647e-16 1.224647e-16 -1 4.584 39.7118)" class="st1" width="2.8" height="33.9"/>
		
			<rect x="3.7" y="2.9" transform="matrix(-1 -1.224647e-16 1.224647e-16 -1 10.232 39.7118)" class="st2" width="2.8" height="33.9"/>
		<rect x="17.8" y="0.1" class="st1" width="2.8" height="2.8"/>
		<rect x="17.8" y="2.9" class="st1" width="2.8" height="2.8"/>
		<rect x="17.8" y="5.7" class="st1" width="2.8" height="2.8"/>
		<rect x="17.8" y="8.6" class="st1" width="2.8" height="2.8"/>
		<rect x="20.6" y="8.6" class="st1" width="2.8" height="2.8"/>
		<rect x="23.5" y="8.6" class="st1" width="2.8" height="2.8"/>
		<rect x="20.6" y="0.1" class="st1" width="2.8" height="2.8"/>
		<rect x="23.5" y="2.9" class="st1" width="2.8" height="2.8"/>
		<rect x="17.8" y="37.1" class="st1" width="2.8" height="2.8"/>
		<rect x="20.6" y="37.1" class="st1" width="2.8" height="2.8"/>
		<rect x="23.5" y="37.1" class="st1" width="2.8" height="2.8"/>
		<rect x="3.7" y="37.1" class="st1" width="14.1" height="2.8"/>
		<rect x="26.3" y="5.7" class="st1" width="2.8" height="31.4"/>
	</g>
</g>
</svg>
