<svg xmlns="http://www.w3.org/2000/svg" xmlns:xlink="http://www.w3.org/1999/xlink" id="Layer_1" width="50" height="50" x="0" style="enable-background:new 0 0 50 50" y="0" version="1.1" viewBox="0 0 50 50" xml:space="preserve"><style type="text/css">.st0{fill:#87d6c5}.st1{fill:#c3ebe2}.st2{fill:#231f20}</style><g><polygon points="3.8 6.5 3.8 40.7 20.8 40.7 20.8 43.5 23.6 43.5 23.6 46.3 26.4 46.3 26.4 43.5 29.2 43.5 29.2 40.7 46.2 40.7 46.2 6.5" class="st0"/><rect width="16.9" height="2.8" x="29.2" y="6.5" class="st1"/><rect width="14.1" height="2.8" x="3.8" y="3.7" class="st2" transform="matrix(-1 -1.224647e-16 1.224647e-16 -1 21.76 10.1758)"/><rect width="14.1" height="2.8" x="6.6" y="6.5" class="st1" transform="matrix(-1 -1.224647e-16 1.224647e-16 -1 27.408 15.8238)"/><rect width="2.8" height="33.9" x="1" y="6.5" class="st2" transform="matrix(-1 -1.224647e-16 1.224647e-16 -1 4.816 46.8878)"/><rect width="2.8" height="33.9" x="3.8" y="6.5" class="st1" transform="matrix(-1 -1.224647e-16 1.224647e-16 -1 10.464 46.8878)"/><rect width="2.8" height="2.8" x="17.9" y="3.7" class="st2"/><rect width="2.8" height="2.8" x="20.8" y="6.5" class="st2"/><rect width="2.8" height="2.8" x="29.2" y="3.7" class="st2" transform="matrix(-1 -1.224647e-16 1.224647e-16 -1 61.296 10.1758)"/><rect width="2.8" height="2.8" x="26.4" y="6.5" class="st2" transform="matrix(-1 -1.224647e-16 1.224647e-16 -1 55.648 15.8238)"/><rect width="2.8" height="2.8" x="17.9" y="40.7" class="st2"/><rect width="14.1" height="2.8" x="3.8" y="40.7" class="st2"/><rect width="14.1" height="2.8" x="32.1" y="3.7" class="st2"/><rect width="2.8" height="33.9" x="46.2" y="6.5" class="st2"/><rect width="14.1" height="2.8" x="32.1" y="40.7" class="st2" transform="matrix(-1 -3.632973e-11 3.632973e-11 -1 78.24 84.1762)"/><rect width="2.8" height="2.8" x="20.8" y="43.5" class="st2"/><rect width="2.8" height="2.8" x="23.6" y="46.3" class="st2"/><rect width="2.8" height="2.8" x="29.2" y="40.7" class="st2" transform="matrix(-1 -1.224647e-16 1.224647e-16 -1 61.296 84.1762)"/><rect width="2.8" height="2.8" x="26.4" y="43.5" class="st2" transform="matrix(-1 -1.224647e-16 1.224647e-16 -1 55.648 89.8242)"/><rect width="2.8" height="2.8" x="37.7" y="17.8" class="st2" transform="matrix(-1 -4.573998e-11 4.573998e-11 -1 78.24 38.4158)"/><rect width="2.8" height="2.8" x="37.7" y="15" class="st2" transform="matrix(-1 -4.638435e-11 4.638435e-11 -1 78.24 32.7678)"/><rect width="2.8" height="2.8" x="37.7" y="12.1" class="st2" transform="matrix(-1 -4.219703e-11 4.219703e-11 -1 78.24 27.1198)"/><rect width="2.8" height="2.8" x="37.7" y="9.3" class="st2" transform="matrix(-1 -4.606239e-11 4.606239e-11 -1 78.24 21.4718)"/><rect width="2.8" height="2.8" x="37.7" y="6.5" class="st2" transform="matrix(-1 -4.638435e-11 4.638435e-11 -1 78.24 15.8238)"/><rect width="2.8" height="2.8" x="37.7" y="3.7" class="st2" transform="matrix(-1 -4.606239e-11 4.606239e-11 -1 78.24 10.1758)"/><rect width="2.8" height="2.8" x="37.7" y=".9" class="st2" transform="matrix(-1 -4.251900e-11 4.251900e-11 -1 78.24 4.5278)"/><rect width="2.8" height="2.8" x="34.9" y=".9" class="st2" transform="matrix(-1 -4.251900e-11 4.251900e-11 -1 72.592 4.5278)"/><rect width="2.8" height="2.8" x="34.9" y="15" class="st2" transform="matrix(-1 -4.573998e-11 4.573998e-11 -1 72.592 32.7678)"/><rect width="2.8" height="2.8" x="32.1" y="17.8" class="st2"/><rect width="2.8" height="2.8" x="32.1" y="15" class="st2"/><rect width="2.8" height="37" x="23.6" y="9.3" class="st2"/><rect width="2.8" height="34.2" x="26.4" y="9.3" class="st1"/><rect width="2.8" height="2.8" x="32.1" y="12.1" class="st2"/><rect width="2.8" height="2.8" x="32.1" y="9.3" class="st2"/><rect width="2.8" height="2.8" x="32.1" y="6.5" class="st2"/><rect width="2.8" height="2.8" x="32.1" y="3.7" class="st2"/><rect width="2.8" height="2.8" x="32.1" y=".9" class="st2"/><rect width="2.9" height="11.4" x="35" y="3.6" class="st1"/></g></svg>