<svg xmlns="http://www.w3.org/2000/svg" xmlns:xlink="http://www.w3.org/1999/xlink" id="Layer_1" width="16" height="16" x="0" style="enable-background:new 0 0 16 16" y="0" version="1.1" viewBox="0 0 16 16" xml:space="preserve"><style type="text/css">.st0{opacity:.7;fill:#231f20;stroke:#231f20;stroke-width:.5;stroke-miterlimit:10}</style><g><path d="M6.5,12.1c-0.6-0.3-1.1-0.6-1.5-1c-0.4-0.4-0.8-0.9-1-1.5S3.5,8.4,3.5,7.7c0-0.7,0.1-1.3,0.4-1.9 s0.6-1.1,1-1.5c0.4-0.4,0.9-0.8,1.5-1C7,3,7.7,2.9,8.3,2.9c0.2,0,0.3,0,0.5,0c0.2,0,0.3,0,0.5,0.1C9.4,3,9.6,3,9.7,3.1 s0.3,0.1,0.5,0.2c0,0,0.1,0,0.1,0.1s0.1,0.1,0.1,0.1c0,0,0,0.1,0,0.1s0,0.1,0,0.1c0,0,0,0.1-0.1,0.1s-0.1,0.1-0.1,0.1 c0,0-0.1,0-0.1,0s-0.1,0-0.1,0c-0.1,0-0.3-0.1-0.4-0.1S9.3,3.7,9.1,3.6c-0.1,0-0.3,0-0.4-0.1c-0.1,0-0.3,0-0.4,0 c-0.6,0-1.1,0.1-1.6,0.3S5.8,4.4,5.4,4.8C5,5.2,4.7,5.6,4.5,6.1c-0.2,0.5-0.3,1-0.3,1.6s0.1,1.1,0.3,1.6c0.2,0.5,0.5,0.9,0.9,1.3 c0.4,0.4,0.8,0.7,1.3,0.9c0.5,0.2,1,0.3,1.6,0.3c0.6,0,1.1-0.1,1.6-0.3c0.5-0.2,0.9-0.5,1.3-0.9c0.4-0.4,0.7-0.8,0.9-1.3 c0.2-0.5,0.3-1,0.3-1.6c0,0,0-0.1,0-0.2s0-0.1,0-0.2c0,0,0-0.1,0-0.2c0-0.1,0-0.1,0-0.2c0,0,0-0.1,0-0.1s0-0.1,0.1-0.1 c0,0,0.1-0.1,0.1-0.1s0.1,0,0.1,0c0,0,0.1,0,0.1,0s0.1,0,0.1,0.1c0,0,0.1,0.1,0.1,0.1c0,0,0,0.1,0,0.1c0,0.1,0,0.1,0,0.2 c0,0.1,0,0.1,0,0.2c0,0.1,0,0.1,0,0.2c0,0.1,0,0.1,0,0.2c0,0.7-0.1,1.3-0.4,1.9c-0.3,0.6-0.6,1.1-1,1.5c-0.4,0.4-0.9,0.8-1.5,1 c-0.6,0.3-1.2,0.4-1.9,0.4C7.7,12.5,7,12.4,6.5,12.1z M6,6.9c0,0-0.1-0.1-0.1-0.1c0,0,0-0.1,0-0.1c0,0,0-0.1,0-0.1S6,6.4,6,6.4 c0,0,0.1,0,0.1-0.1c0,0,0.1,0,0.1,0c0,0,0.1,0,0.1,0s0.1,0,0.1,0.1l1.8,2.1l5.6-6.9c0,0,0.1-0.1,0.1-0.1c0,0,0.1,0,0.1,0 c0,0,0.1,0,0.1,0s0.1,0,0.1,0.1c0,0,0.1,0.1,0.1,0.1s0,0.1,0,0.1c0,0,0,0.1,0,0.1s0,0.1-0.1,0.1L8.3,9.6L6,6.9z" class="st0"/></g></svg>