<svg xmlns="http://www.w3.org/2000/svg" xmlns:xlink="http://www.w3.org/1999/xlink" id="Layer_1" width="30" height="40" x="0" style="enable-background:new 0 0 30 40" y="0" version="1.1" viewBox="0 0 30 40" xml:space="preserve"><style type="text/css">.st0{fill:#87d6c5}.st1{fill:#231f20}.st2{fill:#c3ebe2}</style><g><g><polygon points="23.5 5.7 23.5 2.9 20.6 2.9 20.6 5.7 6.5 5.7 6.5 37.1 26.3 37.1 26.3 5.7" class="st0"/><rect width="14.1" height="2.8" x="3.7" y=".1" class="st1" transform="matrix(-1 -1.224647e-16 1.224647e-16 -1 21.528 2.9998)"/><rect width="11.3" height="2.8" x="6.5" y="2.9" class="st2" transform="matrix(-1 -1.224647e-16 1.224647e-16 -1 24.352 8.6478)"/><rect width="2.8" height="33.9" x=".9" y="2.9" class="st1" transform="matrix(-1 -1.224647e-16 1.224647e-16 -1 4.584 39.7118)"/><rect width="2.8" height="33.9" x="3.7" y="2.9" class="st2" transform="matrix(-1 -1.224647e-16 1.224647e-16 -1 10.232 39.7118)"/><rect width="2.8" height="2.8" x="17.8" y=".1" class="st1"/><rect width="2.8" height="2.8" x="17.8" y="2.9" class="st1"/><rect width="2.8" height="2.8" x="17.8" y="5.7" class="st1"/><rect width="2.8" height="2.8" x="17.8" y="8.6" class="st1"/><rect width="2.8" height="2.8" x="20.6" y="8.6" class="st1"/><rect width="2.8" height="2.8" x="23.5" y="8.6" class="st1"/><rect width="2.8" height="2.8" x="20.6" y=".1" class="st1"/><rect width="2.8" height="2.8" x="23.5" y="2.9" class="st1"/><rect width="2.8" height="2.8" x="17.8" y="37.1" class="st1"/><rect width="2.8" height="2.8" x="20.6" y="37.1" class="st1"/><rect width="2.8" height="2.8" x="23.5" y="37.1" class="st1"/><rect width="14.1" height="2.8" x="3.7" y="37.1" class="st1"/><rect width="2.8" height="31.4" x="26.3" y="5.7" class="st1"/></g></g></svg>