<?xml version="1.0" encoding="utf-8"?>
<!-- Generator: Adobe Illustrator 22.0.0, SVG Export Plug-In . SVG Version: 6.00 Build 0)  -->
<svg version="1.1" id="Layer_1" xmlns="http://www.w3.org/2000/svg" xmlns:xlink="http://www.w3.org/1999/xlink" x="0px" y="0px"
	 width="13.4px" height="21px" viewBox="0 0 13.4 21" style="enable-background:new 0 0 13.4 21;" xml:space="preserve">
<style type="text/css">
	.st0{fill:#87D6C5;}
	.st1{fill:#C3EBE2;}
</style>
<g>
	<g>
		<g>
			<polygon points="9.5,1.9 9.5,0 3.8,0 3.8,1.9 6.7,1.9 			"/>
		</g>
		<g>
			<polygon points="9.5,15.3 9.5,13.4 3.8,13.4 3.8,15.3 6.7,15.3 			"/>
		</g>
		<g>
			<rect x="1.9" y="1.9" width="1.9" height="1.9"/>
		</g>
		<g>
			<rect x="3.8" y="3.8" width="1.9" height="1.9"/>
		</g>
		<g>
			<rect x="3.8" y="5.7" width="1.9" height="1.9"/>
		</g>
		<g>
			<rect x="9.5" y="1.9" width="1.9" height="1.9"/>
		</g>
		<g>
			<rect x="7.6" y="3.8" width="1.9" height="1.9"/>
		</g>
		<g>
			<rect x="5.7" y="15.3" width="1.9" height="1.9"/>
		</g>
		<g>
			<rect x="5.7" y="17.2" width="1.9" height="1.9"/>
		</g>
		<g>
			<polygon points="6.7,21 7.6,19.1 5.7,19.1 6.7,21 			"/>
		</g>
		<g>
			<rect x="7.6" y="5.7" width="1.9" height="1.9"/>
		</g>
		<g>
			<rect x="9.5" y="7.6" width="1.9" height="1.9"/>
		</g>
		<g>
			<rect x="1.9" y="7.6" width="1.9" height="1.9"/>
		</g>
		<g>
			<rect y="9.5" width="1.9" height="1.9"/>
		</g>
		<g>
			<rect x="1.9" y="11.5" width="1.9" height="1.9"/>
		</g>
		<g>
			<rect x="11.5" y="9.5" width="1.9" height="1.9"/>
		</g>
		<g>
			<rect x="9.5" y="11.5" width="1.9" height="1.9"/>
		</g>
	</g>
	<rect x="3.8" y="1.9" class="st0" width="5.7" height="1.9"/>
	<rect x="5.7" y="3.8" class="st0" width="1.9" height="3.8"/>
	<rect x="3.8" y="7.6" class="st0" width="5.7" height="1.9"/>
	<rect x="1.9" y="9.5" class="st0" width="9.5" height="1.9"/>
	<rect x="3.8" y="11.5" class="st0" width="5.7" height="1.9"/>
	<g>
		<rect x="3.8" y="1.9" class="st1" width="1.9" height="1.9"/>
	</g>
	<g>
		<rect x="5.7" y="3.8" class="st1" width="1.9" height="1.9"/>
	</g>
	<g>
		<rect x="5.7" y="5.7" class="st1" width="1.9" height="1.9"/>
	</g>
	<g>
		<rect x="3.8" y="7.6" class="st1" width="1.9" height="1.9"/>
	</g>
	<g>
		<rect x="1.9" y="9.5" class="st1" width="1.9" height="1.9"/>
	</g>
	<g>
		<rect x="3.8" y="11.5" class="st1" width="1.9" height="1.9"/>
	</g>
</g>
</svg>
