<?xml version="1.0" encoding="utf-8"?>
<!-- Generator: Adobe Illustrator 22.0.0, SVG Export Plug-In . SVG Version: 6.00 Build 0)  -->
<svg version="1.1" id="Layer_1" xmlns="http://www.w3.org/2000/svg" xmlns:xlink="http://www.w3.org/1999/xlink" x="0px" y="0px"
	 width="16px" height="16px" viewBox="0 0 16 16" style="enable-background:new 0 0 16 16;" xml:space="preserve">
<style type="text/css">
	.st0{fill:#EAE6E5;}
	.st1{fill:#231F20;}
	.st2{fill:#B9ADA9;}
</style>
<g>
	<rect x="6" y="2.1" class="st0" width="3.9" height="11.8"/>
	<rect x="2.1" y="6" class="st0" width="11.8" height="3.9"/>
	<rect x="4.7" y="4.7" class="st1" width="1.3" height="1.3"/>
	<rect x="4.7" y="3.4" class="st1" width="1.3" height="1.3"/>
	<rect x="6" y="3.4" class="st2" width="1.3" height="1.3"/>
	<rect x="4.7" y="2.1" class="st1" width="1.3" height="1.3"/>
	<rect x="6" y="2.1" class="st2" width="1.3" height="1.3"/>
	<rect x="6" y="0.8" class="st1" width="1.3" height="1.3"/>
	<rect x="7.3" y="0.8" class="st1" width="1.3" height="1.3"/>
	<rect x="8.7" y="0.8" class="st1" width="1.3" height="1.3"/>
	<rect x="10" y="2.1" class="st1" width="1.3" height="1.3"/>
	<rect x="10" y="3.4" class="st1" width="1.3" height="1.3"/>
	<rect x="10" y="4.7" class="st1" width="1.3" height="1.3"/>
	<rect x="10" y="10" class="st1" width="1.3" height="1.3"/>
	<rect x="10" y="11.3" class="st1" width="1.3" height="1.3"/>
	<rect x="10" y="12.6" class="st1" width="1.3" height="1.3"/>
	<rect x="8.7" y="13.9" class="st1" width="1.3" height="1.3"/>
	<rect x="7.3" y="13.9" class="st1" width="1.3" height="1.3"/>
	<rect x="6" y="13.9" class="st1" width="1.3" height="1.3"/>
	<rect x="4.7" y="12.6" class="st1" width="1.3" height="1.3"/>
	<rect x="4.7" y="11.3" class="st1" width="1.3" height="1.3"/>
	<rect x="4.7" y="10" class="st1" width="1.3" height="1.3"/>
	<g>
		<rect x="10" y="4.7" class="st1" width="1.3" height="1.3"/>
		<rect x="11.3" y="4.7" class="st1" width="1.3" height="1.3"/>
		<rect x="12.6" y="4.7" class="st1" width="1.3" height="1.3"/>
		<rect x="13.9" y="6" class="st1" width="1.3" height="1.3"/>
		<rect x="13.9" y="7.3" class="st1" width="1.3" height="1.3"/>
		<rect x="13.9" y="8.7" class="st1" width="1.3" height="1.3"/>
		<rect x="12.6" y="10" class="st1" width="1.3" height="1.3"/>
		<rect x="11.3" y="10" class="st1" width="1.3" height="1.3"/>
		<rect x="10" y="10" class="st1" width="1.3" height="1.3"/>
		<rect x="4.7" y="10" class="st1" width="1.3" height="1.3"/>
		<rect x="3.4" y="10" class="st1" width="1.3" height="1.3"/>
		<rect x="2.1" y="10" class="st1" width="1.3" height="1.3"/>
		<rect x="0.8" y="8.7" class="st1" width="1.3" height="1.3"/>
		<rect x="0.8" y="7.3" class="st1" width="1.3" height="1.3"/>
		<rect x="0.8" y="6" class="st1" width="1.3" height="1.3"/>
		<rect x="2.1" y="4.7" class="st1" width="1.3" height="1.3"/>
		<rect x="3.4" y="4.7" class="st1" width="1.3" height="1.3"/>
		<rect x="4.7" y="4.7" class="st1" width="1.3" height="1.3"/>
		<rect x="6" y="4.7" class="st2" width="1.3" height="1.3"/>
		<rect x="6" y="6" class="st2" width="1.3" height="1.3"/>
		<rect x="4.7" y="6" class="st2" width="1.3" height="1.3"/>
		<rect x="3.4" y="6" class="st2" width="1.3" height="1.3"/>
		<rect x="2.1" y="6" class="st2" width="1.3" height="1.3"/>
		<rect x="2.1" y="7.3" class="st2" width="1.3" height="1.3"/>
		<rect x="2.1" y="8.7" class="st2" width="1.3" height="1.3"/>
		<rect x="6" y="10" class="st2" width="1.3" height="1.3"/>
		<rect x="6" y="11.3" class="st2" width="1.3" height="1.3"/>
		<rect x="6" y="12.6" class="st2" width="1.3" height="1.3"/>
	</g>
</g>
</svg>
