<?xml version="1.0" encoding="utf-8"?>
<!-- Generator: Adobe Illustrator 22.0.0, SVG Export Plug-In . SVG Version: 6.00 Build 0)  -->
<svg version="1.1" id="Layer_1" xmlns="http://www.w3.org/2000/svg" xmlns:xlink="http://www.w3.org/1999/xlink" x="0px" y="0px"
	 width="18px" height="12.4px" viewBox="0 0 18 12.4" style="enable-background:new 0 0 18 12.4;" xml:space="preserve">
<style type="text/css">
	.st0{fill:#FFFFFF;}
</style>
<g>
	<path class="st0" d="M16.4,0c0.2,0,0.4,0,0.6,0.1s0.4,0.2,0.5,0.3s0.3,0.3,0.3,0.5S18,1.4,18,1.6v9.2c0,0.2,0,0.4-0.1,0.6
		c-0.1,0.2-0.2,0.4-0.3,0.5s-0.3,0.3-0.5,0.3s-0.4,0.1-0.6,0.1H1.6c-0.2,0-0.4,0-0.6-0.1c-0.2-0.1-0.4-0.2-0.5-0.3s-0.3-0.3-0.3-0.5
		C0,11.2,0,11,0,10.8V1.6C0,1.4,0,1.2,0.1,1s0.2-0.4,0.3-0.5S0.8,0.2,1,0.1C1.2,0,1.4,0,1.6,0H16.4z M4.9,5.7L1.1,2.4v8.2L4.9,5.7z
		 M16.4,1.1H1.6c0,0-0.1,0-0.1,0c0,0-0.1,0-0.1,0L9,7.7l7.6-6.5C16.6,1.1,16.5,1.1,16.4,1.1C16.5,1.1,16.4,1.1,16.4,1.1z M5.8,6.5
		L2,11.2h14l-4-4.7L9.4,8.9c0,0-0.1,0.1-0.1,0.1C9.2,9,9.1,9,9,9S8.9,9,8.8,9C8.8,9,8.7,8.9,8.7,8.9L5.8,6.5z M12.9,5.7l4,4.8V2.4
		L12.9,5.7z"/>
</g>
</svg>
