<?xml version="1.0" encoding="utf-8"?>
<!-- Generator: Adobe Illustrator 22.0.0, SVG Export Plug-In . SVG Version: 6.00 Build 0)  -->
<svg version="1.1" id="Layer_1" xmlns="http://www.w3.org/2000/svg" xmlns:xlink="http://www.w3.org/1999/xlink" x="0px" y="0px"
	 width="16px" height="16px" viewBox="0 0 16 16" style="enable-background:new 0 0 16 16;" xml:space="preserve">
<style type="text/css">
	.st0{opacity:0.7;fill:#231F20;stroke:#231F20;stroke-width:0.5;stroke-miterlimit:10;}
</style>
<g>
	<path class="st0" d="M6.9,13.4c-0.4-0.1-0.7-0.2-1-0.3c-0.3-0.1-0.6-0.3-0.9-0.5s-0.6-0.4-0.8-0.7s-0.5-0.5-0.7-0.8
		c-0.2-0.3-0.4-0.6-0.5-0.9c-0.1-0.3-0.2-0.7-0.3-1C2.5,8.7,2.5,8.4,2.5,8s0-0.7,0.1-1.1c0.1-0.4,0.2-0.7,0.3-1
		c0.1-0.3,0.3-0.6,0.5-0.9c0.2-0.3,0.4-0.6,0.7-0.8s0.5-0.5,0.8-0.7c0.3-0.2,0.6-0.4,0.9-0.5c0.3-0.1,0.7-0.2,1-0.3
		C7.3,2.5,7.6,2.5,8,2.5s0.7,0,1.1,0.1c0.4,0.1,0.7,0.2,1,0.3c0.3,0.1,0.6,0.3,0.9,0.5c0.3,0.2,0.6,0.4,0.8,0.7
		c0.5,0.5,0.9,1.1,1.2,1.8c0.3,0.7,0.4,1.4,0.4,2.1c0,0.7-0.1,1.4-0.4,2.1c-0.3,0.7-0.7,1.3-1.2,1.8c-0.3,0.3-0.5,0.5-0.8,0.7
		c-0.3,0.2-0.6,0.4-0.9,0.5c-0.3,0.1-0.7,0.2-1,0.3S8.4,13.5,8,13.5S7.3,13.5,6.9,13.4z M7.1,3.3C6.7,3.3,6.4,3.4,6.2,3.6
		C5.9,3.7,5.6,3.8,5.3,4S4.8,4.4,4.6,4.6C4.4,4.8,4.2,5.1,4,5.3S3.7,5.9,3.6,6.2C3.4,6.4,3.3,6.7,3.3,7.1C3.2,7.4,3.2,7.7,3.2,8
		s0,0.6,0.1,0.9s0.2,0.6,0.3,0.9c0.1,0.3,0.3,0.6,0.4,0.8c0.2,0.3,0.4,0.5,0.6,0.7c0.2,0.2,0.5,0.4,0.7,0.6c0.3,0.2,0.5,0.3,0.8,0.4
		c0.3,0.1,0.6,0.2,0.9,0.3c0.3,0.1,0.6,0.1,0.9,0.1s0.6,0,0.9-0.1c0.3-0.1,0.6-0.2,0.9-0.3c0.3-0.1,0.6-0.3,0.8-0.4
		c0.3-0.2,0.5-0.4,0.7-0.6c0.5-0.5,0.8-1,1.1-1.6c0.2-0.6,0.4-1.2,0.4-1.8c0-0.6-0.1-1.2-0.4-1.8s-0.6-1.1-1.1-1.6
		c-0.2-0.2-0.5-0.4-0.7-0.6s-0.5-0.3-0.8-0.4C9.6,3.4,9.3,3.3,8.9,3.3C8.6,3.2,8.3,3.2,8,3.2S7.4,3.2,7.1,3.3z"/>
</g>
</svg>
