<?xml version="1.0" encoding="utf-8"?>
<!-- Generator: Adobe Illustrator 22.0.0, SVG Export Plug-In . SVG Version: 6.00 Build 0)  -->
<svg version="1.1" id="Layer_1" xmlns="http://www.w3.org/2000/svg" xmlns:xlink="http://www.w3.org/1999/xlink" x="0px" y="0px"
	 width="8.9px" height="13px" viewBox="0 0 8.9 13" style="enable-background:new 0 0 8.9 13;" xml:space="preserve">
<style type="text/css">
	.st0{fill:#89d7c6;}
</style>
<g>
	<path class="st0" d="M4.5,0c0.6,0,1.2,0.1,1.7,0.4s1,0.6,1.4,1c0.4,0.4,0.7,0.9,1,1.5S8.9,4,8.9,4.6c0,0.3,0,0.6-0.1,0.9
		S8.7,6.1,8.6,6.4S8.3,7,8.2,7.2S7.8,7.7,7.6,7.9C7.4,8.1,7.2,8.3,7,8.5S6.8,8.8,6.7,8.9C6.6,9.1,6.6,9.2,6.6,9.4
		c0,0.2-0.1,0.3-0.1,0.6v2.7c0,0.1,0,0.1,0,0.2c0,0,0,0.1-0.1,0.1c0,0-0.1,0.1-0.1,0.1c0,0-0.1,0-0.2,0H2.8c-0.1,0-0.1,0-0.2,0
		c0,0-0.1,0-0.1-0.1c0,0-0.1-0.1-0.1-0.1c0,0,0-0.1,0-0.2V9.9c0-0.2,0-0.4-0.1-0.6c0-0.2-0.1-0.3-0.2-0.5C2.1,8.8,2,8.6,1.9,8.5
		S1.6,8.1,1.4,7.9C1.2,7.7,1,7.5,0.8,7.2S0.5,6.7,0.4,6.4C0.2,6.1,0.1,5.8,0.1,5.5S0,4.9,0,4.6C0,4,0.1,3.4,0.4,2.8s0.6-1,1-1.5
		c0.4-0.4,0.9-0.7,1.4-1S3.9,0,4.5,0z M7,7.4C7.2,7.2,7.3,7,7.5,6.8c0.1-0.2,0.3-0.4,0.4-0.7C7.9,5.9,8,5.6,8,5.4s0.1-0.5,0.1-0.8
		c0-0.5-0.1-1-0.3-1.5S7.4,2.3,7,1.9C6.7,1.6,6.3,1.3,5.9,1.1S5,0.8,4.5,0.8s-1,0.1-1.4,0.3S2.2,1.6,1.9,1.9
		C1.6,2.3,1.3,2.7,1.1,3.1S0.8,4.1,0.8,4.6c0,0.3,0,0.5,0.1,0.8S1,5.9,1.1,6.1c0.1,0.2,0.2,0.4,0.4,0.7C1.6,7,1.8,7.2,2,7.3l0,0
		C2.2,7.6,2.4,7.8,2.6,8c0.2,0.2,0.3,0.4,0.4,0.6C3,8.7,3.1,8.9,3.2,9.1s0.1,0.5,0.1,0.8v0.2h0.8V5.4C4,5.4,3.9,5.3,3.8,5.2
		S3.7,5.1,3.6,5S3.5,4.9,3.5,4.8s0-0.2,0-0.3c0-0.1,0-0.3,0.1-0.4s0.1-0.2,0.2-0.3s0.2-0.2,0.3-0.2s0.3-0.1,0.4-0.1s0.3,0,0.4,0.1
		s0.2,0.1,0.3,0.2s0.2,0.2,0.2,0.3s0.1,0.3,0.1,0.4c0,0.1,0,0.2,0,0.3S5.4,5,5.3,5C5.3,5.1,5.2,5.2,5.1,5.2S5,5.4,4.9,5.4v4.7h0.8
		V9.9c0-0.3,0-0.6,0.1-0.8C5.8,8.9,5.9,8.7,6,8.5C6.1,8.4,6.2,8.2,6.4,8C6.5,7.8,6.7,7.6,7,7.4L7,7.4z M3.2,11v1.2h1.2V11H3.2z"/>
</g>
</svg>
