<?xml version="1.0" encoding="UTF-8" standalone="no"?>
<svg
   xmlns:dc="http://purl.org/dc/elements/1.1/"
   xmlns:cc="http://creativecommons.org/ns#"
   xmlns:rdf="http://www.w3.org/1999/02/22-rdf-syntax-ns#"
   xmlns:svg="http://www.w3.org/2000/svg"
   xmlns="http://www.w3.org/2000/svg"
   xmlns:sodipodi="http://sodipodi.sourceforge.net/DTD/sodipodi-0.dtd"
   xmlns:inkscape="http://www.inkscape.org/namespaces/inkscape"
   version="1.1"
   x="0px"
   y="0px"
   viewBox="0 0 95.063469 95.175003"
   xml:space="preserve"
   id="svg2"
   inkscape:version="0.91 r13725"
   sodipodi:docname="logo.svg"
   width="95.063469"
   height="95.175003"><metadata
     id="metadata14"><rdf:RDF><cc:Work
         rdf:about=""><dc:format>image/svg+xml</dc:format><dc:type
           rdf:resource="http://purl.org/dc/dcmitype/StillImage" /><dc:title /></cc:Work></rdf:RDF></metadata><defs
     id="defs12" /><sodipodi:namedview
     pagecolor="#ffffff"
     bordercolor="#666666"
     borderopacity="1"
     objecttolerance="10"
     gridtolerance="10"
     guidetolerance="10"
     inkscape:pageopacity="0"
     inkscape:pageshadow="2"
     inkscape:window-width="1855"
     inkscape:window-height="1056"
     id="namedview10"
     showgrid="false"
     fit-margin-top="0"
     fit-margin-left="0"
     fit-margin-right="0"
     fit-margin-bottom="0"
     inkscape:zoom="1.888"
     inkscape:cx="-70.219915"
     inkscape:cy="35.8"
     inkscape:window-x="65"
     inkscape:window-y="1104"
     inkscape:window-maximized="1"
     inkscape:current-layer="svg2" /><path
     d="m 57.4,95.175 c -0.9,0 -1.7,-0.3 -2.3,-0.9 l -14.8,-14.8 c -0.6,-0.6 -1,-1.5 -1,-2.4 0,-0.9 0.4,-1.7 1,-2.4 1.3,-1.3 3.5,-1.4 4.8,-0.1 l 14.7,14.7 c 1,1 1.2,2.4 0.7,3.7 -0.5,1.3 -1.8,2.2 -3.1,2.2 z m -19.7,0 c -0.9,0 -1.7,-0.3 -2.3,-0.9 -0.7,-0.6 -1,-1.5 -1.1,-2.4 0,-0.9 0.3,-1.8 1,-2.4 l 3.2,-3.3 c 0.6,-0.6 1.5,-1 2.4,-1 0,0 0,0 0,0 0.9,0 1.7,0.4 2.4,1 1.3,1.3 1.4,3.5 0.1,4.8 l -3.3,3.2 c -0.3,0.3 -0.7,0.6 -1.1,0.7 -0.4,0.2 -0.9,0.3 -1.3,0.3 z m 31.1,-11.5 c -0.9,0 -1.7,-0.3 -2.3,-0.9 l -3.3,-3.3 c -1.3,-1.3 -1.3,-3.4 0,-4.7 1.3,-1.3 3.5,-1.4 4.8,-0.1 l 3.2,3.2 c 1,1 1.2,2.4 0.7,3.7 -0.5,1.2 -1.7,2.1 -3.1,2.1 z m -42.6,0 c -0.9,0 -1.7,-0.3 -2.3,-0.9 -0.7,-0.6 -1,-1.5 -1.1,-2.4 0,-0.9 0.3,-1.8 1,-2.4 l 14.7,-14.7 c 0.6,-0.6 1.5,-1 2.4,-1 0,0 0,0 0,0 0.9,0 1.7,0.4 2.4,1 1.3,1.3 1.4,3.5 0.1,4.8 l -14.8,14.6 c -0.3,0.3 -0.7,0.6 -1.1,0.7 -0.4,0.2 -0.8,0.3 -1.3,0.3 z m 28,-5 c -0.9,0 -1.7,-0.3 -2.4,-1 l -0.1,-0.1 c -1.3,-1.3 -1.3,-3.4 0,-4.7 l 9.6,-9.6 c 1.3,-1.3 3.4,-1.3 4.7,0 1.3,1.3 1.4,3.5 0.1,4.8 l -9.6,9.6 c -0.6,0.6 -1.4,1 -2.3,1 z m 26.1,-6.4 c -0.9,0 -1.8,-0.4 -2.4,-1 l -14.7,-14.7 c -1.3,-1.3 -1.3,-3.4 0,-4.7 0.6,-0.6 1.5,-1 2.4,-1 0.9,0 1.8,0.3 2.4,0.9 l 14.7,14.7 c 1,1 1.2,2.4 0.7,3.7 -0.5,1.2 -1.8,2.1 -3.1,2.1 z m -65.5,0 c -0.8,0 -1.7,-0.3 -2.3,-0.9 -0.7,-0.6 -1.1,-1.5 -1.1,-2.4 0,-0.9 0.3,-1.8 1,-2.5 l 3.2,-3.3 c 0.6,-0.6 1.5,-1 2.4,-1 0.9,0 1.8,0.4 2.4,1 1.3,1.3 1.4,3.5 0.1,4.8 l -3.2,3.2 c -0.3,0.3 -0.7,0.6 -1.1,0.7 -0.5,0.3 -1,0.4 -1.4,0.4 z m 37.5,-5.1 c -0.9,0 -1.7,-0.3 -2.3,-0.9 l -9.6,-9.6 c -1.3,-1.3 -1.3,-3.4 0,-4.7 0.6,-0.6 1.5,-1 2.4,-1 0,0 0,0 0,0 0.9,0 1.8,0.3 2.4,0.9 l 9.6,9.6 c 0.6,0.6 1,1.5 1,2.4 0,0.9 -0.4,1.7 -1,2.4 -0.7,0.5 -1.6,0.9 -2.5,0.9 z m -22.9,0 c -0.9,0 -1.7,-0.3 -2.3,-0.9 l -9.6,-9.6 c -0.6,-0.6 -1,-1.5 -1,-2.4 0,-0.9 0.4,-1.7 1,-2.4 1.3,-1.3 3.5,-1.4 4.8,-0.1 l 9.6,9.6 c 0.6,0.6 1,1.5 1,2.4 0,0.9 -0.4,1.7 -1,2.4 -0.7,0.6 -1.6,1 -2.5,1 z m 62.3,-6.3 c -0.9,0 -1.8,-0.4 -2.4,-1 l -3.2,-3.3 c -0.6,-0.6 -1,-1.5 -1,-2.4 0,-0.9 0.4,-1.7 1,-2.4 1.3,-1.3 3.5,-1.4 4.8,-0.1 l 3.2,3.2 c 1,1 1.2,2.4 0.7,3.7 -0.5,1.3 -1.7,2.3 -3.1,2.3 z m -88.3,0 c -0.8,0 -1.7,-0.3 -2.3,-0.9 -0.7,-0.6 -1.1,-1.5 -1.1,-2.4 0,-0.9 0.3,-1.8 1,-2.4 l 14.7,-14.7 c 0.6,-0.6 1.5,-1 2.4,-1 0,0 0,0 0,0 0.9,0 1.7,0.4 2.4,1 1.3,1.3 1.4,3.5 0.1,4.8 l -14.8,14.6 c -0.3,0.3 -0.7,0.6 -1.1,0.7 -0.4,0.2 -0.9,0.3 -1.3,0.3 z m 50.8,-5.1 c -0.9,0 -1.7,-0.3 -2.4,-1 l -0.1,-0.1 c -0.6,-0.6 -1,-1.5 -1,-2.4 0,-0.9 0.4,-1.7 1,-2.4 l 9.6,-9.6 c 1.3,-1.3 3.4,-1.3 4.7,0 0.6,0.6 1,1.5 1,2.4 0,0.9 -0.3,1.8 -0.9,2.4 l -9.6,9.6 c -0.6,0.8 -1.4,1.1 -2.3,1.1 z m -22.9,0 c -0.9,0 -1.7,-0.3 -2.4,-1 l -0.1,-0.1 c -0.6,-0.6 -1,-1.5 -1,-2.4 0,-0.9 0.4,-1.7 1,-2.4 l 9.6,-9.6 c 1.3,-1.3 3.4,-1.3 4.7,0 0.6,0.6 1,1.5 1,2.4 0,0.9 -0.3,1.8 -0.9,2.4 l -9.6,9.6 c -0.6,0.8 -1.4,1.1 -2.3,1.1 z m 45.8,0 c -0.9,0 -1.7,-0.4 -2.4,-1 l -0.1,-0.1 c -1.3,-1.3 -1.3,-3.4 0,-4.7 l 14.7,-14.7 c 1.3,-1.3 3.4,-1.3 4.7,0 1.3,1.3 1.3,3.4 0,4.7 l -14.6,14.8 c -0.6,0.6 -1.4,1 -2.3,1 0,0 0,0 0,0 z m -70.5,-11.5 0,0 c -0.9,0 -1.8,-0.3 -2.4,-1 L 1,40.075 c -1.3,-1.3 -1.3,-3.4 0,-4.7 1.3,-1.3 3.4,-1.3 4.7,0 l 3.3,3.2 c 0.6,0.6 1,1.5 1,2.4 0,0.9 -0.3,1.8 -1,2.4 -0.7,0.5 -1.5,0.9 -2.4,0.9 z m 22.8,0 c -0.9,0 -1.7,-0.3 -2.3,-1 l -14.7,-14.6 c -1.3,-1.3 -1.3,-3.4 0,-4.7 1.3,-1.3 3.4,-1.3 4.7,0 l 14.7,14.6 c 0.6,0.6 1,1.5 1,2.4 0,0.9 -0.4,1.7 -1,2.4 -0.6,0.6 -1.5,0.9 -2.4,0.9 z m 22.9,0 c -0.9,0 -1.7,-0.3 -2.3,-0.9 l -9.6,-9.6 c -0.6,-0.6 -1,-1.5 -1,-2.4 0,-0.9 0.4,-1.7 1,-2.4 1.3,-1.3 3.5,-1.4 4.8,-0.1 l 9.6,9.6 c 0.6,0.6 1,1.5 1,2.4 0,0.9 -0.4,1.7 -1,2.4 -0.7,0.7 -1.6,1 -2.5,1 z m 22.9,0 0,0 c -0.9,0 -1.8,-0.3 -2.4,-0.9 l -9.6,-9.6 c -1.3,-1.3 -1.3,-3.4 0,-4.7 0.6,-0.6 1.5,-1 2.4,-1 l 0,0 c 0.9,0 1.8,0.3 2.4,0.9 l 9.6,9.6 c 1.3,1.3 1.3,3.4 0,4.7 -0.6,0.6 -1.5,1 -2.4,1 z m -43.9,-11.4 c -0.9,0 -1.7,-0.3 -2.4,-1 l -0.1,-0.1 c -1.3,-1.3 -1.3,-3.4 0,-4.7 l 9.6,-9.6 c 0.6,-0.6 1.5,-1 2.4,-1 0,0 0,0 0,0 0.9,0 1.7,0.4 2.4,1 1.3,1.3 1.4,3.5 0.1,4.8 l -9.6,9.6 c -0.7,0.7 -1.5,1 -2.4,1 z m 22.9,0 c -0.9,0 -1.8,-0.4 -2.4,-1 l -0.1,-0.1 c -1.3,-1.3 -1.3,-3.4 0,-4.7 l 14.7,-14.7 c 1.3,-1.3 3.4,-1.3 4.7,0 1.3,1.3 1.3,3.4 0,4.7 l -14.5,14.8 c -0.7,0.6 -1.5,1 -2.4,1 z m 22.8,0 c -0.9,0 -1.7,-0.4 -2.4,-1 l 0,0 c -0.6,-0.6 -1,-1.5 -1,-2.4 0,-0.9 0.4,-1.7 1,-2.4 l 3.2,-3.2 c 1.3,-1.3 3.4,-1.3 4.7,0 1.3,1.3 1.3,3.4 0,4.7 l -3.1,3.3 c -0.6,0.6 -1.4,1 -2.4,1 0.1,0 0,0 0,0 z m -47.6,-11.4 c -0.9,0 -1.7,-0.3 -2.4,-1 l -3.2,-3.2 c -1.3,-1.3 -1.3,-3.4 0,-4.7 1.3,-1.3 3.4,-1.3 4.7,0 l 3.3,3.2 c 0.6,0.6 1,1.5 1,2.4 0,0.9 -0.4,1.8 -1,2.4 -0.6,0.5 -1.5,0.9 -2.4,0.9 z m 22.9,-0.1 c -0.9,0 -1.7,-0.3 -2.3,-0.9 L 35.3,5.775 c -1.3,-1.3 -1.3,-3.4 0,-4.7 1.3,-1.3 3.4,-1.3 4.7,0 l 14.7,14.6 c 0.6,0.6 1,1.5 1,2.4 0,0.9 -0.4,1.7 -1,2.4 -0.6,0.6 -1.5,0.9 -2.4,0.9 z m 1.9,-11.4 c -0.9,0 -1.7,-0.4 -2.4,-1 l 0,0 c -0.6,-0.6 -1,-1.5 -1,-2.4 0,-0.9 0.4,-1.7 1,-2.4 l 3.2,-3.2 c 1.3,-1.3 3.4,-1.3 4.7,0 1.3,1.3 1.3,3.4 0,4.7 l -3.2,3.3 c -0.6,0.6 -1.4,1 -2.3,1 0,0 0,0 0,0 z"
     id="path4"
     inkscape:connector-curvature="0"
     style="fill:#ffffff" /></svg>