<svg xmlns="http://www.w3.org/2000/svg" xmlns:xlink="http://www.w3.org/1999/xlink" id="Layer_1" width="110" height="60" x="0" style="enable-background:new 0 0 110 60" y="0" version="1.1" viewBox="0 0 110 60" xml:space="preserve"><style type="text/css">.st0{fill:#f46936}.st1{fill:#9be1d2}.st2{fill:#fff}.st3{opacity:.75}</style><polygon points="18.3 54.8 5.2 41.7 11.7 35.2 14.3 37.8 10.4 41.7 18.2 49.5 18.2 49.5 18.2 49.5 22.1 45.6 24.7 48.2 20.8 52.1" class="st0"/><polygon points="28.7 54.8 26.1 52.2 30 48.3 22.2 40.5 22.2 40.5 18.3 44.4 15.7 41.8 19.6 37.9 22.2 35.3 35.3 48.4" class="st1"/><g><g><path d="M16.9,5.2L11.7,0L0,11.7L18.3,30l5.2-5.2l5.2,5.2l11.7-11.7L22.1,0L16.9,5.2z M18.3,24.8L5.2,11.7l6.5-6.5 l2.6,2.6l-3.9,3.9l7.8,7.8l0,0l0,0l3.9-3.9l2.6,2.6l-3.9,3.9L18.3,24.8z M28.7,24.8l-2.6-2.6l3.9-3.9l-7.8-7.8l0,0l-3.9,3.9 l-2.6-2.6l3.9-3.9l2.6-2.6l13.1,13.1L28.7,24.8z" class="st2"/></g><g><path d="M56,6.7h3.6V22H56V6.7z" class="st2"/><path d="M66.1,21.6c-0.9-0.4-1.6-1.1-2.1-1.9S63.2,18,63.2,17s0.3-1.9,0.8-2.7s1.2-1.4,2.1-1.9c0.9-0.4,2-0.7,3.2-0.7 s2.3,0.2,3.2,0.7c0.9,0.4,1.6,1.1,2.1,1.9c0.5,0.8,0.8,1.7,0.8,2.7s-0.3,1.9-0.8,2.7c-0.5,0.8-1.2,1.4-2.1,1.9 c-0.9,0.4-2,0.7-3.2,0.7C68.1,22.3,67,22,66.1,21.6z M71,18.8c0.4-0.4,0.7-1,0.7-1.8s-0.2-1.4-0.7-1.8c-0.4-0.4-1-0.7-1.7-0.7 s-1.3,0.2-1.7,0.7c-0.4,0.4-0.7,1-0.7,1.8s0.2,1.4,0.7,1.8c0.4,0.4,1,0.7,1.7,0.7C70,19.4,70.6,19.2,71,18.8z" class="st2"/><path d="M80.9,21.6c-0.9-0.4-1.6-1.1-2.1-1.9C78.2,18.9,78,18,78,17s0.3-1.9,0.8-2.7s1.2-1.4,2.1-1.9 c0.9-0.4,2-0.7,3.2-0.7s2.3,0.2,3.2,0.7c0.9,0.4,1.6,1.1,2.1,1.9c0.5,0.8,0.8,1.7,0.8,2.7s-0.3,1.9-0.8,2.7 c-0.5,0.8-1.2,1.4-2.1,1.9c-0.9,0.4-2,0.7-3.2,0.7C82.9,22.3,81.8,22,80.9,21.6z M85.8,18.8c0.4-0.4,0.7-1,0.7-1.8 s-0.2-1.4-0.7-1.8c-0.4-0.4-1-0.7-1.7-0.7s-1.3,0.2-1.7,0.7c-0.4,0.4-0.7,1-0.7,1.8s0.2,1.4,0.7,1.8c0.4,0.4,1,0.7,1.7,0.7 C84.8,19.4,85.4,19.2,85.8,18.8z" class="st2"/><path d="M93.7,12h3.4v1.1c0.4-0.4,0.9-0.8,1.4-1s1.1-0.4,1.7-0.4c0.7,0,1.3,0.1,1.8,0.3c0.4,0.2,0.8,0.6,1.1,1 c0.4-0.4,0.9-0.7,1.5-1c0.6-0.2,1.2-0.4,1.8-0.4c1.3,0,2.2,0.3,2.8,1c0.6,0.7,0.8,1.6,0.8,2.9v6.3h-3.5V16c0-0.6-0.1-1-0.3-1.2 c-0.2-0.2-0.6-0.4-1-0.4c-0.6,0-1.1,0.2-1.5,0.7c0,0.2,0,0.6,0,1.1v5.7h-3.5v-6c0-0.5-0.1-0.9-0.3-1.1c-0.2-0.2-0.5-0.3-0.9-0.3 c-0.7,0-1.3,0.4-1.8,1.2v6.2h-3.5V12z" class="st2"/></g></g><g><g><path d="M16.9,35.2L11.7,30L0,41.7L18.3,60l5.2-5.2l5.2,5.2l11.7-11.7L22.1,30L16.9,35.2z M18.3,54.8L5.2,41.7 l6.5-6.5l2.6,2.6l-3.9,3.9l7.8,7.8l0,0l0,0l3.9-3.9l2.6,2.6l-3.9,3.9L18.3,54.8z M28.7,54.8l-2.6-2.6l3.9-3.9l-7.8-7.8l0,0 l-3.9,3.9l-2.6-2.6l3.9-3.9l2.6-2.6l13.1,13.1L28.7,54.8z" class="st2"/></g><g class="st3"><path d="M56,36.7h3.6V52H56V36.7z" class="st2"/><path d="M66.1,51.6c-0.9-0.4-1.6-1.1-2.1-1.9S63.2,48,63.2,47s0.3-1.9,0.8-2.7s1.2-1.4,2.1-1.9c0.9-0.4,2-0.7,3.2-0.7 s2.3,0.2,3.2,0.7c0.9,0.4,1.6,1.1,2.1,1.9s0.8,1.7,0.8,2.7s-0.3,1.9-0.8,2.7s-1.2,1.4-2.1,1.9c-0.9,0.4-2,0.7-3.2,0.7 C68.1,52.3,67,52,66.1,51.6z M71,48.8c0.4-0.4,0.7-1,0.7-1.8s-0.2-1.4-0.7-1.8c-0.4-0.4-1-0.7-1.7-0.7s-1.3,0.2-1.7,0.7 c-0.4,0.4-0.7,1-0.7,1.8s0.2,1.4,0.7,1.8c0.4,0.4,1,0.7,1.7,0.7C70,49.4,70.6,49.2,71,48.8z" class="st2"/><path d="M80.9,51.6c-0.9-0.4-1.6-1.1-2.1-1.9C78.2,48.9,78,48,78,47s0.3-1.9,0.8-2.7s1.2-1.4,2.1-1.9 c0.9-0.4,2-0.7,3.2-0.7s2.3,0.2,3.2,0.7c0.9,0.4,1.6,1.1,2.1,1.9s0.8,1.7,0.8,2.7s-0.3,1.9-0.8,2.7s-1.2,1.4-2.1,1.9 c-0.9,0.4-2,0.7-3.2,0.7C82.9,52.3,81.8,52,80.9,51.6z M85.8,48.8c0.4-0.4,0.7-1,0.7-1.8s-0.2-1.4-0.7-1.8c-0.4-0.4-1-0.7-1.7-0.7 s-1.3,0.2-1.7,0.7c-0.4,0.4-0.7,1-0.7,1.8s0.2,1.4,0.7,1.8c0.4,0.4,1,0.7,1.7,0.7C84.8,49.4,85.4,49.2,85.8,48.8z" class="st2"/><path d="M93.7,42h3.4v1.1c0.4-0.4,0.9-0.8,1.4-1c0.5-0.2,1.1-0.4,1.7-0.4c0.7,0,1.3,0.1,1.8,0.3 c0.4,0.2,0.8,0.6,1.1,1c0.4-0.4,0.9-0.7,1.5-1c0.6-0.2,1.2-0.4,1.8-0.4c1.3,0,2.2,0.3,2.8,1c0.6,0.7,0.8,1.6,0.8,2.9v6.3h-3.5V46 c0-0.6-0.1-1-0.3-1.2c-0.2-0.2-0.6-0.4-1-0.4c-0.6,0-1.1,0.2-1.5,0.7c0,0.2,0,0.6,0,1.1v5.7h-3.5v-6c0-0.5-0.1-0.9-0.3-1.1 c-0.2-0.2-0.5-0.3-0.9-0.3c-0.7,0-1.3,0.4-1.8,1.2v6.2h-3.5V42z" class="st2"/></g></g></svg>