<?xml version="1.0" encoding="utf-8"?>
<!-- Generator: Adobe Illustrator 22.0.0, SVG Export Plug-In . SVG Version: 6.00 Build 0)  -->
<svg version="1.1" id="Layer_1" xmlns="http://www.w3.org/2000/svg" xmlns:xlink="http://www.w3.org/1999/xlink" x="0px" y="0px"
	 width="18px" height="18px" viewBox="0 0 18 18" style="enable-background:new 0 0 18 18;" xml:space="preserve">
<style type="text/css">
	.st0{fill:#231F20;}
	.st1{fill:#87D6C5;}
	.st2{fill:#DBF3EE;}
</style>
<g>
	<g>
		<rect x="4" y="11.7" class="st0" width="0.9" height="0.9"/>
		<rect x="4.9" y="10.8" class="st0" width="0.9" height="0.9"/>
		<rect x="5.8" y="9.9" class="st0" width="0.9" height="0.9"/>
		<rect x="6.7" y="9" class="st0" width="0.9" height="0.9"/>
		<rect x="6.7" y="8.1" class="st0" width="0.9" height="0.9"/>
		<rect x="5.8" y="7.2" class="st0" width="0.9" height="0.9"/>
		<rect x="4.9" y="6.3" class="st0" width="0.9" height="0.9"/>
		<rect x="5.8" y="6.3" class="st1" width="0.9" height="0.9"/>
		<rect x="11.3" y="6.3" class="st1" width="0.9" height="0.9"/>
		<rect x="10.4" y="7.2" class="st1" width="0.9" height="0.9"/>
		<rect x="9.5" y="8.1" class="st1" width="0.9" height="0.9"/>
		<rect x="9.5" y="9" class="st1" width="0.9" height="0.9"/>
		<rect x="10.4" y="9.9" class="st1" width="0.9" height="0.9"/>
		<rect x="11.3" y="10.8" class="st1" width="0.9" height="0.9"/>
		<rect x="6.7" y="6.3" class="st2" width="0.9" height="0.9"/>
		<rect x="7.6" y="7.2" class="st2" width="0.9" height="0.9"/>
		<rect x="9.5" y="7.2" class="st2" width="0.9" height="0.9"/>
		<rect x="10.4" y="6.3" class="st2" width="0.9" height="0.9"/>
		<rect x="8.5" y="8.1" class="st2" width="0.9" height="0.9"/>
		<rect x="8.5" y="9" class="st2" width="0.9" height="0.9"/>
		<rect x="10.4" y="10.8" class="st2" width="0.9" height="0.9"/>
		<rect x="9.5" y="9.9" class="st2" width="0.9" height="0.9"/>
		<rect x="7.6" y="9.9" class="st2" width="0.9" height="0.9"/>
		<rect x="6.7" y="10.8" class="st2" width="0.9" height="0.9"/>
		<rect x="6.7" y="7.2" class="st1" width="0.9" height="0.9"/>
		<rect x="7.6" y="8.1" class="st1" width="0.9" height="0.9"/>
		<rect x="7.6" y="9" class="st1" width="0.9" height="0.9"/>
		<rect x="6.7" y="9.9" class="st1" width="0.9" height="0.9"/>
		<rect x="5.8" y="10.8" class="st1" width="0.9" height="0.9"/>
		<rect x="4" y="5.4" class="st0" width="0.9" height="0.9"/>
		<rect x="4.9" y="5.4" class="st0" width="0.9" height="0.9"/>
		<rect x="5.8" y="5.4" class="st0" width="0.9" height="0.9"/>
		<rect x="6.7" y="5.4" class="st0" width="0.9" height="0.9"/>
		<rect x="7.6" y="6.3" class="st0" width="0.9" height="0.9"/>
		<rect x="8.5" y="7.2" class="st0" width="0.9" height="0.9"/>
		<rect x="9.5" y="6.3" class="st0" width="0.9" height="0.9"/>
		<rect x="10.4" y="5.4" class="st0" width="0.9" height="0.9"/>
		<rect x="11.3" y="5.4" class="st0" width="0.9" height="0.9"/>
		<rect x="12.2" y="5.4" class="st0" width="0.9" height="0.9"/>
		<rect x="13.1" y="5.4" class="st0" width="0.9" height="0.9"/>
		<rect x="12.2" y="6.3" class="st0" width="0.9" height="0.9"/>
		<rect x="11.3" y="7.2" class="st0" width="0.9" height="0.9"/>
		<rect x="10.4" y="8.1" class="st0" width="0.9" height="0.9"/>
		<rect x="10.4" y="9" class="st0" width="0.9" height="0.9"/>
		<rect x="11.3" y="9.9" class="st0" width="0.9" height="0.9"/>
		<rect x="12.2" y="10.8" class="st0" width="0.9" height="0.9"/>
		<rect x="13.1" y="11.7" class="st0" width="0.9" height="0.9"/>
		<rect x="12.2" y="11.7" class="st0" width="0.9" height="0.9"/>
		<rect x="11.3" y="11.7" class="st0" width="0.9" height="0.9"/>
		<rect x="6.7" y="11.7" class="st0" width="0.9" height="0.9"/>
		<rect x="10.4" y="11.7" class="st0" width="0.9" height="0.9"/>
		<rect x="9.5" y="10.8" class="st0" width="0.9" height="0.9"/>
		<rect x="8.5" y="9.9" class="st0" width="0.9" height="0.9"/>
		<rect x="7.6" y="10.8" class="st0" width="0.9" height="0.9"/>
		<rect x="4.9" y="11.7" class="st0" width="0.9" height="0.9"/>
		<rect x="5.8" y="11.7" class="st0" width="0.9" height="0.9"/>
	</g>
</g>
</svg>
