<svg xmlns="http://www.w3.org/2000/svg" xmlns:xlink="http://www.w3.org/1999/xlink" id="Layer_1" width="18" height="18" x="0" style="enable-background:new 0 0 18 18" y="0" version="1.1" viewBox="0 0 18 18" xml:space="preserve"><style type="text/css">.st0{fill:#231f20}.st1{fill:#87d6c5}.st2{fill:#dbf3ee}</style><g><g><rect width=".9" height=".9" x="4" y="11.7" class="st0"/><rect width=".9" height=".9" x="4.9" y="10.8" class="st0"/><rect width=".9" height=".9" x="5.8" y="9.9" class="st0"/><rect width=".9" height=".9" x="6.7" y="9" class="st0"/><rect width=".9" height=".9" x="6.7" y="8.1" class="st0"/><rect width=".9" height=".9" x="5.8" y="7.2" class="st0"/><rect width=".9" height=".9" x="4.9" y="6.3" class="st0"/><rect width=".9" height=".9" x="5.8" y="6.3" class="st1"/><rect width=".9" height=".9" x="11.3" y="6.3" class="st1"/><rect width=".9" height=".9" x="10.4" y="7.2" class="st1"/><rect width=".9" height=".9" x="9.5" y="8.1" class="st1"/><rect width=".9" height=".9" x="9.5" y="9" class="st1"/><rect width=".9" height=".9" x="10.4" y="9.9" class="st1"/><rect width=".9" height=".9" x="11.3" y="10.8" class="st1"/><rect width=".9" height=".9" x="6.7" y="6.3" class="st2"/><rect width=".9" height=".9" x="7.6" y="7.2" class="st2"/><rect width=".9" height=".9" x="9.5" y="7.2" class="st2"/><rect width=".9" height=".9" x="10.4" y="6.3" class="st2"/><rect width=".9" height=".9" x="8.5" y="8.1" class="st2"/><rect width=".9" height=".9" x="8.5" y="9" class="st2"/><rect width=".9" height=".9" x="10.4" y="10.8" class="st2"/><rect width=".9" height=".9" x="9.5" y="9.9" class="st2"/><rect width=".9" height=".9" x="7.6" y="9.9" class="st2"/><rect width=".9" height=".9" x="6.7" y="10.8" class="st2"/><rect width=".9" height=".9" x="6.7" y="7.2" class="st1"/><rect width=".9" height=".9" x="7.6" y="8.1" class="st1"/><rect width=".9" height=".9" x="7.6" y="9" class="st1"/><rect width=".9" height=".9" x="6.7" y="9.9" class="st1"/><rect width=".9" height=".9" x="5.8" y="10.8" class="st1"/><rect width=".9" height=".9" x="4" y="5.4" class="st0"/><rect width=".9" height=".9" x="4.9" y="5.4" class="st0"/><rect width=".9" height=".9" x="5.8" y="5.4" class="st0"/><rect width=".9" height=".9" x="6.7" y="5.4" class="st0"/><rect width=".9" height=".9" x="7.6" y="6.3" class="st0"/><rect width=".9" height=".9" x="8.5" y="7.2" class="st0"/><rect width=".9" height=".9" x="9.5" y="6.3" class="st0"/><rect width=".9" height=".9" x="10.4" y="5.4" class="st0"/><rect width=".9" height=".9" x="11.3" y="5.4" class="st0"/><rect width=".9" height=".9" x="12.2" y="5.4" class="st0"/><rect width=".9" height=".9" x="13.1" y="5.4" class="st0"/><rect width=".9" height=".9" x="12.2" y="6.3" class="st0"/><rect width=".9" height=".9" x="11.3" y="7.2" class="st0"/><rect width=".9" height=".9" x="10.4" y="8.1" class="st0"/><rect width=".9" height=".9" x="10.4" y="9" class="st0"/><rect width=".9" height=".9" x="11.3" y="9.9" class="st0"/><rect width=".9" height=".9" x="12.2" y="10.8" class="st0"/><rect width=".9" height=".9" x="13.1" y="11.7" class="st0"/><rect width=".9" height=".9" x="12.2" y="11.7" class="st0"/><rect width=".9" height=".9" x="11.3" y="11.7" class="st0"/><rect width=".9" height=".9" x="6.7" y="11.7" class="st0"/><rect width=".9" height=".9" x="10.4" y="11.7" class="st0"/><rect width=".9" height=".9" x="9.5" y="10.8" class="st0"/><rect width=".9" height=".9" x="8.5" y="9.9" class="st0"/><rect width=".9" height=".9" x="7.6" y="10.8" class="st0"/><rect width=".9" height=".9" x="4.9" y="11.7" class="st0"/><rect width=".9" height=".9" x="5.8" y="11.7" class="st0"/></g></g></svg>