<svg xmlns="http://www.w3.org/2000/svg" xmlns:xlink="http://www.w3.org/1999/xlink" id="Layer_1" width="18" height="56" x="0" style="enable-background:new 0 0 18 56" y="0" version="1.1" viewBox="0 0 18 56" xml:space="preserve"><style type="text/css">.st0{fill:#c3ebe2}.st1{fill:#87d6c5}.st2{fill:#272324}</style><rect width="16" height="24" x="2" y="30" class="st0"/><g><rect width="16" height="2" x="2" class="st1"/><rect width="2" height="24" y="2" class="st1"/><rect width="16" height="2" x="2" y="26" class="st1"/></g><g><rect width="2.2" height="2.2" x="11" y="8.4" class="st1"/><rect width="2.2" height="2.2" x="11" y="17.4" class="st1"/><rect width="2.2" height="2.2" x="8.7" y="10.6" class="st1"/><rect width="2.2" height="2.2" x="8.7" y="15.1" class="st1"/><rect width="2.2" height="2.2" x="6.5" y="12.9" class="st1"/></g><g><rect width="16" height="2" x="2" y="28" class="st1"/><rect width="2" height="24" y="30" class="st1"/><rect width="16" height="2" x="2" y="54" class="st1"/></g><g><rect width="2.2" height="2.2" x="7.5" y="45.4" class="st2"/><rect width="2.2" height="2.2" x="7.5" y="36.4" class="st2"/><rect width="2.2" height="2.2" x="9.7" y="43.1" class="st2"/><rect width="2.2" height="2.2" x="9.7" y="38.6" class="st2"/><rect width="2.2" height="2.2" x="12" y="40.9" class="st2"/></g></svg>