<?xml version="1.0" encoding="utf-8"?>
<!-- Generator: Adobe Illustrator 22.0.0, SVG Export Plug-In . SVG Version: 6.00 Build 0)  -->
<svg version="1.1" id="Layer_1" xmlns="http://www.w3.org/2000/svg" xmlns:xlink="http://www.w3.org/1999/xlink" x="0px" y="0px"
	 width="18px" height="56px" viewBox="0 0 18 56" style="enable-background:new 0 0 18 56;" xml:space="preserve">
<style type="text/css">
	.st0{fill:#C3EBE2;}
	.st1{fill:#87D6C5;}
	.st2{fill:#272324;}
</style>
<rect x="2" y="30" class="st0" width="16" height="24"/>
<g>
	<rect x="2" class="st1" width="16" height="2"/>
	<rect y="2" class="st1" width="2" height="24"/>
	<rect x="2" y="26" class="st1" width="16" height="2"/>
</g>
<g>
	<rect x="11" y="8.4" class="st1" width="2.2" height="2.2"/>
	<rect x="11" y="17.4" class="st1" width="2.2" height="2.2"/>
	<rect x="8.7" y="10.6" class="st1" width="2.2" height="2.2"/>
	<rect x="8.7" y="15.1" class="st1" width="2.2" height="2.2"/>
	<rect x="6.5" y="12.9" class="st1" width="2.2" height="2.2"/>
</g>
<g>
	<rect x="2" y="28" class="st1" width="16" height="2"/>
	<rect y="30" class="st1" width="2" height="24"/>
	<rect x="2" y="54" class="st1" width="16" height="2"/>
</g>
<g>
	<rect x="7.5" y="45.4" class="st2" width="2.2" height="2.2"/>
	<rect x="7.5" y="36.4" class="st2" width="2.2" height="2.2"/>
	<rect x="9.7" y="43.1" class="st2" width="2.2" height="2.2"/>
	<rect x="9.7" y="38.6" class="st2" width="2.2" height="2.2"/>
	<rect x="12" y="40.9" class="st2" width="2.2" height="2.2"/>
</g>
</svg>
