<?xml version="1.0" encoding="utf-8"?>
<!-- Generator: Adobe Illustrator 22.0.0, SVG Export Plug-In . SVG Version: 6.00 Build 0)  -->
<svg version="1.1" id="Layer_1" xmlns="http://www.w3.org/2000/svg" xmlns:xlink="http://www.w3.org/1999/xlink" x="0px" y="0px"
	 width="14px" height="13px" viewBox="0 0 14 13" style="enable-background:new 0 0 14 13;" xml:space="preserve">
<style type="text/css">
	.st0{fill:#231F20;}
</style>
<g>
	<g>
		
			<rect x="8.1" y="1.7" transform="matrix(-1 -1.224647e-16 1.224647e-16 -1 16.9474 4.8947)" class="st0" width="0.7" height="1.5"/>
		
			<rect x="8.8" y="3.2" transform="matrix(-1 -1.224647e-16 1.224647e-16 -1 18.421 7.8421)" class="st0" width="0.7" height="1.5"/>
		<rect x="5.9" y="1" transform="matrix(-1 -1.224647e-16 1.224647e-16 -1 12.5263 2.6842)" class="st0" width="0.7" height="0.7"/>
		<rect x="6.6" y="0.2" transform="matrix(-1 -1.224647e-16 1.224647e-16 -1 14 1.2105)" class="st0" width="0.7" height="0.7"/>
		<rect x="7.4" y="1" transform="matrix(-1 -1.224647e-16 1.224647e-16 -1 15.4737 2.6842)" class="st0" width="0.7" height="0.7"/>
		<rect x="5.2" y="1.7" class="st0" width="0.7" height="1.5"/>
		<rect x="4.4" y="3.2" class="st0" width="0.7" height="1.5"/>
		<rect x="0.7" y="6.1" class="st0" width="0.7" height="0.7"/>
		<rect x="1.5" y="11.3" class="st0" width="0.7" height="0.7"/>
		<rect x="2.2" y="12" class="st0" width="0.7" height="0.7"/>
		<rect x="2.9" y="8.3" class="st0" width="0.7" height="1.5"/>
		<rect x="2.2" y="9.8" class="st0" width="0.7" height="1.5"/>
		<rect x="1.5" y="6.9" class="st0" width="0.7" height="0.7"/>
		<rect y="5.4" class="st0" width="0.7" height="0.7"/>
		<rect x="2.2" y="7.6" class="st0" width="0.7" height="0.7"/>
		<rect x="4.4" y="11.3" class="st0" width="1.5" height="0.7"/>
		<rect x="2.9" y="12" class="st0" width="1.5" height="0.7"/>
		<rect x="6.6" y="9.8" class="st0" width="0.7" height="0.7"/>
		<rect x="5.9" y="10.6" class="st0" width="0.7" height="0.7"/>
		<rect x="12.5" y="6.1" transform="matrix(-1 -1.224647e-16 1.224647e-16 -1 25.7894 13)" class="st0" width="0.7" height="0.7"/>
		
			<rect x="13.3" y="5.4" transform="matrix(-1 -1.224647e-16 1.224647e-16 -1 27.2631 11.5263)" class="st0" width="0.7" height="0.7"/>
		<rect x="11.8" y="11.3" class="st0" width="0.7" height="0.7"/>
		<rect x="9.6" y="7.6" class="st0" width="0.7" height="0.7"/>
		<rect x="3.7" y="7.6" class="st0" width="0.7" height="0.7"/>
		<rect x="10.3" y="8.3" class="st0" width="0.7" height="1.5"/>
		<rect x="11.1" y="9.8" class="st0" width="0.7" height="1.5"/>
		
			<rect x="11.8" y="6.9" transform="matrix(-1 -1.224647e-16 1.224647e-16 -1 24.3158 14.4737)" class="st0" width="0.7" height="0.7"/>
		
			<rect x="11.1" y="7.6" transform="matrix(-1 -1.224647e-16 1.224647e-16 -1 22.8421 15.9474)" class="st0" width="0.7" height="0.7"/>
		<rect x="8.1" y="11.3" class="st0" width="1.5" height="0.7"/>
		<rect x="7.4" y="10.6" class="st0" width="0.7" height="0.7"/>
		<rect x="9.6" y="4.7" class="st0" width="3.7" height="0.7"/>
		<rect x="0.7" y="4.7" class="st0" width="3.7" height="0.7"/>
		<rect x="9.6" y="12" class="st0" width="2.2" height="0.7"/>
	</g>
</g>
</svg>
