<svg xmlns="http://www.w3.org/2000/svg" xmlns:xlink="http://www.w3.org/1999/xlink" id="Layer_1" width="14" height="13" x="0" style="enable-background:new 0 0 14 13" y="0" version="1.1" viewBox="0 0 14 13" xml:space="preserve"><style type="text/css">.st0{fill:#231f20}</style><g><g><rect width=".7" height="1.5" x="8.1" y="1.7" class="st0" transform="matrix(-1 -1.224647e-16 1.224647e-16 -1 16.9474 4.8947)"/><rect width=".7" height="1.5" x="8.8" y="3.2" class="st0" transform="matrix(-1 -1.224647e-16 1.224647e-16 -1 18.421 7.8421)"/><rect width=".7" height=".7" x="5.9" y="1" class="st0" transform="matrix(-1 -1.224647e-16 1.224647e-16 -1 12.5263 2.6842)"/><rect width=".7" height=".7" x="6.6" y=".2" class="st0" transform="matrix(-1 -1.224647e-16 1.224647e-16 -1 14 1.2105)"/><rect width=".7" height=".7" x="7.4" y="1" class="st0" transform="matrix(-1 -1.224647e-16 1.224647e-16 -1 15.4737 2.6842)"/><rect width=".7" height="1.5" x="5.2" y="1.7" class="st0"/><rect width=".7" height="1.5" x="4.4" y="3.2" class="st0"/><rect width=".7" height=".7" x=".7" y="6.1" class="st0"/><rect width=".7" height=".7" x="1.5" y="11.3" class="st0"/><rect width=".7" height=".7" x="2.2" y="12" class="st0"/><rect width=".7" height="1.5" x="2.9" y="8.3" class="st0"/><rect width=".7" height="1.5" x="2.2" y="9.8" class="st0"/><rect width=".7" height=".7" x="1.5" y="6.9" class="st0"/><rect width=".7" height=".7" y="5.4" class="st0"/><rect width=".7" height=".7" x="2.2" y="7.6" class="st0"/><rect width="1.5" height=".7" x="4.4" y="11.3" class="st0"/><rect width="1.5" height=".7" x="2.9" y="12" class="st0"/><rect width=".7" height=".7" x="6.6" y="9.8" class="st0"/><rect width=".7" height=".7" x="5.9" y="10.6" class="st0"/><rect width=".7" height=".7" x="12.5" y="6.1" class="st0" transform="matrix(-1 -1.224647e-16 1.224647e-16 -1 25.7894 13)"/><rect width=".7" height=".7" x="13.3" y="5.4" class="st0" transform="matrix(-1 -1.224647e-16 1.224647e-16 -1 27.2631 11.5263)"/><rect width=".7" height=".7" x="11.8" y="11.3" class="st0"/><rect width=".7" height=".7" x="9.6" y="7.6" class="st0"/><rect width=".7" height=".7" x="3.7" y="7.6" class="st0"/><rect width=".7" height="1.5" x="10.3" y="8.3" class="st0"/><rect width=".7" height="1.5" x="11.1" y="9.8" class="st0"/><rect width=".7" height=".7" x="11.8" y="6.9" class="st0" transform="matrix(-1 -1.224647e-16 1.224647e-16 -1 24.3158 14.4737)"/><rect width=".7" height=".7" x="11.1" y="7.6" class="st0" transform="matrix(-1 -1.224647e-16 1.224647e-16 -1 22.8421 15.9474)"/><rect width="1.5" height=".7" x="8.1" y="11.3" class="st0"/><rect width=".7" height=".7" x="7.4" y="10.6" class="st0"/><rect width="3.7" height=".7" x="9.6" y="4.7" class="st0"/><rect width="3.7" height=".7" x=".7" y="4.7" class="st0"/><rect width="2.2" height=".7" x="9.6" y="12" class="st0"/></g></g></svg>