<?xml version="1.0" encoding="utf-8"?>
<!-- Generator: Adobe Illustrator 22.0.0, SVG Export Plug-In . SVG Version: 6.00 Build 0)  -->
<svg version="1.1" id="Layer_1" xmlns="http://www.w3.org/2000/svg" xmlns:xlink="http://www.w3.org/1999/xlink" x="0px" y="0px"
	 width="18px" height="18px" viewBox="0 0 18 18" style="enable-background:new 0 0 18 18;" xml:space="preserve">
<style type="text/css">
	.st0{fill:#231F20;}
	.st1{fill:#87D6C5;}
	.st2{fill:#DBF3EE;}
</style>
<g>
	<rect x="15.5" y="11.2" class="st0" width="0.9" height="0.9"/>
	<rect x="15.5" y="10.3" class="st0" width="0.9" height="0.9"/>
	<rect x="15.5" y="9.4" class="st0" width="0.9" height="0.9"/>
	<rect x="15.5" y="8.6" class="st0" width="0.9" height="0.9"/>
	<rect x="15.5" y="7.7" class="st0" width="0.9" height="0.9"/>
	<rect x="14.6" y="13.8" class="st0" width="0.9" height="0.9"/>
	<rect x="14.6" y="12.9" class="st0" width="0.9" height="0.9"/>
	<rect x="14.6" y="12" class="st0" width="0.9" height="0.9"/>
	<rect x="14.6" y="11.2" class="st1" width="0.9" height="0.9"/>
	<rect x="14.6" y="10.3" class="st2" width="0.9" height="0.9"/>
	<rect x="14.6" y="9.4" class="st2" width="0.9" height="0.9"/>
	<rect x="14.6" y="8.6" class="st1" width="0.9" height="0.9"/>
	<rect x="14.6" y="7.7" class="st2" width="0.9" height="0.9"/>
	<rect x="14.6" y="6.8" class="st0" width="0.9" height="0.9"/>
	<rect x="13.8" y="14.6" class="st0" width="0.9" height="0.9"/>
	<rect x="13.8" y="13.8" class="st1" width="0.9" height="0.9"/>
	<rect x="13.8" y="12.9" class="st2" width="0.9" height="0.9"/>
	<rect x="13.8" y="12" class="st2" width="0.9" height="0.9"/>
	<rect x="13.8" y="11.2" class="st1" width="0.9" height="0.9"/>
	<rect x="13.8" y="10.3" class="st2" width="0.9" height="0.9"/>
	<rect x="13.8" y="9.4" class="st2" width="0.9" height="0.9"/>
	<rect x="13.8" y="8.6" class="st1" width="0.9" height="0.9"/>
	<rect x="13.8" y="7.7" class="st2" width="0.9" height="0.9"/>
	<rect x="13.8" y="6.8" class="st2" width="0.9" height="0.9"/>
	<rect x="13.8" y="6" class="st0" width="0.9" height="0.9"/>
	<rect x="12.9" y="15.5" class="st0" width="0.9" height="0.9"/>
	<rect x="12.9" y="14.6" class="st2" width="0.9" height="0.9"/>
	<rect x="12.9" y="13.8" class="st1" width="0.9" height="0.9"/>
	<rect x="12.9" y="12.9" class="st2" width="0.9" height="0.9"/>
	<rect x="12.9" y="12" class="st2" width="0.9" height="0.9"/>
	<rect x="12.9" y="11.2" class="st1" width="0.9" height="0.9"/>
	<rect x="12.9" y="10.3" class="st2" width="0.9" height="0.9"/>
	<rect x="12.9" y="9.4" class="st2" width="0.9" height="0.9"/>
	<rect x="12.9" y="8.6" class="st1" width="0.9" height="0.9"/>
	<rect x="12.9" y="7.7" class="st2" width="0.9" height="0.9"/>
	<rect x="12.9" y="6.8" class="st2" width="0.9" height="0.9"/>
	<rect x="12.9" y="6" class="st0" width="0.9" height="0.9"/>
	<rect x="12" y="16.4" class="st0" width="0.9" height="0.9"/>
	<rect x="12" y="15.5" class="st1" width="0.9" height="0.9"/>
	<rect x="12" y="14.6" class="st2" width="0.9" height="0.9"/>
	<rect x="12" y="13.8" class="st1" width="0.9" height="0.9"/>
	<rect x="12" y="12.9" class="st2" width="0.9" height="0.9"/>
	<rect x="12" y="12" class="st2" width="0.9" height="0.9"/>
	<rect x="12" y="11.2" class="st1" width="0.9" height="0.9"/>
	<rect x="12" y="10.3" class="st2" width="0.9" height="0.9"/>
	<rect x="12" y="9.4" class="st2" width="0.9" height="0.9"/>
	<rect x="12" y="8.6" class="st1" width="0.9" height="0.9"/>
	<rect x="12" y="7.7" class="st2" width="0.9" height="0.9"/>
	<rect x="12" y="6.8" class="st2" width="0.9" height="0.9"/>
	<rect x="12" y="6" class="st0" width="0.9" height="0.9"/>
	<rect x="11.2" y="16.4" class="st0" width="0.9" height="0.9"/>
	<rect x="11.2" y="15.5" class="st1" width="0.9" height="0.9"/>
	<rect x="11.2" y="14.6" class="st2" width="0.9" height="0.9"/>
	<rect x="11.2" y="13.8" class="st1" width="0.9" height="0.9"/>
	<rect x="11.2" y="12.9" class="st2" width="0.9" height="0.9"/>
	<rect x="11.2" y="12" class="st2" width="0.9" height="0.9"/>
	<rect x="11.2" y="11.2" class="st1" width="0.9" height="0.9"/>
	<rect x="11.2" y="10.3" class="st2" width="0.9" height="0.9"/>
	<rect x="11.2" y="9.4" class="st2" width="0.9" height="0.9"/>
	<rect x="11.2" y="8.6" class="st1" width="0.9" height="0.9"/>
	<rect x="11.2" y="7.7" class="st2" width="0.9" height="0.9"/>
	<rect x="11.2" y="6.8" class="st2" width="0.9" height="0.9"/>
	<rect x="11.2" y="6" class="st0" width="0.9" height="0.9"/>
	<rect x="11.2" y="4.2" class="st0" width="0.9" height="0.9"/>
	<rect x="11.2" y="3.4" class="st0" width="0.9" height="0.9"/>
	<rect x="11.2" y="2.5" class="st0" width="0.9" height="0.9"/>
	<rect x="10.3" y="16.4" class="st0" width="0.9" height="0.9"/>
	<rect x="10.3" y="15.5" class="st1" width="0.9" height="0.9"/>
	<rect x="10.3" y="14.6" class="st1" width="0.9" height="0.9"/>
	<rect x="10.3" y="13.8" class="st1" width="0.9" height="0.9"/>
	<rect x="10.3" y="12.9" class="st1" width="0.9" height="0.9"/>
	<rect x="10.3" y="12" class="st1" width="0.9" height="0.9"/>
	<rect x="10.3" y="11.2" class="st1" width="0.9" height="0.9"/>
	<rect x="10.3" y="10.3" class="st1" width="0.9" height="0.9"/>
	<rect x="10.3" y="9.4" class="st1" width="0.9" height="0.9"/>
	<rect x="10.3" y="8.6" class="st1" width="0.9" height="0.9"/>
	<rect x="10.3" y="7.7" class="st2" width="0.9" height="0.9"/>
	<rect x="10.3" y="6.8" class="st2" width="0.9" height="0.9"/>
	<rect x="10.3" y="6" class="st0" width="0.9" height="0.9"/>
	<rect x="10.3" y="5.1" class="st0" width="0.9" height="0.9"/>
	<rect x="10.3" y="4.2" class="st1" width="0.9" height="0.9"/>
	<rect x="10.3" y="3.4" class="st1" width="0.9" height="0.9"/>
	<rect x="10.3" y="2.5" class="st1" width="0.9" height="0.9"/>
	<rect x="10.3" y="1.6" class="st0" width="0.9" height="0.9"/>
	<rect x="9.4" y="16.4" class="st0" width="0.9" height="0.9"/>
	<rect x="9.4" y="15.5" class="st1" width="0.9" height="0.9"/>
	<rect x="9.4" y="14.6" class="st1" width="0.9" height="0.9"/>
	<rect x="9.4" y="13.8" class="st2" width="0.9" height="0.9"/>
	<rect x="9.4" y="12.9" class="st1" width="0.9" height="0.9"/>
	<rect x="9.4" y="12" class="st1" width="0.9" height="0.9"/>
	<rect x="9.4" y="11.2" class="st1" width="0.9" height="0.9"/>
	<rect x="9.4" y="10.3" class="st1" width="0.9" height="0.9"/>
	<rect x="9.4" y="9.4" class="st1" width="0.9" height="0.9"/>
	<rect x="9.4" y="8.6" class="st1" width="0.9" height="0.9"/>
	<rect x="9.4" y="7.7" class="st1" width="0.9" height="0.9"/>
	<rect x="9.4" y="6.8" class="st1" width="0.9" height="0.9"/>
	<rect x="9.4" y="6" class="st0" width="0.9" height="0.9"/>
	<rect x="9.4" y="5.1" class="st1" width="0.9" height="0.9"/>
	<rect x="9.4" y="4.2" class="st1" width="0.9" height="0.9"/>
	<rect x="9.4" y="3.4" class="st2" width="0.9" height="0.9"/>
	<rect x="9.4" y="2.5" class="st2" width="0.9" height="0.9"/>
	<rect x="9.4" y="1.6" class="st2" width="0.9" height="0.9"/>
	<rect x="9.4" y="0.7" class="st0" width="0.9" height="0.9"/>
	<rect x="8.6" y="16.4" class="st0" width="0.9" height="0.9"/>
	<rect x="8.6" y="15.5" class="st1" width="0.9" height="0.9"/>
	<rect x="8.6" y="14.6" class="st2" width="0.9" height="0.9"/>
	<rect x="8.6" y="13.8" class="st2" width="0.9" height="0.9"/>
	<rect x="8.6" y="12.9" class="st2" width="0.9" height="0.9"/>
	<rect x="8.6" y="12" class="st2" width="0.9" height="0.9"/>
	<rect x="8.6" y="11.2" class="st1" width="0.9" height="0.9"/>
	<rect x="8.6" y="10.3" class="st1" width="0.9" height="0.9"/>
	<rect x="8.6" y="9.4" class="st1" width="0.9" height="0.9"/>
	<rect x="8.6" y="8.6" class="st1" width="0.9" height="0.9"/>
	<rect x="8.6" y="7.7" class="st1" width="0.9" height="0.9"/>
	<rect x="8.6" y="6.8" class="st1" width="0.9" height="0.9"/>
	<rect x="8.6" y="6" class="st1" width="0.9" height="0.9"/>
	<rect x="8.6" y="5.1" class="st2" width="0.9" height="0.9"/>
	<rect x="8.6" y="4.2" class="st2" width="0.9" height="0.9"/>
	<rect x="8.6" y="3.4" class="st2" width="0.9" height="0.9"/>
	<rect x="8.6" y="2.5" class="st2" width="0.9" height="0.9"/>
	<rect x="8.6" y="1.6" class="st2" width="0.9" height="0.9"/>
	<rect x="8.6" y="0.7" class="st0" width="0.9" height="0.9"/>
	<rect x="7.7" y="16.4" class="st0" width="0.9" height="0.9"/>
	<rect x="7.7" y="15.5" class="st1" width="0.9" height="0.9"/>
	<rect x="7.7" y="14.6" class="st2" width="0.9" height="0.9"/>
	<rect x="7.7" y="13.8" class="st2" width="0.9" height="0.9"/>
	<rect x="7.7" y="12.9" class="st2" width="0.9" height="0.9"/>
	<rect x="7.7" y="12" class="st1" width="0.9" height="0.9"/>
	<rect x="7.7" y="11.2" class="st2" width="0.9" height="0.9"/>
	<rect x="7.7" y="10.3" class="st2" width="0.9" height="0.9"/>
	<rect x="7.7" y="9.4" class="st2" width="0.9" height="0.9"/>
	<rect x="7.7" y="8.6" class="st1" width="0.9" height="0.9"/>
	<rect x="7.7" y="7.7" class="st1" width="0.9" height="0.9"/>
	<rect x="7.7" y="6.8" class="st1" width="0.9" height="0.9"/>
	<rect x="7.7" y="6" class="st2" width="0.9" height="0.9"/>
	<rect x="7.7" y="5.1" class="st2" width="0.9" height="0.9"/>
	<rect x="7.7" y="4.2" class="st2" width="0.9" height="0.9"/>
	<rect x="7.7" y="3.4" class="st2" width="0.9" height="0.9"/>
	<rect x="7.7" y="2.5" class="st2" width="0.9" height="0.9"/>
	<rect x="7.7" y="1.6" class="st2" width="0.9" height="0.9"/>
	<rect x="7.7" y="0.7" class="st0" width="0.9" height="0.9"/>
	<rect x="6.8" y="16.4" class="st0" width="0.9" height="0.9"/>
	<rect x="6.8" y="15.5" class="st1" width="0.9" height="0.9"/>
	<rect x="6.8" y="14.6" class="st2" width="0.9" height="0.9"/>
	<rect x="6.8" y="13.8" class="st2" width="0.9" height="0.9"/>
	<rect x="6.8" y="12.9" class="st2" width="0.9" height="0.9"/>
	<rect x="6.8" y="12" class="st2" width="0.9" height="0.9"/>
	<rect x="6.8" y="11.2" class="st2" width="0.9" height="0.9"/>
	<rect x="6.8" y="10.3" class="st2" width="0.9" height="0.9"/>
	<rect x="6.8" y="9.4" class="st2" width="0.9" height="0.9"/>
	<rect x="6.8" y="8.6" class="st2" width="0.9" height="0.9"/>
	<rect x="6.8" y="7.7" class="st2" width="0.9" height="0.9"/>
	<rect x="6.8" y="6.8" class="st2" width="0.9" height="0.9"/>
	<rect x="6.8" y="6" class="st2" width="0.9" height="0.9"/>
	<rect x="6.8" y="5.1" class="st2" width="0.9" height="0.9"/>
	<rect x="6.8" y="4.2" class="st2" width="0.9" height="0.9"/>
	<rect x="6.8" y="3.4" class="st2" width="0.9" height="0.9"/>
	<rect x="6.8" y="2.5" class="st0" width="0.9" height="0.9"/>
	<rect x="6.8" y="1.6" class="st0" width="0.9" height="0.9"/>
	<rect x="6" y="16.4" class="st0" width="0.9" height="0.9"/>
	<rect x="6" y="15.5" class="st1" width="0.9" height="0.9"/>
	<rect x="6" y="14.6" class="st1" width="0.9" height="0.9"/>
	<rect x="6" y="13.8" class="st2" width="0.9" height="0.9"/>
	<rect x="6" y="12.9" class="st2" width="0.9" height="0.9"/>
	<rect x="6" y="12" class="st2" width="0.9" height="0.9"/>
	<rect x="6" y="11.2" class="st2" width="0.9" height="0.9"/>
	<rect x="6" y="10.3" class="st2" width="0.9" height="0.9"/>
	<rect x="6" y="9.4" class="st2" width="0.9" height="0.9"/>
	<rect x="6" y="8.6" class="st2" width="0.9" height="0.9"/>
	<rect x="6" y="7.7" class="st2" width="0.9" height="0.9"/>
	<rect x="6" y="6.8" class="st2" width="0.9" height="0.9"/>
	<rect x="6" y="6" class="st2" width="0.9" height="0.9"/>
	<rect x="6" y="5.1" class="st2" width="0.9" height="0.9"/>
	<rect x="6" y="4.2" class="st2" width="0.9" height="0.9"/>
	<rect x="6" y="3.4" class="st0" width="0.9" height="0.9"/>
	<rect x="5.1" y="16.4" class="st0" width="0.9" height="0.9"/>
	<rect x="5.1" y="15.5" class="st1" width="0.9" height="0.9"/>
	<rect x="5.1" y="14.6" class="st1" width="0.9" height="0.9"/>
	<rect x="5.1" y="13.8" class="st2" width="0.9" height="0.9"/>
	<rect x="5.1" y="12.9" class="st2" width="0.9" height="0.9"/>
	<rect x="5.1" y="12" class="st2" width="0.9" height="0.9"/>
	<rect x="5.1" y="11.2" class="st2" width="0.9" height="0.9"/>
	<rect x="5.1" y="10.3" class="st2" width="0.9" height="0.9"/>
	<rect x="5.1" y="9.4" class="st2" width="0.9" height="0.9"/>
	<rect x="5.1" y="8.6" class="st2" width="0.9" height="0.9"/>
	<rect x="5.1" y="7.7" class="st2" width="0.9" height="0.9"/>
	<rect x="5.1" y="6.8" class="st2" width="0.9" height="0.9"/>
	<rect x="5.1" y="6" class="st2" width="0.9" height="0.9"/>
	<rect x="5.1" y="5.1" class="st0" width="0.9" height="0.9"/>
	<rect x="5.1" y="4.2" class="st0" width="0.9" height="0.9"/>
	<rect x="4.2" y="15.5" class="st0" width="0.9" height="0.9"/>
	<rect x="4.2" y="14.6" class="st1" width="0.9" height="0.9"/>
	<rect x="4.2" y="13.8" class="st1" width="0.9" height="0.9"/>
	<rect x="4.2" y="12.9" class="st1" width="0.9" height="0.9"/>
	<rect x="4.2" y="12" class="st1" width="0.9" height="0.9"/>
	<rect x="4.2" y="11.2" class="st1" width="0.9" height="0.9"/>
	<rect x="4.2" y="10.3" class="st1" width="0.9" height="0.9"/>
	<rect x="4.2" y="9.4" class="st1" width="0.9" height="0.9"/>
	<rect x="4.2" y="8.6" class="st1" width="0.9" height="0.9"/>
	<rect x="4.2" y="7.7" class="st1" width="0.9" height="0.9"/>
	<rect x="4.2" y="6.8" class="st0" width="0.9" height="0.9"/>
	<rect x="4.2" y="6" class="st0" width="0.9" height="0.9"/>
	<rect x="3.4" y="16.4" class="st0" width="0.9" height="0.9"/>
	<rect x="3.4" y="15.5" class="st1" width="0.9" height="0.9"/>
	<rect x="3.4" y="14.6" class="st1" width="0.9" height="0.9"/>
	<rect x="3.4" y="13.8" class="st2" width="0.9" height="0.9"/>
	<rect x="3.4" y="12.9" class="st2" width="0.9" height="0.9"/>
	<rect x="3.4" y="12" class="st2" width="0.9" height="0.9"/>
	<rect x="3.4" y="11.2" class="st2" width="0.9" height="0.9"/>
	<rect x="3.4" y="10.3" class="st2" width="0.9" height="0.9"/>
	<rect x="3.4" y="9.4" class="st2" width="0.9" height="0.9"/>
	<rect x="3.4" y="8.6" class="st2" width="0.9" height="0.9"/>
	<rect x="3.4" y="7.7" class="st2" width="0.9" height="0.9"/>
	<rect x="3.4" y="6.8" class="st2" width="0.9" height="0.9"/>
	<rect x="3.4" y="6" class="st0" width="0.9" height="0.9"/>
	<rect x="2.5" y="16.4" class="st0" width="0.9" height="0.9"/>
	<rect x="2.5" y="15.5" class="st1" width="0.9" height="0.9"/>
	<rect x="2.5" y="14.6" class="st1" width="0.9" height="0.9"/>
	<rect x="2.5" y="13.8" class="st2" width="0.9" height="0.9"/>
	<rect x="2.5" y="12.9" class="st2" width="0.9" height="0.9"/>
	<rect x="2.5" y="12" class="st2" width="0.9" height="0.9"/>
	<rect x="2.5" y="11.2" class="st2" width="0.9" height="0.9"/>
	<rect x="2.5" y="10.3" class="st2" width="0.9" height="0.9"/>
	<rect x="2.5" y="9.4" class="st2" width="0.9" height="0.9"/>
	<rect x="2.5" y="8.6" class="st2" width="0.9" height="0.9"/>
	<rect x="2.5" y="7.7" class="st2" width="0.9" height="0.9"/>
	<rect x="2.5" y="6.8" class="st2" width="0.9" height="0.9"/>
	<rect x="2.5" y="6" class="st0" width="0.9" height="0.9"/>
	<rect x="1.6" y="15.5" class="st0" width="0.9" height="0.9"/>
	<rect x="1.6" y="14.6" class="st0" width="0.9" height="0.9"/>
	<rect x="1.6" y="13.8" class="st0" width="0.9" height="0.9"/>
	<rect x="1.6" y="12.9" class="st0" width="0.9" height="0.9"/>
	<rect x="1.6" y="12" class="st0" width="0.9" height="0.9"/>
	<rect x="1.6" y="11.2" class="st0" width="0.9" height="0.9"/>
	<rect x="1.6" y="10.3" class="st0" width="0.9" height="0.9"/>
	<rect x="1.6" y="9.4" class="st0" width="0.9" height="0.9"/>
	<rect x="1.6" y="8.6" class="st0" width="0.9" height="0.9"/>
	<rect x="1.6" y="7.7" class="st0" width="0.9" height="0.9"/>
	<rect x="1.6" y="6.8" class="st0" width="0.9" height="0.9"/>
</g>
</svg>
